<?xml version="1.0" encoding="utf-8"?>
<!-- Generator: Adobe Illustrator 25.0.1, SVG Export Plug-In . SVG Version: 6.00 Build 0)  -->
<svg version="1.1"
	 id="svg8" xmlns:cc="http://creativecommons.org/ns#" xmlns:dc="http://purl.org/dc/elements/1.1/" xmlns:rdf="http://www.w3.org/1999/02/22-rdf-syntax-ns#" xmlns:svg="http://www.w3.org/2000/svg"
	 xmlns="http://www.w3.org/2000/svg" xmlns:xlink="http://www.w3.org/1999/xlink" x="0px" y="0px" viewBox="0 0 1984.3 708.7"
	 style="enable-background:new 0 0 1984.3 708.7;" xml:space="preserve">
<style type="text/css">
	.st0{fill:none;stroke:#000000;stroke-width:0.4141;stroke-miterlimit:10;}
	.st1{fill-rule:evenodd;clip-rule:evenodd;fill:#908D32;stroke:#000000;stroke-width:0.4141;stroke-miterlimit:10;}
	.st2{fill-rule:evenodd;clip-rule:evenodd;fill:#908D32;stroke:#000000;stroke-width:0.4141;stroke-miterlimit:11.3386;}
	.st3{fill:none;stroke:#000000;stroke-width:0.4141;stroke-miterlimit:11.3386;}
	.st4{fill:none;stroke:#000000;stroke-width:0.4437;stroke-miterlimit:10;}
	.st5{fill-rule:evenodd;clip-rule:evenodd;fill:#615F21;stroke:#000000;stroke-width:0.4437;stroke-miterlimit:11.3386;}
	.st6{fill-rule:evenodd;clip-rule:evenodd;fill:#615F21;stroke:#000000;stroke-width:0.4437;stroke-miterlimit:10;}
	.st7{fill:none;stroke:#000000;stroke-width:0.4437;stroke-miterlimit:11.3386;}
	.st8{font-family:'Arial-BoldMT';}
	.st9{font-size:22px;}
</style>
<g id="_249222488" transform="matrix(0.01917223,0,0,0.01917223,254.34253,104.38189)">
	<line id="line3821" class="st0" x1="66363.2" y1="21181.6" x2="66363.2" y2="23979.4"/>
	<polyline id="polyline3823" class="st0" points="66014.5,20830.1 66014.5,23627.9 63565.4,23627.9 63565.4,21878.9 	"/>
	<line id="line3825" class="st0" x1="66363.2" y1="23979.4" x2="63216.7" y2="23979.4"/>
	<polyline id="polyline3827" class="st0" points="63565.4,21878.9 64614.2,21878.9 64614.2,22230.4 63916.9,22230.4 
		63916.9,23279.2 65663,23279.2 65663,20830.1 	"/>
	<polyline id="polyline3829" class="st0" points="63216.7,23979.4 63216.7,21530.2 64965.7,21530.2 64965.7,22579.1 
		64265.5,22579.1 64265.5,22930.6 65314.4,22930.6 65314.4,21181.6 62865.2,21181.6 	"/>
	<line id="line3831" class="st0" x1="62865.2" y1="21181.6" x2="62865.2" y2="23979.4"/>
	<line id="line3833" class="st0" x1="65663" y1="20830.1" x2="62516.5" y2="20830.1"/>
	<line id="line3835" class="st0" x1="62167.9" y1="20830.1" x2="59018.5" y2="20830.1"/>
	<line id="line3837" class="st0" x1="59370" y1="21181.6" x2="59370" y2="23979.4"/>
	<polyline id="polyline3839" class="st0" points="59718.7,23979.4 59718.7,21530.2 61467.7,21530.2 61467.7,22579.1 
		60767.5,22579.1 60767.5,22930.6 61816.4,22930.6 61816.4,21181.6 59370,21181.6 	"/>
	<polyline id="polyline3841" class="st0" points="60070.2,21878.9 61119,21878.9 61119,22230.4 60418.9,22230.4 60418.9,23279.2 
		62167.9,23279.2 62167.9,20830.1 	"/>
	<line id="line3843" class="st0" x1="62865.2" y1="23979.4" x2="59718.7" y2="23979.4"/>
	<polyline id="polyline3845" class="st0" points="62516.5,20830.1 62516.5,23627.9 60070.2,23627.9 60070.2,21878.9 	"/>
	<line id="line3847" class="st0" x1="58669.9" y1="20830.1" x2="55523.4" y2="20830.1"/>
	<line id="line3849" class="st0" x1="55872" y1="21181.6" x2="55872" y2="23979.4"/>
	<polyline id="polyline3851" class="st0" points="56220.7,23979.4 56220.7,21530.2 57969.7,21530.2 57969.7,22579.1 
		57272.4,22579.1 57272.4,22930.6 58321.2,22930.6 58321.2,21181.6 55872,21181.6 	"/>
	<polyline id="polyline3853" class="st0" points="56572.2,21878.9 57621,21878.9 57621,22230.4 56920.9,22230.4 56920.9,23279.2 
		58669.9,23279.2 58669.9,20830.1 	"/>
	<line id="line3855" class="st0" x1="59370" y1="23979.4" x2="56220.7" y2="23979.4"/>
	<polyline id="polyline3857" class="st0" points="59018.5,20830.1 59018.5,23627.9 56572.2,23627.9 56572.2,21878.9 	"/>
	<polyline id="polyline3859" class="st0" points="65663,20481.4 55523.4,20481.4 55523.4,20830.1 	"/>
	<line id="line3861" class="st0" x1="69512.5" y1="24328.1" x2="55523.4" y2="24328.1"/>
	<polyline id="polyline3863" class="st0" points="55872,23979.4 55523.4,23979.4 55523.4,24328.1 	"/>
	<line id="line3865" class="st0" x1="66714.7" y1="23979.4" x2="66714.7" y2="21530.2"/>
	<line id="line3867" class="st0" x1="69161" y1="23979.4" x2="66714.7" y2="23979.4"/>
	<line id="line3869" class="st0" x1="67063.4" y1="23627.9" x2="67063.4" y2="21878.9"/>
	<line id="line3871" class="st0" x1="68812.4" y1="23627.9" x2="67063.4" y2="23627.9"/>
	<line id="line3873" class="st0" x1="67412" y1="23279.2" x2="67412" y2="22230.4"/>
	<line id="line3875" class="st0" x1="68460.9" y1="23279.2" x2="67412" y2="23279.2"/>
	<line id="line3877" class="st0" x1="67763.5" y1="22930.6" x2="67763.5" y2="22579.1"/>
	<line id="line3879" class="st0" x1="68112.2" y1="22930.6" x2="67763.5" y2="22930.6"/>
	<line id="line3881" class="st0" x1="68112.2" y1="22930.6" x2="68112.2" y2="22579.1"/>
	<line id="line3883" class="st0" x1="68112.2" y1="22579.1" x2="67763.5" y2="22579.1"/>
	<line id="line3885" class="st0" x1="68460.9" y1="23279.2" x2="68460.9" y2="22230.4"/>
	<line id="line3887" class="st0" x1="68460.9" y1="22230.4" x2="67412" y2="22230.4"/>
	<line id="line3889" class="st0" x1="68812.4" y1="23627.9" x2="68812.4" y2="21878.9"/>
	<line id="line3891" class="st0" x1="68812.4" y1="21878.9" x2="67063.4" y2="21878.9"/>
	<line id="line3893" class="st0" x1="69161" y1="23979.4" x2="69161" y2="21530.2"/>
	<line id="line3895" class="st0" x1="69161" y1="21530.2" x2="66714.7" y2="21530.2"/>
	<polyline id="polyline3897" class="st0" points="69161,10687.6 69161,10338.9 69512.5,10338.9 	"/>
	<line id="line3899" class="st0" x1="69512.5" y1="24328.1" x2="69512.5" y2="10338.9"/>
	<polyline id="polyline3901" class="st0" points="65663,20481.4 65663,10338.9 66014.5,10338.9 	"/>
	<polyline id="polyline3903" class="st0" points="66014.5,13836.9 68812.4,13836.9 68812.4,11387.7 67063.4,11387.7 	"/>
	<line id="line3905" class="st0" x1="69161" y1="14185.6" x2="69161" y2="11039.1"/>
	<polyline id="polyline3907" class="st0" points="67063.4,11387.7 67063.4,12436.6 67412,12436.6 67412,11739.2 68460.9,11739.2 
		68460.9,13485.4 66014.5,13485.4 	"/>
	<polyline id="polyline3909" class="st0" points="69161,11039.1 66714.7,11039.1 66714.7,12788.1 67763.5,12788.1 67763.5,12087.9 
		68112.2,12087.9 68112.2,13136.7 66363.2,13136.7 66363.2,10687.6 	"/>
	<line id="line3911" class="st0" x1="66363.2" y1="10687.6" x2="69161" y2="10687.6"/>
	<line id="line3913" class="st0" x1="66014.5" y1="13485.4" x2="66014.5" y2="10338.9"/>
	<polyline id="polyline3915" class="st0" points="66014.5,17334.9 68812.4,17334.9 68812.4,14885.7 67063.4,14885.7 	"/>
	<line id="line3917" class="st0" x1="69161" y1="17683.6" x2="69161" y2="14537.1"/>
	<polyline id="polyline3919" class="st0" points="67063.4,14885.7 67063.4,15934.6 67412,15934.6 67412,15234.4 68460.9,15234.4 
		68460.9,16983.4 66014.5,16983.4 	"/>
	<polyline id="polyline3921" class="st0" points="69161,14537.1 66714.7,14537.1 66714.7,16283.2 67763.5,16283.2 67763.5,15585.9 
		68112.2,15585.9 68112.2,16634.7 66363.2,16634.7 66363.2,14185.6 	"/>
	<line id="line3923" class="st0" x1="66363.2" y1="14185.6" x2="69161" y2="14185.6"/>
	<line id="line3925" class="st0" x1="66014.5" y1="16983.4" x2="66014.5" y2="13836.9"/>
	<line id="line3927" class="st0" x1="66014.5" y1="20481.4" x2="66014.5" y2="17334.9"/>
	<line id="line3929" class="st0" x1="66363.2" y1="17683.6" x2="69161" y2="17683.6"/>
	<polyline id="polyline3931" class="st0" points="69161,18032.2 66714.7,18032.2 66714.7,19781.2 67763.5,19781.2 67763.5,19081.1 
		68112.2,19081.1 68112.2,20132.7 66363.2,20132.7 66363.2,17683.6 	"/>
	<polyline id="polyline3933" class="st0" points="67063.4,18383.7 67063.4,19432.6 67412,19432.6 67412,18732.4 68460.9,18732.4 
		68460.9,20481.4 66014.5,20481.4 	"/>
	<line id="line3935" class="st0" x1="69161" y1="21181.6" x2="69161" y2="18032.2"/>
	<polyline id="polyline3937" class="st0" points="66014.5,20830.1 68812.4,20830.1 68812.4,18383.7 67063.4,18383.7 	"/>
	<line id="line3939" class="st0" x1="66363.2" y1="21181.6" x2="69161" y2="21181.6"/>
	<polygon id="polygon3941" class="st0" points="72976.5,19477.9 72976.5,19829.4 72627.8,19829.4 72627.8,19477.9 	"/>
	<polyline id="polyline3943" class="st0" points="70878.8,20878.3 76125.8,20878.3 76125.8,19129.3 75425.7,19129.3 
		75425.7,18780.6 76474.5,18780.6 76474.5,20878.3 	"/>
	<polygon id="polygon3945" class="st0" points="77872,18780.6 77872,19129.3 77523.3,19129.3 77523.3,18780.6 	"/>
	<polygon id="polygon3947" class="st0" points="77872,19477.9 77872,19829.4 77523.3,19829.4 77523.3,19477.9 	"/>
	<polygon id="polygon3949" class="st0" points="78572.1,18780.6 78572.1,19129.3 78223.5,19129.3 78223.5,18780.6 	"/>
	<polygon id="polygon3951" class="st0" points="78572.1,19477.9 78572.1,19829.4 78223.5,19829.4 78223.5,19477.9 	"/>
	<polygon id="polygon3953" class="st0" points="78923.6,18429.1 78923.6,20178.1 77174.7,20178.1 77174.7,18429.1 	"/>
	<polyline id="polyline3955" class="st0" points="79272.3,20178.1 79272.3,18080.4 74725.5,18080.4 74725.5,19129.3 
		75074.2,19129.3 75074.2,18429.1 76823.2,18429.1 76823.2,20526.8 	"/>
	<polyline id="polyline3957" class="st0" points="79272.3,20178.1 81021.3,20178.1 81021.3,19477.9 81370,19477.9 81370,20526.8 
		76823.2,20526.8 	"/>
	<line id="line3959" class="st0" x1="74025.3" y1="17728.9" x2="74025.3" y2="19829.4"/>
	<line id="line3961" class="st0" x1="74025.3" y1="19829.4" x2="75074.2" y2="19829.4"/>
	<line id="line3963" class="st0" x1="75074.2" y1="19829.4" x2="75074.2" y2="19477.9"/>
	<line id="line3965" class="st0" x1="75074.2" y1="19477.9" x2="74376.8" y2="19477.9"/>
	<line id="line3967" class="st0" x1="74376.8" y1="19477.9" x2="74376.8" y2="17728.9"/>
	<line id="line3969" class="st0" x1="73676.7" y1="18080.4" x2="73676.7" y2="20178.1"/>
	<line id="line3971" class="st0" x1="73676.7" y1="20178.1" x2="75425.7" y2="20178.1"/>
	<line id="line3973" class="st0" x1="75425.7" y1="20178.1" x2="75425.7" y2="19477.9"/>
	<line id="line3975" class="st0" x1="75425.7" y1="19477.9" x2="75774.3" y2="19477.9"/>
	<line id="line3977" class="st0" x1="75774.3" y1="19477.9" x2="75774.3" y2="20526.8"/>
	<line id="line3979" class="st0" x1="75774.3" y1="20526.8" x2="71227.5" y2="20526.8"/>
	<line id="line3981" class="st0" x1="73328" y1="18429.1" x2="73328" y2="20178.1"/>
	<line id="line3983" class="st0" x1="73328" y1="20178.1" x2="71579" y2="20178.1"/>
	<line id="line3985" class="st0" x1="72276.3" y1="19477.9" x2="72276.3" y2="19829.4"/>
	<line id="line3987" class="st0" x1="72276.3" y1="19829.4" x2="71927.7" y2="19829.4"/>
	<line id="line3989" class="st0" x1="72976.5" y1="18780.6" x2="72976.5" y2="19129.3"/>
	<line id="line3991" class="st0" x1="72976.5" y1="19129.3" x2="72627.8" y2="19129.3"/>
	<polyline id="polyline3993" class="st0" points="80669.8,19477.9 80669.8,19829.4 79621,19829.4 79621,17728.9 74376.8,17728.9 	
		"/>
	<polyline id="polyline3995" class="st0" points="80669.8,19477.9 79972.5,19477.9 79972.5,17728.9 	"/>
	<line id="line3997" class="st0" x1="80321.1" y1="19129.3" x2="80669.8" y2="19129.3"/>
	<line id="line3999" class="st0" x1="80321.1" y1="19129.3" x2="80321.1" y2="18080.4"/>
	<line id="line4001" class="st0" x1="80669.8" y1="19129.3" x2="80669.8" y2="18429.1"/>
	<polyline id="polyline4003" class="st0" points="81021.3,19129.3 81721.5,19129.3 81721.5,20878.3 76474.5,20878.3 	"/>
	<polyline id="polyline4005" class="st0" points="81021.3,19129.3 81021.3,18780.6 82070.1,18780.6 82070.1,21226.9 
		70530.2,21226.9 	"/>
	<polyline id="polyline4007" class="st0" points="80669.8,18429.1 82070.1,18429.1 82070.1,18080.4 80321.1,18080.4 	"/>
	<polyline id="polyline4009" class="st0" points="79972.5,17728.9 82070.1,17728.9 82070.1,17380.3 74376.8,17380.3 	"/>
	<polyline id="polyline4011" class="st0" points="74025.3,11784.6 74025.3,9686.9 74376.8,9686.9 74376.8,17380.3 	"/>
	<polyline id="polyline4013" class="st0" points="73328,11084.4 73328,9686.9 73676.7,9686.9 73676.7,11435.9 	"/>
	<polyline id="polyline4015" class="st0" points="72627.8,10735.8 72976.5,10735.8 72976.5,9686.9 70530.2,9686.9 70530.2,21226.9 	
		"/>
	<polyline id="polyline4017" class="st0" points="72627.8,10735.8 72627.8,10035.6 70878.8,10035.6 70878.8,15282.6 	"/>
	<line id="line4019" class="st0" x1="72627.8" y1="11084.4" x2="73328" y2="11084.4"/>
	<line id="line4021" class="st0" x1="72627.8" y1="11435.9" x2="73676.7" y2="11435.9"/>
	<line id="line4023" class="st0" x1="72627.8" y1="11435.9" x2="72627.8" y2="11084.4"/>
	<polyline id="polyline4025" class="st0" points="72276.3,11084.4 72276.3,11784.6 74025.3,11784.6 	"/>
	<polyline id="polyline4027" class="st0" points="72276.3,11084.4 71927.7,11084.4 71927.7,12133.3 74025.3,12133.3 
		74025.3,17380.3 	"/>
	<line id="line4029" class="st0" x1="72627.8" y1="18780.6" x2="72627.8" y2="19129.3"/>
	<line id="line4031" class="st0" x1="72976.5" y1="18780.6" x2="72627.8" y2="18780.6"/>
	<line id="line4033" class="st0" x1="71927.7" y1="19477.9" x2="71927.7" y2="19829.4"/>
	<line id="line4035" class="st0" x1="72276.3" y1="19477.9" x2="71927.7" y2="19477.9"/>
	<line id="line4037" class="st0" x1="71579" y1="18429.1" x2="71579" y2="20178.1"/>
	<line id="line4039" class="st0" x1="73328" y1="18429.1" x2="71579" y2="18429.1"/>
	<line id="line4041" class="st0" x1="71227.5" y1="15982.8" x2="71227.5" y2="20526.8"/>
	<line id="line4043" class="st0" x1="72276.3" y1="15982.8" x2="71227.5" y2="15982.8"/>
	<line id="line4045" class="st0" x1="72276.3" y1="16331.4" x2="72276.3" y2="15982.8"/>
	<line id="line4047" class="st0" x1="71579" y1="16331.4" x2="72276.3" y2="16331.4"/>
	<line id="line4049" class="st0" x1="71579" y1="18080.4" x2="71579" y2="16331.4"/>
	<line id="line4051" class="st0" x1="73676.7" y1="18080.4" x2="71579" y2="18080.4"/>
	<line id="line4053" class="st0" x1="72276.3" y1="17380.3" x2="74025.3" y2="17380.3"/>
	<line id="line4055" class="st0" x1="72276.3" y1="16680.1" x2="72276.3" y2="17380.3"/>
	<line id="line4057" class="st0" x1="71927.7" y1="16680.1" x2="72276.3" y2="16680.1"/>
	<line id="line4059" class="st0" x1="71927.7" y1="17728.9" x2="71927.7" y2="16680.1"/>
	<line id="line4061" class="st0" x1="74025.3" y1="17728.9" x2="71927.7" y2="17728.9"/>
	<polyline id="polyline4063" class="st0" points="71579,12484.8 71579,10735.8 72276.3,10735.8 72276.3,10387.1 71227.5,10387.1 
		71227.5,14931.1 	"/>
	<polyline id="polyline4065" class="st0" points="71579,12484.8 73676.7,12484.8 73676.7,17031.6 72627.8,17031.6 72627.8,16680.1 
		73328,16680.1 73328,14931.1 71227.5,14931.1 	"/>
	<polygon id="polygon4067" class="st0" points="73328,12833.4 71579,12833.4 71579,14582.4 73328,14582.4 	"/>
	<polygon id="polygon4069" class="st0" points="72276.3,13184.9 71927.7,13184.9 71927.7,13533.6 72276.3,13533.6 	"/>
	<polygon id="polygon4071" class="st0" points="72976.5,13184.9 72627.8,13184.9 72627.8,13533.6 72976.5,13533.6 	"/>
	<polygon id="polygon4073" class="st0" points="72276.3,13882.3 71927.7,13882.3 71927.7,14233.8 72276.3,14233.8 	"/>
	<polygon id="polygon4075" class="st0" points="72976.5,13882.3 72627.8,13882.3 72627.8,14233.8 72976.5,14233.8 	"/>
	<polyline id="polyline4077" class="st0" points="70878.8,20878.3 70878.8,15631.3 72627.8,15631.3 72627.8,16331.4 
		72976.5,16331.4 72976.5,15282.6 70878.8,15282.6 	"/>
	<polygon id="polygon4079" class="st0" points="72276.3,18780.6 71927.7,18780.6 71927.7,19129.3 72276.3,19129.3 	"/>
	<polyline id="polyline4081" class="st0" points="69651.4,6806.9 69302.8,6806.9 69302.8,7155.6 	"/>
	<polyline id="polyline4083" class="st0" points="80494.1,14851.7 77344.7,14851.7 77344.7,7155.6 69302.8,7155.6 	"/>
	<line id="line4085" class="st0" x1="69302.8" y1="3660.4" x2="69302.8" y2="3308.9"/>
	<line id="line4087" class="st0" x1="81194.2" y1="3308.9" x2="69302.8" y2="3308.9"/>
	<line id="line4089" class="st0" x1="69651.4" y1="4009.1" x2="69651.4" y2="6806.9"/>
	<line id="line4091" class="st0" x1="71400.4" y1="4009.1" x2="69651.4" y2="4009.1"/>
	<line id="line4093" class="st0" x1="71400.4" y1="4357.7" x2="71400.4" y2="4009.1"/>
	<line id="line4095" class="st0" x1="70002.9" y1="4357.7" x2="71400.4" y2="4357.7"/>
	<line id="line4097" class="st0" x1="70002.9" y1="5409.4" x2="70002.9" y2="4357.7"/>
	<line id="line4099" class="st0" x1="71400.4" y1="5409.4" x2="70002.9" y2="5409.4"/>
	<line id="line4101" class="st0" x1="71400.4" y1="5758.1" x2="71400.4" y2="5409.4"/>
	<line id="line4103" class="st0" x1="70002.9" y1="5758.1" x2="71400.4" y2="5758.1"/>
	<line id="line4105" class="st0" x1="70002.9" y1="6806.9" x2="70002.9" y2="5758.1"/>
	<line id="line4107" class="st0" x1="72449.2" y1="6806.9" x2="70002.9" y2="6806.9"/>
	<polyline id="polyline4109" class="st0" points="72100.6,3660.4 72100.6,6458.2 70351.6,6458.2 70351.6,6106.7 71749.1,6106.7 
		71749.1,5057.9 70351.6,5057.9 70351.6,4709.2 71749.1,4709.2 71749.1,3660.4 69302.8,3660.4 	"/>
	<line id="line4111" class="st0" x1="74546.9" y1="3660.4" x2="72100.6" y2="3660.4"/>
	<polyline id="polyline4113" class="st0" points="72800.7,5758.1 74198.2,5758.1 74198.2,5409.4 72800.7,5409.4 72800.7,4357.7 
		74198.2,4357.7 74198.2,4009.1 72449.2,4009.1 72449.2,6806.9 	"/>
	<line id="line4115" class="st0" x1="72800.7" y1="5758.1" x2="72800.7" y2="6806.9"/>
	<line id="line4117" class="st0" x1="75247.1" y1="6806.9" x2="72800.7" y2="6806.9"/>
	<polyline id="polyline4119" class="st0" points="74898.4,3660.4 74898.4,6458.2 73149.4,6458.2 73149.4,6106.7 74546.9,6106.7 
		74546.9,5057.9 73149.4,5057.9 73149.4,4709.2 74546.9,4709.2 74546.9,3660.4 	"/>
	<line id="line4121" class="st0" x1="77696.2" y1="6806.9" x2="75590.1" y2="6806.9"/>
	<polyline id="polyline4123" class="st0" points="75590.1,6806.9 75590.1,5758.1 76996.1,5758.1 76996.1,5409.4 75598.6,5409.4 
		75598.6,4357.7 76996.1,4357.7 76996.1,4009.1 75247.1,4009.1 75247.1,6806.9 	"/>
	<polyline id="polyline4125" class="st0" points="77696.2,6458.2 75947.2,6458.2 75947.2,6106.7 77344.7,6106.7 77344.7,5057.9 
		75947.2,5057.9 75947.2,4709.2 77344.7,4709.2 77344.7,3660.4 74898.4,3660.4 	"/>
	<polyline id="polyline4127" class="st0" points="81194.2,3308.9 81194.2,14851.7 80842.7,14851.7 80842.7,12751.2 	"/>
	<polyline id="polyline4129" class="st0" points="80842.7,6806.9 80842.7,3660.4 77696.2,3660.4 77696.2,6458.2 	"/>
	<polyline id="polyline4131" class="st0" points="80842.7,12402.6 78044.9,12402.6 78044.9,14151.6 78396.4,14151.6 
		78396.4,12751.2 79445.2,12751.2 79445.2,14151.6 79793.9,14151.6 79793.9,12751.2 80842.7,12751.2 	"/>
	<polyline id="polyline4133" class="st0" points="80494.1,12053.9 77696.2,12053.9 77696.2,14500.2 78745.1,14500.2 
		78745.1,13102.7 79093.7,13102.7 79093.7,14500.2 80142.6,14500.2 80142.6,13102.7 80494.1,13102.7 80494.1,14851.7 	"/>
	<polygon id="polygon4135" class="st0" points="80142.6,5057.9 80142.6,6106.7 78745.1,6106.7 78745.1,6458.2 80494.1,6458.2 
		80494.1,4009.1 80142.6,4009.1 80142.6,4709.2 78745.1,4709.2 78745.1,5057.9 	"/>
	<polygon id="polygon4137" class="st0" points="78396.4,5758.1 78396.4,6458.2 78044.9,6458.2 78044.9,4009.1 79793.9,4009.1 
		79793.9,4357.7 78396.4,4357.7 78396.4,5409.4 79793.9,5409.4 79793.9,5758.1 	"/>
	<line id="line4139" class="st0" x1="78044.9" y1="6806.9" x2="80842.7" y2="6806.9"/>
	<polyline id="polyline4141" class="st0" points="80494.1,9256.1 80494.1,7507.1 80142.6,7507.1 80142.6,8904.6 79093.7,8904.6 
		79093.7,7507.1 78745.1,7507.1 78745.1,8904.6 77696.2,8904.6 77696.2,6806.9 	"/>
	<line id="line4143" class="st0" x1="77696.2" y1="9256.1" x2="80494.1" y2="9256.1"/>
	<polyline id="polyline4145" class="st0" points="80142.6,10304.9 80142.6,11702.4 79093.7,11702.4 79093.7,10304.9 
		78745.1,10304.9 78745.1,11702.4 77696.2,11702.4 77696.2,9256.1 	"/>
	<polyline id="polyline4147" class="st0" points="79445.2,8555.9 79445.2,7155.6 78396.4,7155.6 78396.4,8555.9 78044.9,8555.9 
		78044.9,6806.9 	"/>
	<polyline id="polyline4149" class="st0" points="80842.7,12402.6 80842.7,9953.4 79793.9,9953.4 79793.9,11353.7 79445.2,11353.7 
		79445.2,9953.4 78396.4,9953.4 78396.4,11353.7 78044.9,11353.7 78044.9,9604.7 80842.7,9604.7 80842.7,7155.6 79793.9,7155.6 
		79793.9,8555.9 	"/>
	<line id="line4151" class="st0" x1="79793.9" y1="8555.9" x2="79445.2" y2="8555.9"/>
	<polyline id="polyline4153" class="st0" points="80142.6,10304.9 80494.1,10304.9 80494.1,12053.9 	"/>
	<polygon id="polygon4155" class="st0" points="59120.6,12175.8 59469.2,12175.8 59469.2,3782.3 67862.7,3782.3 67862.7,3433.6 
		59120.6,3433.6 	"/>
	<polygon id="polygon4157" class="st0" points="67862.7,6580.1 67862.7,6231.5 61918.4,6231.5 61918.4,12175.8 62267.1,12175.8 
		62267.1,6580.1 	"/>
	<polygon id="polygon4159" class="st0" points="60520.9,12175.8 61569.7,12175.8 61569.7,11127 61218.2,11127 61218.2,11827.1 
		60869.6,11827.1 60869.6,11127 59820.7,11127 59820.7,12175.8 60169.4,12175.8 60169.4,11478.5 60520.9,11478.5 	"/>
	<polygon id="polygon4161" class="st0" points="60520.9,9378 61569.7,9378 61569.7,8329.1 61218.2,8329.1 61218.2,9029.3 
		60869.6,9029.3 60869.6,8329.1 59820.7,8329.1 59820.7,9378 60169.4,9378 60169.4,8680.6 60520.9,8680.6 	"/>
	<polygon id="polygon4163" class="st0" points="60520.9,9729.5 61569.7,9729.5 61569.7,10778.3 61218.2,10778.3 61218.2,10078.1 
		60869.6,10078.1 60869.6,10778.3 59820.7,10778.3 59820.7,9729.5 60169.4,9729.5 60169.4,10426.8 60520.9,10426.8 	"/>
	<polygon id="polygon4165" class="st0" points="60520.9,6931.6 61569.7,6931.6 61569.7,7980.5 61218.2,7980.5 61218.2,7280.3 
		60869.6,7280.3 60869.6,7980.5 59820.7,7980.5 59820.7,6931.6 60169.4,6931.6 60169.4,7629 60520.9,7629 	"/>
	<polygon id="polygon4167" class="st0" points="67862.7,4831.1 67862.7,5882.8 66813.9,5882.8 66813.9,5531.3 67514.1,5531.3 
		67514.1,5182.6 66813.9,5182.6 66813.9,4133.8 67862.7,4133.8 67862.7,4482.5 67165.4,4482.5 67165.4,4831.1 	"/>
	<polygon id="polygon4169" class="st0" points="65064.9,4831.1 65064.9,5882.8 64016.1,5882.8 64016.1,5531.3 64716.2,5531.3 
		64716.2,5182.6 64016.1,5182.6 64016.1,4133.8 65064.9,4133.8 65064.9,4482.5 64367.6,4482.5 64367.6,4831.1 	"/>
	<polygon id="polygon4171" class="st0" points="65416.4,4831.1 65416.4,5882.8 66465.2,5882.8 66465.2,5531.3 65765.1,5531.3 
		65765.1,5182.6 66465.2,5182.6 66465.2,4133.8 65416.4,4133.8 65416.4,4482.5 66116.6,4482.5 66116.6,4831.1 	"/>
	<polygon id="polygon4173" class="st0" points="62618.6,4831.1 62618.6,5882.8 63667.4,5882.8 63667.4,5531.3 62967.2,5531.3 
		62967.2,5182.6 63667.4,5182.6 63667.4,4133.8 62618.6,4133.8 62618.6,4482.5 63318.7,4482.5 63318.7,4831.1 	"/>
	<polygon id="polygon4175" class="st0" points="61218.2,5531.3 61218.2,6231.5 60869.6,6231.5 60869.6,5531.3 59820.7,5531.3 
		59820.7,6580.1 60169.4,6580.1 60169.4,5882.8 60520.9,5882.8 60520.9,6580.1 61569.7,6580.1 61569.7,5882.8 62267.1,5882.8 
		62267.1,4831.1 61569.7,4831.1 61569.7,4482.5 62267.1,4482.5 62267.1,4133.8 61218.2,4133.8 61218.2,5182.6 61918.4,5182.6 
		61918.4,5531.3 	"/>
	<polygon id="polygon4177" class="st0" points="60520.9,5182.6 60869.6,5182.6 60869.6,4831.1 60520.9,4831.1 	"/>
	<polygon id="polygon4179" class="st0" points="59820.7,5182.6 60169.4,5182.6 60169.4,4831.1 59820.7,4831.1 	"/>
	<polygon id="polygon4181" class="st0" points="60520.9,4482.5 60869.6,4482.5 60869.6,4133.8 60520.9,4133.8 	"/>
	<polygon id="polygon4183" class="st0" points="59820.7,4482.5 60169.4,4482.5 60169.4,4133.8 59820.7,4133.8 	"/>
</g>
<g>
	<polygon id="polygon4215" class="st1" points="724,71.9 717.3,71.9 717.3,98.7 697.1,98.7 697.1,58.5 656.8,58.5 656.8,38.4 
		683.8,38.4 683.8,31.6 656.9,31.6 656.9,11.5 683.8,11.5 683.8,4.8 650.2,4.8 650.2,58.5 603.3,58.5 603.3,38.4 630.1,38.4 
		630.1,31.6 603.3,31.6 603.3,11.5 630.1,11.5 630.1,4.8 596.6,4.8 596.6,58.5 549.6,58.5 549.6,38.4 576.5,38.4 576.5,31.6 
		549.6,31.6 549.6,11.5 576.5,11.5 576.5,4.8 543,4.8 543,58.5 536.2,58.5 536.2,65.2 690.5,65.2 690.5,212.7 750.8,212.7 
		750.8,179.2 744.1,179.2 744.1,206 724,206 724,179.2 717.3,179.2 717.3,206 697.1,206 697.1,159.1 750.8,159.1 750.8,125.5 
		744.1,125.5 744.1,152.3 724,152.3 724,125.5 717.3,125.5 717.3,152.3 697.1,152.3 697.1,105.4 750.8,105.4 750.8,71.9 744.1,71.9 
		744.1,98.7 724,98.7 	"/>
	<polygon id="polygon4217" class="st1" points="710.6,92 710.6,65.2 730.7,65.2 730.7,92 737.4,92 737.4,65.2 757.5,65.2 
		757.5,112.1 703.9,112.1 703.9,145.6 710.6,145.6 710.6,118.8 730.7,118.8 730.7,145.6 737.4,145.6 737.4,118.8 757.5,118.8 
		757.5,165.8 703.9,165.8 703.9,199.3 710.6,199.3 710.6,172.4 730.7,172.4 730.7,199.3 737.4,199.3 737.4,172.4 757.5,172.4 
		757.5,212.7 764.2,212.7 764.2,-8.6 536.2,-8.6 536.2,-1.8 583.2,-1.8 583.2,18.3 556.4,18.3 556.4,24.9 583.2,24.9 583.2,45.1 
		556.4,45.1 556.4,51.8 589.9,51.8 589.9,-1.8 636.8,-1.8 636.8,18.3 610,18.3 610,24.9 636.8,24.9 636.8,45.1 610,45.1 610,51.8 
		643.5,51.8 643.5,-1.8 690.5,-1.8 690.5,18.3 663.7,18.3 663.7,24.9 690.5,24.9 690.5,45.1 663.7,45.1 663.7,51.8 697.1,51.8 
		697.1,-1.8 757.5,-1.8 757.5,58.5 703.9,58.5 703.9,92 	"/>
	<polygon id="polygon4219" class="st1" points="737.4,4.8 703.9,4.8 703.9,51.8 710.6,51.8 710.6,38.4 737.4,38.4 737.4,31.6 
		710.6,31.6 710.6,11.5 737.4,11.5 	"/>
	<polygon id="polygon4221" class="st1" points="744.1,45.1 717.3,45.1 717.3,51.8 750.8,51.8 750.8,4.8 744.1,4.8 744.1,18.3 
		717.3,18.3 717.3,24.9 744.1,24.9 	"/>
</g>
<g>
	<polygon id="polygon4223" class="st1" points="797.8,267.8 811.3,267.8 811.3,301.3 710.7,301.3 710.7,261 690.6,261 690.6,267.8 
		704,267.8 704,301.3 603.5,301.3 603.5,200.7 636.9,200.7 636.9,214.1 643.7,214.1 643.7,194 603.5,194 603.5,93.4 636.9,93.4 
		636.9,106.8 643.7,106.8 643.7,86.7 596.7,86.7 596.7,308 818,308 818,261 797.8,261 	"/>
	<path id="path4225" class="st2" d="M610.1,207.4v87.2h87.2v-20.1h-6.7v13.4h-33.5v-40.2h-40.2v-33.5h13.4v-6.7L610.1,207.4
		L610.1,207.4z M616.8,254.3h33.5v33.5h-33.5V254.3z"/>
	<polygon id="polygon4227" class="st1" points="623.6,220.8 623.6,240.9 663.8,240.9 663.8,281.2 683.9,281.2 683.9,274.5 
		670.5,274.5 670.5,240.9 771.1,240.9 771.1,281.2 791.2,281.2 791.2,274.5 777.7,274.5 777.7,240.9 818,240.9 818,234.2 
		670.5,234.2 670.5,86.7 663.8,86.7 663.8,127 630.2,127 630.2,113.5 623.6,113.5 623.6,133.6 663.8,133.6 663.8,234.2 630.2,234.2 
		630.2,220.8 	"/>
	<path id="path4229" class="st2" d="M650.4,220.8h-13.4v6.7H657v-87.2h-40.2v-33.5h13.4v-6.7h-20.1v87.2h40.2L650.4,220.8z
		 M650.4,180.6h-33.5v-33.5h33.5V180.6z"/>
	<polygon id="polygon4231" class="st1" points="636.9,120.3 657.1,120.3 657.1,86.7 650.4,86.7 650.4,113.5 636.9,113.5 	"/>
	<path id="path4233" class="st2" d="M764.4,247.7h-87.2v20.1h6.7v-13.4h33.5v40.2h87.2v-20.1h-6.7v13.4h-33.5V247.7z M724.2,287.9
		v-33.5h33.5v33.5H724.2z"/>
	<polygon id="polygon4235" class="st1" points="784.5,267.8 791.2,267.8 791.2,254.3 818,254.3 818,247.7 784.5,247.7 	"/>
	<polygon id="polygon4237" class="st1" points="750.9,274.5 744.2,274.5 744.2,281.2 750.9,281.2 	"/>
	<polygon id="polygon4239" class="st1" points="750.9,261 744.2,261 744.2,267.8 750.9,267.8 	"/>
	<polygon id="polygon4241" class="st1" points="737.5,261 730.8,261 730.8,267.8 737.5,267.8 	"/>
	<polygon id="polygon4243" class="st1" points="737.5,274.5 730.8,274.5 730.8,281.2 737.5,281.2 	"/>
	<polygon id="polygon4245" class="st1" points="630.2,281.2 630.2,274.5 623.6,274.5 623.6,281.2 	"/>
	<polygon id="polygon4247" class="st1" points="643.7,281.2 643.7,274.5 636.9,274.5 636.9,281.2 	"/>
	<polygon id="polygon4249" class="st1" points="643.7,267.8 643.7,261 636.9,261 636.9,267.8 	"/>
	<polygon id="polygon4251" class="st1" points="630.2,261 623.6,261 623.6,267.8 630.2,267.8 	"/>
	<polygon id="polygon4253" class="st1" points="630.2,153.7 623.6,153.7 623.6,160.5 630.2,160.5 	"/>
	<polygon id="polygon4255" class="st1" points="630.2,167.2 623.6,167.2 623.6,173.9 630.2,173.9 	"/>
	<polygon id="polygon4257" class="st1" points="643.7,167.2 636.9,167.2 636.9,173.9 643.7,173.9 	"/>
	<polygon id="polygon4259" class="st1" points="643.7,153.7 636.9,153.7 636.9,160.5 643.7,160.5 	"/>
</g>
<g>
	<path id="path4261" class="st2" d="M563,441.4v60.3h-53.6v47h33.5v-20.1h-6.7V542h-20.1v-33.5h47v60.3h-53.6v47H543v-20.1h-6.7V609
		h-20.1v-33.5h47v60.3h-53.6v53.6h-60.3v-47h33.5v20.1h-13.4v6.7h20.1v-33.5h-47v53.6h-60.3v-47h33.5v20.1h-13.4v6.7h20.1v-33.5h-47
		v53.6h-60.3v-47h33.5v20.1h-13.4v6.7h20.1v-33.5h-47v53.6h-6.7v6.7h268.2V427.8h-6.7v6.7h-53.6v47H543v-20.1h-6.7v13.4h-20.1v-33.5
		h47L563,441.4z M516.1,642.5h47v47h-47V642.5z"/>
	<polygon id="polygon4263" class="st1" points="462.5,655.9 475.9,655.9 475.9,649.2 455.8,649.2 455.8,682.7 502.7,682.7 
		502.7,629.1 556.4,629.1 556.4,582.1 522.8,582.1 522.8,602.3 529.5,602.3 529.5,588.9 549.6,588.9 549.6,622.4 502.7,622.4 
		502.7,562 556.4,562 556.4,515.1 522.8,515.1 522.8,535.2 529.5,535.2 529.5,521.8 549.6,521.8 549.6,555.4 502.7,555.4 502.7,495 
		556.4,495 556.4,448.1 522.8,448.1 522.8,468.2 529.5,468.2 529.5,454.8 549.6,454.8 549.6,488.3 502.7,488.3 502.7,428 496,428 
		496,622.4 301.5,622.4 301.5,629.1 361.9,629.1 361.9,676.1 328.4,676.1 328.4,655.9 341.8,655.9 341.8,649.2 321.6,649.2 
		321.6,682.7 368.6,682.7 368.6,629.1 428.9,629.1 428.9,676.1 395.4,676.1 395.4,655.9 408.8,655.9 408.8,649.2 388.7,649.2 
		388.7,682.7 435.7,682.7 435.7,629.1 496,629.1 496,676.1 462.5,676.1 	"/>
	<path id="path4265" class="st2" d="M556.4,649.2h-33.5v33.5h33.5V649.2z M529.6,655.9h20.1V676h-20.1V655.9z"/>
	<polygon id="polygon4267" class="st1" points="542.9,662.6 536.2,662.6 536.2,669.3 542.9,669.3 	"/>
</g>
<g>
	<line id="line4271" class="st3" x1="591.8" y1="589" x2="591.8" y2="642.6"/>
	<polyline id="polyline4273" class="st0" points="585.1,582.3 585.1,635.9 538.1,635.9 538.1,602.4 	"/>
	<line id="line4275" class="st3" x1="591.8" y1="642.6" x2="531.5" y2="642.6"/>
	<polyline id="polyline4277" class="st0" points="538.1,602.4 558.2,602.4 558.2,609.1 544.8,609.1 544.8,629.3 578.4,629.3 
		578.4,582.3 	"/>
	<polyline id="polyline4279" class="st0" points="531.5,642.6 531.5,595.7 564.9,595.7 564.9,615.8 551.6,615.8 551.6,622.5 
		571.7,622.5 571.7,589 524.7,589 	"/>
	<line id="line4281" class="st3" x1="524.7" y1="589" x2="524.7" y2="642.6"/>
	<line id="line4283" class="st3" x1="578.4" y1="582.3" x2="518" y2="582.3"/>
	<line id="line4285" class="st3" x1="511.3" y1="582.3" x2="451" y2="582.3"/>
	<line id="line4287" class="st3" x1="457.7" y1="589" x2="457.7" y2="642.6"/>
	<polyline id="polyline4289" class="st0" points="464.4,642.6 464.4,595.7 497.9,595.7 497.9,615.8 484.5,615.8 484.5,622.5 
		504.6,622.5 504.6,589 457.7,589 	"/>
	<polyline id="polyline4291" class="st0" points="471.1,602.4 491.2,602.4 491.2,609.1 477.8,609.1 477.8,629.3 511.3,629.3 
		511.3,582.3 	"/>
	<line id="line4293" class="st3" x1="524.7" y1="642.6" x2="464.4" y2="642.6"/>
	<polyline id="polyline4295" class="st0" points="518,582.3 518,635.9 471.1,635.9 471.1,602.4 	"/>
	<line id="line4297" class="st3" x1="444.3" y1="582.3" x2="383.9" y2="582.3"/>
	<line id="line4299" class="st3" x1="390.6" y1="589" x2="390.6" y2="642.6"/>
	<polyline id="polyline4301" class="st0" points="397.3,642.6 397.3,595.7 430.9,595.7 430.9,615.8 417.4,615.8 417.4,622.5 
		437.5,622.5 437.5,589 390.6,589 	"/>
	<polyline id="polyline4303" class="st0" points="404,602.4 424.2,602.4 424.2,609.1 410.8,609.1 410.8,629.3 444.3,629.3 
		444.3,582.3 	"/>
	<line id="line4305" class="st3" x1="457.7" y1="642.6" x2="397.3" y2="642.6"/>
	<polyline id="polyline4307" class="st0" points="451,582.3 451,635.9 404,635.9 404,602.4 	"/>
	<polyline id="polyline4309" class="st0" points="578.4,575.6 383.9,575.6 383.9,582.3 	"/>
	<line id="line4311" class="st3" x1="652.1" y1="649.4" x2="383.9" y2="649.4"/>
	<polyline id="polyline4313" class="st0" points="390.6,642.6 383.9,642.6 383.9,649.4 	"/>
	<line id="line4315" class="st3" x1="598.5" y1="642.6" x2="598.5" y2="595.7"/>
	<line id="line4317" class="st3" x1="645.4" y1="642.6" x2="598.5" y2="642.6"/>
	<line id="line4319" class="st3" x1="605.2" y1="635.9" x2="605.2" y2="602.4"/>
	<line id="line4321" class="st3" x1="638.7" y1="635.9" x2="605.2" y2="635.9"/>
	<line id="line4323" class="st3" x1="611.9" y1="629.3" x2="611.9" y2="609.1"/>
	<line id="line4325" class="st3" x1="632" y1="629.3" x2="611.9" y2="629.3"/>
	<line id="line4327" class="st3" x1="618.6" y1="622.5" x2="618.6" y2="615.8"/>
	<line id="line4329" class="st3" x1="625.3" y1="622.5" x2="618.6" y2="622.5"/>
	<line id="line4331" class="st3" x1="625.3" y1="622.5" x2="625.3" y2="615.8"/>
	<line id="line4333" class="st3" x1="625.3" y1="615.8" x2="618.6" y2="615.8"/>
	<line id="line4335" class="st3" x1="632" y1="629.3" x2="632" y2="609.1"/>
	<line id="line4337" class="st3" x1="632" y1="609.1" x2="611.9" y2="609.1"/>
	<line id="line4339" class="st3" x1="638.7" y1="635.9" x2="638.7" y2="602.4"/>
	<line id="line4341" class="st3" x1="638.7" y1="602.4" x2="605.2" y2="602.4"/>
	<line id="line4343" class="st3" x1="645.4" y1="642.6" x2="645.4" y2="595.7"/>
	<line id="line4345" class="st3" x1="645.4" y1="595.7" x2="598.5" y2="595.7"/>
	<polyline id="polyline4347" class="st0" points="645.4,387.8 645.4,381.2 652.1,381.2 	"/>
	<line id="line4349" class="st3" x1="652.1" y1="649.4" x2="652.1" y2="381.2"/>
	<polyline id="polyline4351" class="st0" points="578.4,575.6 578.4,381.2 585.1,381.2 	"/>
	<polyline id="polyline4353" class="st0" points="585.1,448.2 638.7,448.2 638.7,401.3 605.2,401.3 	"/>
	<line id="line4355" class="st3" x1="645.4" y1="454.9" x2="645.4" y2="394.6"/>
	<polyline id="polyline4357" class="st0" points="605.2,401.3 605.2,421.4 611.9,421.4 611.9,408 632,408 632,441.5 585.1,441.5 	
		"/>
	<polyline id="polyline4359" class="st0" points="645.4,394.6 598.5,394.6 598.5,428.1 618.6,428.1 618.6,414.7 625.3,414.7 
		625.3,434.8 591.8,434.8 591.8,387.8 	"/>
	<line id="line4361" class="st3" x1="591.8" y1="387.8" x2="645.4" y2="387.8"/>
	<line id="line4363" class="st3" x1="585.1" y1="441.5" x2="585.1" y2="381.2"/>
	<polyline id="polyline4365" class="st0" points="585.1,515.2 638.7,515.2 638.7,468.3 605.2,468.3 	"/>
	<line id="line4367" class="st3" x1="645.4" y1="522" x2="645.4" y2="461.6"/>
	<polyline id="polyline4369" class="st0" points="605.2,468.3 605.2,488.4 611.9,488.4 611.9,475 632,475 632,508.6 585.1,508.6 	
		"/>
	<polyline id="polyline4371" class="st0" points="645.4,461.6 598.5,461.6 598.5,495.1 618.6,495.1 618.6,481.8 625.3,481.8 
		625.3,501.9 591.8,501.9 591.8,454.9 	"/>
	<line id="line4373" class="st3" x1="591.8" y1="454.9" x2="645.4" y2="454.9"/>
	<line id="line4375" class="st3" x1="585.1" y1="508.6" x2="585.1" y2="448.2"/>
	<line id="line4377" class="st3" x1="585.1" y1="575.6" x2="585.1" y2="515.2"/>
	<line id="line4379" class="st3" x1="591.8" y1="522" x2="645.4" y2="522"/>
	<polyline id="polyline4381" class="st0" points="645.4,528.7 598.5,528.7 598.5,562.2 618.6,562.2 618.6,548.8 625.3,548.8 
		625.3,568.9 591.8,568.9 591.8,522 	"/>
	<polyline id="polyline4383" class="st0" points="605.2,535.3 605.2,555.5 611.9,555.5 611.9,542.1 632,542.1 632,575.6 
		585.1,575.6 	"/>
	<line id="line4385" class="st3" x1="645.4" y1="589" x2="645.4" y2="528.7"/>
	<polyline id="polyline4387" class="st0" points="585.1,582.3 638.7,582.3 638.7,535.3 605.2,535.3 	"/>
	<line id="line4389" class="st3" x1="591.8" y1="589" x2="645.4" y2="589"/>
</g>
<g>
	<polygon id="polygon4391" class="st0" points="184.5,518 191.2,518 191.2,524.7 184.5,524.7 	"/>
	<polyline id="polyline4393" class="st0" points="151,544.8 251.6,544.8 251.6,511.3 238.1,511.3 238.1,504.6 258.3,504.6 
		258.3,544.8 	"/>
	<polygon id="polygon4395" class="st0" points="278.4,504.6 285.1,504.6 285.1,511.3 278.4,511.3 	"/>
	<polygon id="polygon4397" class="st0" points="278.4,518 285.1,518 285.1,524.7 278.4,524.7 	"/>
	<polygon id="polygon4399" class="st0" points="291.8,504.6 298.5,504.6 298.5,511.3 291.8,511.3 	"/>
	<polygon id="polygon4401" class="st0" points="291.8,518 298.5,518 298.5,524.7 291.8,524.7 	"/>
	<polygon id="polygon4403" class="st0" points="271.7,497.9 305.2,497.9 305.2,531.4 271.7,531.4 	"/>
	<polyline id="polyline4405" class="st0" points="311.9,531.4 311.9,491.2 224.8,491.2 224.8,511.3 231.5,511.3 231.5,497.9 
		265,497.9 265,538.1 	"/>
	<polyline id="polyline4407" class="st0" points="311.9,531.4 345.4,531.4 345.4,518 352.2,518 352.2,538.1 265,538.1 	"/>
	<line id="line4409" class="st3" x1="211.3" y1="484.5" x2="211.3" y2="524.7"/>
	<line id="line4411" class="st3" x1="211.3" y1="524.7" x2="231.5" y2="524.7"/>
	<line id="line4413" class="st3" x1="231.5" y1="524.7" x2="231.5" y2="518"/>
	<line id="line4415" class="st3" x1="231.5" y1="518" x2="218" y2="518"/>
	<line id="line4417" class="st3" x1="218" y1="518" x2="218" y2="484.5"/>
	<line id="line4419" class="st3" x1="204.7" y1="491.2" x2="204.7" y2="531.4"/>
	<line id="line4421" class="st3" x1="204.7" y1="531.4" x2="238.1" y2="531.4"/>
	<line id="line4423" class="st3" x1="238.1" y1="531.4" x2="238.1" y2="518"/>
	<line id="line4425" class="st3" x1="238.1" y1="518" x2="244.9" y2="518"/>
	<line id="line4427" class="st3" x1="244.9" y1="518" x2="244.9" y2="538.1"/>
	<line id="line4429" class="st3" x1="244.9" y1="538.1" x2="157.7" y2="538.1"/>
	<line id="line4431" class="st3" x1="197.9" y1="497.9" x2="197.9" y2="531.4"/>
	<line id="line4433" class="st3" x1="197.9" y1="531.4" x2="164.4" y2="531.4"/>
	<line id="line4435" class="st3" x1="177.8" y1="518" x2="177.8" y2="524.7"/>
	<line id="line4437" class="st3" x1="177.8" y1="524.7" x2="171.1" y2="524.7"/>
	<line id="line4439" class="st3" x1="191.2" y1="504.6" x2="191.2" y2="511.3"/>
	<line id="line4441" class="st3" x1="191.2" y1="511.3" x2="184.5" y2="511.3"/>
	<polyline id="polyline4443" class="st0" points="338.7,518 338.7,524.7 318.6,524.7 318.6,484.5 218,484.5 	"/>
	<polyline id="polyline4445" class="st0" points="338.7,518 325.3,518 325.3,484.5 	"/>
	<line id="line4447" class="st3" x1="332" y1="511.3" x2="338.7" y2="511.3"/>
	<line id="line4449" class="st3" x1="332" y1="511.3" x2="332" y2="491.2"/>
	<line id="line4451" class="st3" x1="338.7" y1="511.3" x2="338.7" y2="497.9"/>
	<polyline id="polyline4453" class="st0" points="345.4,511.3 358.8,511.3 358.8,544.8 258.3,544.8 	"/>
	<polyline id="polyline4455" class="st0" points="345.4,511.3 345.4,504.6 365.6,504.6 365.6,551.5 144.3,551.5 	"/>
	<polyline id="polyline4457" class="st0" points="338.7,497.9 365.6,497.9 365.6,491.2 332,491.2 	"/>
	<polyline id="polyline4459" class="st0" points="325.3,484.5 365.6,484.5 365.6,477.8 218,477.8 	"/>
	<polyline id="polyline4461" class="st0" points="211.3,370.5 211.3,330.3 218,330.3 218,477.8 	"/>
	<polyline id="polyline4463" class="st0" points="197.9,357.1 197.9,330.3 204.7,330.3 204.7,363.8 	"/>
	<polyline id="polyline4465" class="st0" points="184.5,350.4 191.2,350.4 191.2,330.3 144.3,330.3 144.3,551.5 	"/>
	<polyline id="polyline4467" class="st0" points="184.5,350.4 184.5,337 151,337 151,437.6 	"/>
	<line id="line4469" class="st3" x1="184.5" y1="357.1" x2="197.9" y2="357.1"/>
	<line id="line4471" class="st3" x1="184.5" y1="363.8" x2="204.7" y2="363.8"/>
	<line id="line4473" class="st3" x1="184.5" y1="363.8" x2="184.5" y2="357.1"/>
	<polyline id="polyline4475" class="st0" points="177.8,357.1 177.8,370.5 211.3,370.5 	"/>
	<polyline id="polyline4477" class="st0" points="177.8,357.1 171.1,357.1 171.1,377.2 211.3,377.2 211.3,477.8 	"/>
	<line id="line4479" class="st3" x1="184.5" y1="504.6" x2="184.5" y2="511.3"/>
	<line id="line4481" class="st3" x1="191.2" y1="504.6" x2="184.5" y2="504.6"/>
	<line id="line4483" class="st3" x1="171.1" y1="518" x2="171.1" y2="524.7"/>
	<line id="line4485" class="st3" x1="177.8" y1="518" x2="171.1" y2="518"/>
	<line id="line4487" class="st3" x1="164.4" y1="497.9" x2="164.4" y2="531.4"/>
	<line id="line4489" class="st3" x1="197.9" y1="497.9" x2="164.4" y2="497.9"/>
	<line id="line4491" class="st3" x1="157.7" y1="450.9" x2="157.7" y2="538.1"/>
	<line id="line4493" class="st3" x1="177.8" y1="450.9" x2="157.7" y2="450.9"/>
	<line id="line4495" class="st3" x1="177.8" y1="457.7" x2="177.8" y2="450.9"/>
	<line id="line4497" class="st3" x1="164.4" y1="457.7" x2="177.8" y2="457.7"/>
	<line id="line4499" class="st3" x1="164.4" y1="491.2" x2="164.4" y2="457.7"/>
	<line id="line4501" class="st3" x1="204.7" y1="491.2" x2="164.4" y2="491.2"/>
	<line id="line4503" class="st3" x1="177.8" y1="477.8" x2="211.3" y2="477.8"/>
	<line id="line4505" class="st3" x1="177.8" y1="464.4" x2="177.8" y2="477.8"/>
	<line id="line4507" class="st3" x1="171.1" y1="464.4" x2="177.8" y2="464.4"/>
	<line id="line4509" class="st3" x1="171.1" y1="484.5" x2="171.1" y2="464.4"/>
	<line id="line4511" class="st3" x1="211.3" y1="484.5" x2="171.1" y2="484.5"/>
	<polyline id="polyline4513" class="st0" points="164.4,383.9 164.4,350.4 177.8,350.4 177.8,343.7 157.7,343.7 157.7,430.8 	"/>
	<polyline id="polyline4515" class="st0" points="164.4,383.9 204.7,383.9 204.7,471.1 184.5,471.1 184.5,464.4 197.9,464.4 
		197.9,430.8 157.7,430.8 	"/>
	<polygon id="polygon4517" class="st0" points="197.9,424.1 197.9,390.6 164.4,390.6 164.4,424.1 	"/>
	<polygon id="polygon4519" class="st0" points="177.8,404 177.8,397.3 171.1,397.3 171.1,404 	"/>
	<polygon id="polygon4521" class="st0" points="191.2,404 191.2,397.3 184.5,397.3 184.5,404 	"/>
	<polygon id="polygon4523" class="st0" points="177.8,417.5 177.8,410.7 171.1,410.7 171.1,417.5 	"/>
	<polygon id="polygon4525" class="st0" points="191.2,417.5 191.2,410.7 184.5,410.7 184.5,417.5 	"/>
	<polyline id="polyline4527" class="st0" points="151,544.8 151,444.2 184.5,444.2 184.5,457.7 191.2,457.7 191.2,437.6 151,437.6 	
		"/>
	<polygon id="polygon4529" class="st0" points="177.8,511.3 177.8,504.6 171.1,504.6 171.1,511.3 	"/>
</g>
<g>
	<polyline id="polyline4531" class="st0" points="325.5,280.8 318.7,280.8 318.7,287.5 	"/>
	<polyline id="polyline4533" class="st0" points="533.3,435.1 473,435.1 473,287.5 318.7,287.5 	"/>
	<line id="line4535" class="st3" x1="318.7" y1="220.5" x2="318.7" y2="213.8"/>
	<line id="line4537" class="st3" x1="546.7" y1="213.8" x2="318.7" y2="213.8"/>
	<line id="line4539" class="st3" x1="325.5" y1="227.2" x2="325.5" y2="280.8"/>
	<line id="line4541" class="st3" x1="359" y1="227.2" x2="325.5" y2="227.2"/>
	<line id="line4543" class="st3" x1="359" y1="233.9" x2="359" y2="227.2"/>
	<line id="line4545" class="st3" x1="332.2" y1="233.9" x2="359" y2="233.9"/>
	<line id="line4547" class="st3" x1="332.2" y1="254" x2="332.2" y2="233.9"/>
	<line id="line4549" class="st3" x1="359" y1="254" x2="332.2" y2="254"/>
	<line id="line4551" class="st3" x1="359" y1="260.7" x2="359" y2="254"/>
	<line id="line4553" class="st3" x1="332.2" y1="260.7" x2="359" y2="260.7"/>
	<line id="line4555" class="st3" x1="332.2" y1="280.8" x2="332.2" y2="260.7"/>
	<line id="line4557" class="st3" x1="379.1" y1="280.8" x2="332.2" y2="280.8"/>
	<polyline id="polyline4559" class="st0" points="372.4,220.5 372.4,274.1 338.9,274.1 338.9,267.4 365.7,267.4 365.7,247.3 
		338.9,247.3 338.9,240.6 365.7,240.6 365.7,220.5 318.7,220.5 	"/>
	<line id="line4561" class="st3" x1="419.3" y1="220.5" x2="372.4" y2="220.5"/>
	<polyline id="polyline4563" class="st0" points="385.8,260.7 412.7,260.7 412.7,254 385.8,254 385.8,233.9 412.7,233.9 
		412.7,227.2 379.1,227.2 379.1,280.8 	"/>
	<line id="line4565" class="st3" x1="385.8" y1="260.7" x2="385.8" y2="280.8"/>
	<line id="line4567" class="st3" x1="432.8" y1="280.8" x2="385.8" y2="280.8"/>
	<polyline id="polyline4569" class="st0" points="426,220.5 426,274.1 392.6,274.1 392.6,267.4 419.3,267.4 419.3,247.3 
		392.6,247.3 392.6,240.6 419.3,240.6 419.3,220.5 	"/>
	<line id="line4571" class="st3" x1="479.7" y1="280.8" x2="439.3" y2="280.8"/>
	<polyline id="polyline4573" class="st0" points="439.3,280.8 439.3,260.7 466.3,260.7 466.3,254 439.5,254 439.5,233.9 
		466.3,233.9 466.3,227.2 432.8,227.2 432.8,280.8 	"/>
	<polyline id="polyline4575" class="st0" points="479.7,274.1 446.2,274.1 446.2,267.4 473,267.4 473,247.3 446.2,247.3 
		446.2,240.6 473,240.6 473,220.5 426,220.5 	"/>
	<polyline id="polyline4577" class="st0" points="546.7,213.8 546.7,435.1 540,435.1 540,394.8 	"/>
	<polyline id="polyline4579" class="st0" points="540,280.8 540,220.5 479.7,220.5 479.7,274.1 	"/>
	<polyline id="polyline4581" class="st0" points="540,388.1 486.4,388.1 486.4,421.6 493.1,421.6 493.1,394.8 513.2,394.8 
		513.2,421.6 519.9,421.6 519.9,394.8 540,394.8 	"/>
	<polyline id="polyline4583" class="st0" points="533.3,381.4 479.7,381.4 479.7,428.3 499.8,428.3 499.8,401.5 506.5,401.5 
		506.5,428.3 526.6,428.3 526.6,401.5 533.3,401.5 533.3,435.1 	"/>
	<polygon id="polygon4585" class="st0" points="526.6,267.4 499.8,267.4 499.8,274.1 533.3,274.1 533.3,227.2 526.6,227.2 
		526.6,240.6 499.8,240.6 499.8,247.3 526.6,247.3 	"/>
	<polygon id="polygon4587" class="st0" points="493.1,274.1 486.4,274.1 486.4,227.2 519.9,227.2 519.9,233.9 493.1,233.9 
		493.1,254 519.9,254 519.9,260.7 493.1,260.7 	"/>
	<line id="line4589" class="st3" x1="486.4" y1="280.8" x2="540" y2="280.8"/>
	<polyline id="polyline4591" class="st0" points="533.3,327.8 533.3,294.3 526.6,294.3 526.6,321 506.5,321 506.5,294.3 
		499.8,294.3 499.8,321 479.7,321 479.7,280.8 	"/>
	<line id="line4593" class="st3" x1="479.7" y1="327.8" x2="533.3" y2="327.8"/>
	<polyline id="polyline4595" class="st0" points="526.6,347.9 526.6,374.7 506.5,374.7 506.5,347.9 499.8,347.9 499.8,374.7 
		479.7,374.7 479.7,327.8 	"/>
	<polyline id="polyline4597" class="st0" points="513.2,314.4 513.2,287.5 493.1,287.5 493.1,314.4 486.4,314.4 486.4,280.8 	"/>
	<polyline id="polyline4599" class="st0" points="540,388.1 540,341.2 519.9,341.2 519.9,368 513.2,368 513.2,341.2 493.1,341.2 
		493.1,368 486.4,368 486.4,334.5 540,334.5 540,287.5 519.9,287.5 519.9,314.4 	"/>
	<line id="line4601" class="st3" x1="519.9" y1="314.4" x2="513.2" y2="314.4"/>
	<polyline id="polyline4603" class="st0" points="526.6,347.9 533.3,347.9 533.3,381.4 	"/>
</g>
<g>
	<polygon id="polygon4185" class="st1" points="476.6,597.8 315.6,597.8 315.6,436.9 309,436.9 309,604.5 476.6,604.5 	"/>
	<polygon id="polygon4187" class="st1" points="322.4,584.4 322.4,591.1 329.1,591.1 329.1,584.4 	"/>
	<polygon id="polygon4189" class="st1" points="342.5,591.1 342.5,584.4 335.7,584.4 335.7,591.1 	"/>
	<polygon id="polygon4191" class="st1" points="342.5,571 335.7,571 335.7,577.7 342.5,577.7 	"/>
	<polygon id="polygon4193" class="st1" points="329.1,571 322.4,571 322.4,577.7 329.1,577.7 	"/>
	<polygon id="polygon4195" class="st1" points="349.2,591.1 369.3,591.1 369.3,584.4 355.9,584.4 355.9,577.7 369.3,577.7 
		369.3,557.6 355.9,557.6 355.9,544.2 335.7,544.2 335.7,557.6 329.1,557.6 329.1,544.2 322.4,544.2 322.4,564.3 342.5,564.3 
		342.5,550.9 349.2,550.9 349.2,564.3 362.6,564.3 362.6,571 349.2,571 	"/>
	<polygon id="polygon4197" class="st1" points="342.5,517.3 322.4,517.3 322.4,537.4 329.1,537.4 329.1,524.1 335.7,524.1 
		335.7,537.4 355.9,537.4 355.9,517.3 349.2,517.3 349.2,530.8 342.5,530.8 	"/>
	<polygon id="polygon4199" class="st1" points="355.9,490.5 335.7,490.5 335.7,504 329.1,504 329.1,490.5 322.4,490.5 322.4,510.7 
		342.5,510.7 342.5,497.2 349.2,497.2 349.2,510.7 355.9,510.7 	"/>
	<polygon id="polygon4201" class="st1" points="342.5,463.7 322.4,463.7 322.4,483.8 329.1,483.8 329.1,470.4 335.7,470.4 
		335.7,483.8 355.9,483.8 355.9,463.7 349.2,463.7 349.2,477.1 342.5,477.1 	"/>
	<polygon id="polygon4203" class="st1" points="355.9,436.9 335.7,436.9 335.7,450.3 329.1,450.3 329.1,436.9 322.4,436.9 
		322.4,457 342.5,457 342.5,443.6 349.2,443.6 349.2,457 355.9,457 	"/>
	<polygon id="polygon4205" class="st1" points="362.6,436.9 362.6,550.9 476.6,550.9 476.6,544.2 369.3,544.2 369.3,436.9 	"/>
	<polygon id="polygon4207" class="st1" points="396.1,591.1 396.1,571 382.7,571 382.7,564.3 396.1,564.3 396.1,557.6 376,557.6 
		376,577.7 389.4,577.7 389.4,584.4 376,584.4 376,591.1 	"/>
	<polygon id="polygon4209" class="st1" points="422.9,577.7 422.9,557.6 402.8,557.6 402.8,564.3 416.2,564.3 416.2,571 402.8,571 
		402.8,591.1 422.9,591.1 422.9,584.4 409.5,584.4 409.5,577.7 	"/>
	<polygon id="polygon4211" class="st1" points="449.8,591.1 449.8,571 436.3,571 436.3,564.3 449.8,564.3 449.8,557.6 429.6,557.6 
		429.6,577.7 443,577.7 443,584.4 429.6,584.4 429.6,591.1 	"/>
	<polygon id="polygon4213" class="st1" points="476.6,577.7 476.6,557.6 456.5,557.6 456.5,564.3 469.9,564.3 469.9,571 456.5,571 
		456.5,591.1 476.6,591.1 476.6,584.4 463.1,584.4 463.1,577.7 	"/>
</g>
<g>
	<polygon id="polygon4605" class="st0" points="400.6,544.8 400.6,383.9 394,383.9 394,551.5 561.6,551.5 561.6,544.8 	"/>
	<polygon id="polygon4607" class="st0" points="447.6,497.9 561.6,497.9 561.6,491.2 454.3,491.2 454.3,383.9 447.6,383.9 	"/>
	<polygon id="polygon4609" class="st0" points="541.5,504.6 541.5,511.3 554.9,511.3 554.9,518 541.5,518 541.5,538.1 561.6,538.1 
		561.6,531.4 548.1,531.4 548.1,524.7 561.6,524.7 561.6,504.6 	"/>
	<polygon id="polygon4611" class="st0" points="487.8,504.6 487.8,511.3 501.2,511.3 501.2,518 487.8,518 487.8,538.1 507.9,538.1 
		507.9,531.4 494.5,531.4 494.5,524.7 507.9,524.7 507.9,504.6 	"/>
	<polygon id="polygon4613" class="st0" points="534.8,504.6 534.8,511.3 521.3,511.3 521.3,518 534.8,518 534.8,538.1 514.6,538.1 
		514.6,531.4 528,531.4 528,524.7 514.6,524.7 514.6,504.6 	"/>
	<polygon id="polygon4615" class="st0" points="481.1,504.6 481.1,511.3 467.7,511.3 467.7,518 481.1,518 481.1,538.1 461,538.1 
		461,531.4 474.4,531.4 474.4,524.7 461,524.7 461,504.6 	"/>
	<polygon id="polygon4617" class="st0" points="440.9,404 434.2,404 434.2,390.6 427.5,390.6 427.5,404 407.4,404 407.4,383.9 
		414.1,383.9 414.1,397.3 420.8,397.3 420.8,383.9 440.9,383.9 	"/>
	<polygon id="polygon4619" class="st0" points="440.9,457.6 434.2,457.6 434.2,444.2 427.5,444.2 427.5,457.6 407.4,457.6 
		407.4,437.5 414.1,437.5 414.1,451 420.8,451 420.8,437.5 440.9,437.5 	"/>
	<polygon id="polygon4621" class="st0" points="440.9,410.7 434.2,410.7 434.2,424.1 427.5,424.1 427.5,410.7 407.4,410.7 
		407.4,430.8 414.1,430.8 414.1,417.4 420.8,417.4 420.8,430.8 440.9,430.8 	"/>
	<polygon id="polygon4623" class="st0" points="440.9,464.3 434.2,464.3 434.2,477.8 427.5,477.8 427.5,464.3 407.4,464.3 
		407.4,484.4 414.1,484.4 414.1,471.1 420.8,471.1 420.8,484.4 440.9,484.4 	"/>
	<polygon id="polygon4625" class="st0" points="447.6,518 434.2,518 434.2,538.1 454.3,538.1 454.3,531.4 440.9,531.4 440.9,524.7 
		454.3,524.7 454.3,504.6 440.9,504.6 440.9,491.2 420.8,491.2 420.8,504.6 414.1,504.6 414.1,491.2 407.4,491.2 407.4,511.3 
		427.5,511.3 427.5,497.9 434.2,497.9 434.2,511.3 447.6,511.3 	"/>
	<polygon id="polygon4627" class="st0" points="420.8,518 420.8,524.7 427.5,524.7 427.5,518 	"/>
	<polygon id="polygon4629" class="st0" points="420.8,531.4 420.8,538.1 427.5,538.1 427.5,531.4 	"/>
	<polygon id="polygon4631" class="st0" points="407.4,518 407.4,524.7 414.1,524.7 414.1,518 	"/>
	<polygon id="polygon4633" class="st0" points="407.4,531.4 407.4,538.1 414.1,538.1 414.1,531.4 	"/>
</g>
<g id="_384945896" transform="matrix(0.02054001,0,0,0.02054001,69.393268,101.63105)">
	<polyline id="polyline3579" class="st4" points="48939.1,20523.4 48939.1,20171.9 49290.6,20171.9 	"/>
	<polyline id="polyline3581" class="st4" points="48590.4,20872.1 48590.4,19823.3 49639.2,19823.3 	"/>
	<polyline id="polyline3583" class="st4" points="48241.7,21220.8 48241.7,20523.4 47541.6,20523.4 47541.6,20171.9 
		48241.7,20171.9 48241.7,19823.3 47192.9,19823.3 47192.9,20872.1 47890.2,20872.1 47890.2,21220.8 47192.9,21220.8 
		47192.9,22272.4 	"/>
	<polyline id="polyline3585" class="st4" points="47541.6,21920.9 47541.6,21572.3 47890.2,21572.3 	"/>
	<polyline id="polyline3587" class="st4" points="50339.4,19123.1 47541.6,19123.1 47541.6,18774.5 48241.7,18774.5 
		48241.7,17725.6 47541.6,17725.6 47541.6,17374.1 48590.4,17374.1 48590.4,18774.5 50339.4,18774.5 50339.4,17725.6 
		49639.2,17725.6 49639.2,17374.1 50339.4,17374.1 50339.4,16325.3 47541.6,16325.3 47541.6,15976.7 50339.4,15976.7 
		50339.4,14927.8 	"/>
	<polyline id="polyline3589" class="st4" points="50339.4,14927.8 49639.2,14927.8 49639.2,14576.3 50339.4,14576.3 
		50339.4,13527.5 48590.4,13527.5 48590.4,14927.8 47541.6,14927.8 47541.6,14576.3 48241.7,14576.3 48241.7,13527.5 
		47541.6,13527.5 	"/>
	<polyline id="polyline3591" class="st4" points="49290.6,15276.5 49290.6,14227.7 49990.7,14227.7 49990.7,13879 48939.1,13879 
		48939.1,15276.5 	"/>
	<polyline id="polyline3593" class="st4" points="49990.7,19474.6 47192.9,19474.6 47192.9,18423 47890.2,18423 47890.2,18074.3 
		47192.9,18074.3 47192.9,17025.5 48939.1,17025.5 48939.1,18423 49990.7,18423 49990.7,18074.3 49290.6,18074.3 49290.6,17025.5 
		49990.7,17025.5 49990.7,16676.8 47192.9,16676.8 47192.9,15625.2 49990.7,15625.2 49990.7,15276.5 49290.6,15276.5 	"/>
	<polyline id="polyline3595" class="st4" points="48939.1,15276.5 47192.9,15276.5 47192.9,14227.7 47890.2,14227.7 47890.2,13879 
		47192.9,13879 	"/>
	<line id="line3597" class="st4" x1="47541.6" y1="13527.5" x2="47541.6" y2="13178.9"/>
	<line id="line3599" class="st4" x1="47541.6" y1="13178.9" x2="50339.4" y2="13178.9"/>
	<line id="line3601" class="st4" x1="50339.4" y1="13178.9" x2="50339.4" y2="12130"/>
	<line id="line3603" class="st4" x1="50339.4" y1="12130" x2="47541.6" y2="12130"/>
	<line id="line3605" class="st4" x1="47541.6" y1="12130" x2="47541.6" y2="11778.6"/>
	<line id="line3607" class="st4" x1="47192.9" y1="11778.6" x2="47192.9" y2="12478.7"/>
	<line id="line3609" class="st4" x1="47192.9" y1="12478.7" x2="49990.7" y2="12478.7"/>
	<line id="line3611" class="st4" x1="49990.7" y1="12478.7" x2="49990.7" y2="12827.4"/>
	<line id="line3613" class="st4" x1="49990.7" y1="12827.4" x2="47192.9" y2="12827.4"/>
	<line id="line3615" class="st4" x1="47192.9" y1="12827.4" x2="47192.9" y2="13879"/>
	<polyline id="polyline3617" class="st4" points="47192.9,11778.6 46841.4,11778.6 46841.4,22621.1 	"/>
	<polyline id="polyline3619" class="st4" points="47541.6,11778.6 50688,11778.6 50688,18774.5 	"/>
	<polyline id="polyline3621" class="st4" points="57683.9,21920.9 57683.9,18774.5 50688,18774.5 	"/>
	<polyline id="polyline3623" class="st4" points="57683.9,22272.4 57683.9,22621.1 46841.4,22621.1 	"/>
	<line id="line3625" class="st4" x1="56635.1" y1="22272.4" x2="55586.3" y2="22272.4"/>
	<line id="line3627" class="st4" x1="56635.1" y1="19474.6" x2="56635.1" y2="22272.4"/>
	<line id="line3629" class="st4" x1="56983.8" y1="19474.6" x2="56635.1" y2="19474.6"/>
	<line id="line3631" class="st4" x1="56983.8" y1="22272.4" x2="56983.8" y2="19474.6"/>
	<line id="line3633" class="st4" x1="57683.9" y1="22272.4" x2="56983.8" y2="22272.4"/>
	<line id="line3635" class="st4" x1="57332.4" y1="21920.9" x2="57683.9" y2="21920.9"/>
	<line id="line3637" class="st4" x1="57332.4" y1="19123.1" x2="57332.4" y2="21920.9"/>
	<line id="line3639" class="st4" x1="56283.6" y1="19123.1" x2="57332.4" y2="19123.1"/>
	<line id="line3641" class="st4" x1="56283.6" y1="21920.9" x2="56283.6" y2="19123.1"/>
	<line id="line3643" class="st4" x1="55935" y1="21920.9" x2="56283.6" y2="21920.9"/>
	<polyline id="polyline3645" class="st4" points="54186,20523.4 54186,22272.4 55234.8,22272.4 55234.8,21572.3 55586.3,21572.3 
		55586.3,22272.4 	"/>
	<polyline id="polyline3647" class="st4" points="49990.7,19474.6 49990.7,22272.4 51039.5,22272.4 51039.5,21572.3 
		51388.2,21572.3 51388.2,22272.4 52437,22272.4 52437,20523.4 51039.5,20523.4 51039.5,19474.6 51388.2,19474.6 51388.2,20171.9 
		52437,20171.9 52437,19474.6 52788.5,19474.6 52788.5,22272.4 53837.3,22272.4 53837.3,19474.6 54186,19474.6 54186,20171.9 	"/>
	<polyline id="polyline3649" class="st4" points="54186,20171.9 55234.8,20171.9 55234.8,19474.6 55586.3,19474.6 55586.3,20523.4 
		54186,20523.4 	"/>
	<polyline id="polyline3651" class="st4" points="54534.7,19123.1 54534.7,19823.3 54886.1,19823.3 54886.1,19123.1 55935,19123.1 
		55935,20872.1 54534.7,20872.1 54534.7,21920.9 54886.1,21920.9 54886.1,21220.8 55935,21220.8 55935,21920.9 	"/>
	<polyline id="polyline3653" class="st4" points="50339.4,19123.1 50339.4,21920.9 50688,21920.9 50688,21220.8 51736.9,21220.8 
		51736.9,21920.9 52088.4,21920.9 52088.4,20872.1 50688,20872.1 50688,19123.1 51736.9,19123.1 51736.9,19823.3 52088.4,19823.3 
		52088.4,19123.1 53137.2,19123.1 53137.2,21920.9 53485.8,21920.9 53485.8,19123.1 54534.7,19123.1 	"/>
	<polyline id="polyline3655" class="st4" points="47541.6,21920.9 47890.2,21920.9 47890.2,21572.3 	"/>
	<polyline id="polyline3657" class="st4" points="48241.7,21220.8 48939.1,21220.8 48939.1,21920.9 49290.6,21920.9 
		49290.6,21220.8 49639.2,21220.8 49639.2,22272.4 48590.4,22272.4 48590.4,21572.3 48241.7,21572.3 48241.7,22272.4 
		47192.9,22272.4 	"/>
	<polyline id="polyline3659" class="st4" points="48590.4,20872.1 49639.2,20872.1 49639.2,19823.3 	"/>
	<polyline id="polyline3661" class="st4" points="48939.1,20523.4 49290.6,20523.4 49290.6,20171.9 	"/>
	<polyline id="polyline3663" class="st4" points="43023.1,21597.8 43023.1,20549 42674.5,20549 42674.5,21246.3 	"/>
	<polyline id="polyline3665" class="st4" points="43371.8,21946.4 43371.8,20197.5 42323,20197.5 42323,20897.6 	"/>
	<polyline id="polyline3667" class="st4" points="41974.3,20549 41974.3,19848.8 43371.8,19848.8 43371.8,18099.8 42323,18099.8 
		42323,18800 41974.3,18800 41974.3,17751.2 43371.8,17751.2 43371.8,16002.2 42323,16002.2 42323,16702.3 41974.3,16702.3 
		41974.3,15650.7 43371.8,15650.7 43371.8,13904.5 42323,13904.5 42323,14601.9 41974.3,14601.9 41974.3,13904.5 41625.7,13904.5 
		41625.7,14953.4 42674.5,14953.4 42674.5,14253.2 43023.1,14253.2 43023.1,15302 41625.7,15302 41625.7,17051 42674.5,17051 
		42674.5,16350.8 43023.1,16350.8 43023.1,17399.7 41625.7,17399.7 41625.7,19148.6 42674.5,19148.6 42674.5,18448.5 
		43023.1,18448.5 43023.1,19500.1 41625.7,19500.1 41625.7,20197.5 	"/>
	<polyline id="polyline3669" class="st4" points="41274.2,19848.8 41274.2,13904.5 40925.5,13904.5 40925.5,19500.1 	"/>
	<polyline id="polyline3671" class="st4" points="43723.3,22297.9 43723.3,13904.5 44072,13904.5 44072,22646.6 	"/>
	<polyline id="polyline3673" class="st4" points="43723.3,22297.9 35329.9,22297.9 35329.9,22646.6 44072,22646.6 	"/>
	<polyline id="polyline3675" class="st4" points="41274.2,19848.8 35329.9,19848.8 35329.9,19500.1 40925.5,19500.1 	"/>
	<polyline id="polyline3677" class="st4" points="41974.3,20549 41274.2,20549 41274.2,21946.4 39525.2,21946.4 39525.2,20897.6 
		40225.4,20897.6 40225.4,20549 39176.5,20549 39176.5,21946.4 37427.6,21946.4 37427.6,20897.6 38127.7,20897.6 38127.7,20549 
		37078.9,20549 37078.9,21946.4 35329.9,21946.4 35329.9,20897.6 36030.1,20897.6 36030.1,20549 35329.9,20549 35329.9,20197.5 
		36378.7,20197.5 36378.7,21246.3 35678.6,21246.3 35678.6,21597.8 36727.4,21597.8 36727.4,20197.5 38476.4,20197.5 
		38476.4,21246.3 37776.2,21246.3 37776.2,21597.8 38827.9,21597.8 38827.9,20197.5 40574,20197.5 40574,21246.3 39876.7,21246.3 
		39876.7,21597.8 40925.5,21597.8 40925.5,20197.5 41625.7,20197.5 	"/>
	<polyline id="polyline3679" class="st4" points="43371.8,21946.4 41625.7,21946.4 41625.7,20897.6 42323,20897.6 	"/>
	<polyline id="polyline3681" class="st4" points="43023.1,21597.8 41974.3,21597.8 41974.3,21246.3 42674.5,21246.3 	"/>
	<polyline id="polyline3683" class="st4" points="55061.9,6214.1 57859.7,6214.1 57859.7,6562.8 56459.4,6562.8 56459.4,7611.6 
		57859.7,7611.6 57859.7,7963.1 56110.7,7963.1 56110.7,6562.8 55061.9,6562.8 55061.9,9011.9 57859.7,9011.9 57859.7,9360.6 
		56459.4,9360.6 56459.4,10409.4 57859.7,10409.4 57859.7,10760.9 56110.7,10760.9 56110.7,9360.6 55061.9,9360.6 	"/>
	<polyline id="polyline3685" class="st4" points="58208.4,5865.5 58208.4,6914.3 56810.9,6914.3 56810.9,7263 58208.4,7263 
		58208.4,8311.8 55762.1,8311.8 55762.1,6914.3 55410.6,6914.3 55410.6,8663.3 58208.4,8663.3 58208.4,9712.1 56810.9,9712.1 
		56810.9,10060.8 58208.4,10060.8 58208.4,11109.6 55762.1,11109.6 55762.1,9712.1 55410.6,9712.1 55410.6,11461.1 58208.4,11461.1 
			"/>
	<polyline id="polyline3687" class="st4" points="55061.9,9360.6 55061.9,11809.7 57859.7,11809.7 57859.7,12158.4 56459.4,12158.4 
		56459.4,13207.2 57859.7,13207.2 57859.7,13558.7 56110.7,13558.7 56110.7,12158.4 55061.9,12158.4 55061.9,14258.9 
		54713.2,14258.9 54713.2,6562.8 	"/>
	<polyline id="polyline3689" class="st4" points="58208.4,11461.1 58208.4,12509.9 56810.9,12509.9 56810.9,12858.6 
		58208.4,12858.6 58208.4,13907.4 55762.1,13907.4 55762.1,12509.9 55410.6,12509.9 55410.6,14258.9 58559.8,14258.9 
		58559.8,2716.2 	"/>
	<line id="line3691" class="st4" x1="57511" y1="3765" x2="57511" y2="4813.8"/>
	<line id="line3693" class="st4" x1="57511" y1="4813.8" x2="56810.9" y2="4813.8"/>
	<line id="line3695" class="st4" x1="56810.9" y1="4813.8" x2="56810.9" y2="5865.5"/>
	<line id="line3697" class="st4" x1="56810.9" y1="5865.5" x2="58208.4" y2="5865.5"/>
	<line id="line3699" class="st4" x1="58208.4" y1="5514" x2="57159.5" y2="5514"/>
	<line id="line3701" class="st4" x1="57159.5" y1="5514" x2="57159.5" y2="5165.3"/>
	<line id="line3703" class="st4" x1="57159.5" y1="5165.3" x2="57859.7" y2="5165.3"/>
	<line id="line3705" class="st4" x1="57859.7" y1="5165.3" x2="57859.7" y2="3416.3"/>
	<line id="line3707" class="st4" x1="58208.4" y1="3067.7" x2="58208.4" y2="5514"/>
	<line id="line3709" class="st4" x1="56810.9" y1="4465.2" x2="57159.5" y2="4465.2"/>
	<line id="line3711" class="st4" x1="57159.5" y1="4465.2" x2="57159.5" y2="4116.5"/>
	<line id="line3713" class="st4" x1="56110.7" y1="5165.3" x2="56110.7" y2="5865.5"/>
	<line id="line3715" class="st4" x1="56110.7" y1="5865.5" x2="56459.4" y2="5865.5"/>
	<line id="line3717" class="st4" x1="56459.4" y1="5865.5" x2="56459.4" y2="4813.8"/>
	<line id="line3719" class="st4" x1="55410.6" y1="5865.5" x2="55762.1" y2="5865.5"/>
	<line id="line3721" class="st4" x1="55762.1" y1="5865.5" x2="55762.1" y2="5514"/>
	<line id="line3723" class="st4" x1="55410.6" y1="5514" x2="55762.1" y2="5514"/>
	<line id="line3725" class="st4" x1="55410.6" y1="5865.5" x2="55410.6" y2="5514"/>
	<line id="line3727" class="st4" x1="55410.6" y1="4813.8" x2="56459.4" y2="4813.8"/>
	<line id="line3729" class="st4" x1="55410.6" y1="5165.3" x2="55410.6" y2="4813.8"/>
	<line id="line3731" class="st4" x1="56110.7" y1="5165.3" x2="55410.6" y2="5165.3"/>
	<line id="line3733" class="st4" x1="56810.9" y1="4116.5" x2="57159.5" y2="4116.5"/>
	<line id="line3735" class="st4" x1="56810.9" y1="4465.2" x2="56810.9" y2="4116.5"/>
	<line id="line3737" class="st4" x1="58208.4" y1="3067.7" x2="55762.1" y2="3067.7"/>
	<line id="line3739" class="st4" x1="56110.7" y1="3416.3" x2="57859.7" y2="3416.3"/>
	<line id="line3741" class="st4" x1="56110.7" y1="4116.5" x2="56110.7" y2="3416.3"/>
	<line id="line3743" class="st4" x1="55762.1" y1="4116.5" x2="56110.7" y2="4116.5"/>
	<line id="line3745" class="st4" x1="55762.1" y1="3067.7" x2="55762.1" y2="4116.5"/>
	<line id="line3747" class="st4" x1="55410.6" y1="4465.2" x2="55410.6" y2="3067.7"/>
	<line id="line3749" class="st4" x1="56459.4" y1="4465.2" x2="55410.6" y2="4465.2"/>
	<line id="line3751" class="st4" x1="56459.4" y1="3765" x2="56459.4" y2="4465.2"/>
	<line id="line3753" class="st4" x1="57511" y1="3765" x2="56459.4" y2="3765"/>
	<polyline id="polyline3755" class="st4" points="49815,3067.7 48766.1,3067.7 48766.1,4465.2 48417.5,4465.2 48417.5,3067.7 
		47368.7,3067.7 47368.7,5514 48766.1,5514 48766.1,5865.5 47017.2,5865.5 47017.2,2716.2 58559.8,2716.2 	"/>
	<polyline id="polyline3757" class="st4" points="51915.4,6214.1 49466.3,6214.1 49466.3,3416.3 49117.6,3416.3 49117.6,4813.8 
		48066,4813.8 48066,3416.3 47717.3,3416.3 47717.3,5165.3 49117.6,5165.3 49117.6,6214.1 47017.2,6214.1 47017.2,6562.8 
		54713.2,6562.8 	"/>
	<polyline id="polyline3759" class="st4" points="55410.6,3067.7 54361.7,3067.7 54361.7,4465.2 54013.1,4465.2 54013.1,3067.7 
		52964.3,3067.7 52964.3,5514 54361.7,5514 54361.7,5865.5 52612.8,5865.5 52612.8,3067.7 51563.9,3067.7 51563.9,4465.2 
		51215.3,4465.2 51215.3,3067.7 50166.5,3067.7 50166.5,5514 51563.9,5514 51563.9,5865.5 49815,5865.5 49815,3067.7 	"/>
	<polyline id="polyline3761" class="st4" points="55061.9,6214.1 55061.9,3416.3 54713.2,3416.3 54713.2,4813.8 53661.6,4813.8 
		53661.6,3416.3 53312.9,3416.3 53312.9,5165.3 54713.2,5165.3 54713.2,6214.1 52264.1,6214.1 52264.1,3416.3 51915.4,3416.3 
		51915.4,4813.8 50863.8,4813.8 50863.8,3416.3 50515.1,3416.3 50515.1,5165.3 51915.4,5165.3 51915.4,6214.1 	"/>
	<polyline id="polyline3763" class="st4" points="34465.3,3487.2 34465.3,5933.5 35865.7,5933.5 35865.7,6285 34116.7,6285 
		34116.7,3135.7 	"/>
	<polyline id="polyline3765" class="st4" points="36214.3,6633.7 34116.7,6633.7 34116.7,9780.1 35865.7,9780.1 35865.7,9082.8 
		36214.3,9082.8 36214.3,10131.6 34116.7,10131.6 	"/>
	<polyline id="polyline3767" class="st4" points="36565.8,5584.8 36565.8,6982.3 34465.3,6982.3 34465.3,9431.5 35514.2,9431.5 
		35514.2,9082.8 34816.8,9082.8 34816.8,7333.8 36914.5,7333.8 36914.5,5933.5 	"/>
	<polyline id="polyline3769" class="st4" points="37263.1,6285 37263.1,7682.5 35165.5,7682.5 35165.5,8731.3 35514.2,8731.3 
		35514.2,8034 37263.1,8034 37263.1,11180.4 	"/>
	<polyline id="polyline3771" class="st4" points="35865.7,8382.6 35865.7,8731.3 36565.8,8731.3 36565.8,10480.3 34465.3,10480.3 	
		"/>
	<polyline id="polyline3773" class="st4" points="35865.7,8382.6 36914.5,8382.6 36914.5,10831.8 34816.8,10831.8 	"/>
	<line id="line3775" class="st4" x1="34816.8" y1="3835.9" x2="34816.8" y2="5584.8"/>
	<line id="line3777" class="st4" x1="34816.8" y1="5584.8" x2="36214.3" y2="5584.8"/>
	<line id="line3779" class="st4" x1="36214.3" y1="5584.8" x2="36214.3" y2="6633.7"/>
	<line id="line3781" class="st4" x1="35165.5" y1="5236.2" x2="36214.3" y2="5236.2"/>
	<line id="line3783" class="st4" x1="35165.5" y1="4184.5" x2="35165.5" y2="5236.2"/>
	<line id="line3785" class="st4" x1="35514.2" y1="4884.7" x2="35865.7" y2="4884.7"/>
	<line id="line3787" class="st4" x1="35514.2" y1="4536" x2="35514.2" y2="4884.7"/>
	<polyline id="polyline3789" class="st4" points="34116.7,10131.6 34116.7,13278.1 35865.7,13278.1 35865.7,12577.9 	"/>
	<polyline id="polyline3791" class="st4" points="35514.2,12577.9 35514.2,12929.4 34465.3,12929.4 34465.3,10480.3 	"/>
	<polyline id="polyline3793" class="st4" points="34816.8,10831.8 34816.8,12577.9 35514.2,12577.9 	"/>
	<polyline id="polyline3795" class="st4" points="37263.1,11180.4 35165.5,11180.4 35165.5,12229.3 35514.2,12229.3 
		35514.2,11529.1 37263.1,11529.1 	"/>
	<polyline id="polyline3797" class="st4" points="35865.7,12577.9 36214.3,12577.9 36214.3,13629.6 34116.7,13629.6 
		34116.7,14326.9 33768,14326.9 33768,2787.1 	"/>
	<polygon id="polygon3799" class="st4" points="34465.3,14326.9 36914.5,14326.9 36914.5,11880.6 35865.7,11880.6 35865.7,12229.3 
		36565.8,12229.3 36565.8,13978.2 34465.3,13978.2 	"/>
	<polyline id="polyline3801" class="st4" points="37263.1,11529.1 37263.1,14326.9 37614.6,14326.9 37614.6,6633.7 	"/>
	<polyline id="polyline3803" class="st4" points="42510.1,6285 45307.9,6285 45307.9,6633.7 37614.6,6633.7 	"/>
	<polygon id="polygon3805" class="st4" points="45307.9,3487.2 45307.9,5933.5 42858.7,5933.5 42858.7,4884.7 43210.2,4884.7 
		43210.2,5584.8 44956.4,5584.8 44956.4,3487.2 	"/>
	<polyline id="polyline3807" class="st4" points="43558.9,4884.7 43558.9,5236.2 44607.7,5236.2 44607.7,3135.7 45307.9,3135.7 
		45307.9,2787.1 33768,2787.1 	"/>
	<polyline id="polyline3809" class="st4" points="42158.6,6285 42158.6,4184.5 43210.2,4184.5 43210.2,4536 42510.1,4536 
		42510.1,6285 	"/>
	<polyline id="polyline3811" class="st4" points="41809.9,3835.9 43558.9,3835.9 43558.9,4536 	"/>
	<polyline id="polyline3813" class="st4" points="43558.9,4536 43907.6,4536 43907.6,3487.2 41461.3,3487.2 	"/>
	<polyline id="polyline3815" class="st4" points="41109.8,3135.7 44259.1,3135.7 44259.1,4884.7 43558.9,4884.7 	"/>
	<line id="line3817" class="st4" x1="35514.2" y1="4536" x2="35865.7" y2="4536"/>
	<line id="line3819" class="st4" x1="35865.7" y1="4536" x2="35865.7" y2="4884.7"/>
	<line id="line3821-8" class="st4" x1="35165.5" y1="4184.5" x2="36214.3" y2="4184.5"/>
	<line id="line3823" class="st4" x1="36214.3" y1="4184.5" x2="36214.3" y2="5236.2"/>
	<line id="line3825-5" class="st4" x1="36565.8" y1="5236.2" x2="37614.6" y2="5236.2"/>
	<line id="line3827" class="st4" x1="36565.8" y1="3835.9" x2="36565.8" y2="5236.2"/>
	<line id="line3829" class="st4" x1="34816.8" y1="3835.9" x2="36565.8" y2="3835.9"/>
	<polyline id="polyline3831" class="st4" points="39363.6,4884.7 39363.6,5933.5 41809.9,5933.5 41809.9,3835.9 	"/>
	<polyline id="polyline3833" class="st4" points="39363.6,4884.7 39712.3,4884.7 39712.3,5584.8 41461.3,5584.8 41461.3,3487.2 	"/>
	<polyline id="polyline3835" class="st4" points="37263.1,6285 38663.5,6285 38663.5,4184.5 39712.3,4184.5 39712.3,4536 
		39012.1,4536 39012.1,6285 42158.6,6285 	"/>
	<polyline id="polyline3837" class="st4" points="36565.8,5584.8 37963.3,5584.8 37963.3,3487.2 40412.4,3487.2 40412.4,4536 
		40060.9,4536 40060.9,3835.9 38312,3835.9 38312,5933.5 36914.5,5933.5 	"/>
	<polyline id="polyline3839-4" class="st4" points="37614.6,5236.2 37614.6,3135.7 40761.1,3135.7 40761.1,4884.7 40060.9,4884.7 
		40060.9,5236.2 41109.8,5236.2 41109.8,3135.7 	"/>
	<polyline id="polyline3841-1" class="st4" points="34465.3,3487.2 36914.5,3487.2 36914.5,4884.7 37263.1,4884.7 37263.1,3135.7 
		34116.7,3135.7 	"/>
</g>
<g>
	<path id="path3843" class="st5" d="M149.6,412.9v-64.6h64.6v35.9H207v-28.8h-50.3v50.3h28.7v7.2H149.6L149.6,412.9z M163.9,398.5
		v-35.9h35.9v28.8h21.5v-43.1H286v35.9h-14.4v7.2h21.5v-43.1h64.6v35.9h-14.4v7.2H365v-43.1h14.4v-7.2h-237v237h7.2v-14.4h43.1
		v-21.5h-7.2v14.4h-35.9V492h43.1v-21.5h-7.2v14.4h-35.9v-64.6h43.1v-21.5h-28.8L163.9,398.5z"/>
	<path id="path3845" class="st5" d="M192.7,369.8h-21.5v21.5h21.5V369.8z M185.5,384.2h-7.2V377h7.2V384.2z"/>
	<polygon id="polygon3847" class="st6" points="235.7,362.7 271.7,362.7 271.7,377 278.9,377 278.9,355.4 228.6,355.4 228.6,398.5 
		199.8,398.5 199.8,427.3 156.7,427.3 156.7,477.6 178.3,477.6 178.3,470.4 163.9,470.4 163.9,434.4 207,434.4 207,405.7 
		235.7,405.7 	"/>
	<polygon id="polygon3849" class="st6" points="243,412.9 214.2,412.9 214.2,441.7 171.1,441.7 171.1,463.2 178.3,463.2 
		178.3,448.8 214.2,448.8 214.2,513.5 171.1,513.5 171.1,535.1 178.3,535.1 178.3,520.7 214.2,520.7 214.2,578.1 221.4,578.1 
		221.4,420.1 379.4,420.1 379.4,412.9 322,412.9 322,377 336.4,377 336.4,369.8 314.7,369.8 314.7,412.9 250.1,412.9 250.1,377 
		264.5,377 264.5,369.8 243,369.8 	"/>
	<polygon id="polygon3851" class="st6" points="163.9,542.2 163.9,506.3 207,506.3 207,456 185.5,456 185.5,463.2 199.8,463.2 
		199.8,499.1 156.7,499.1 156.7,549.4 178.3,549.4 178.3,542.2 	"/>
	<polygon id="polygon3853" class="st6" points="156.7,578.1 207,578.1 207,527.8 185.5,527.8 185.5,535.1 199.8,535.1 199.8,570.9 
		156.7,570.9 	"/>
	<polygon id="polygon3855" class="st6" points="264.5,398.5 264.5,384.2 257.3,384.2 257.3,405.7 307.6,405.7 307.6,362.7 
		343.5,362.7 343.5,377 350.7,377 350.7,355.4 300.4,355.4 300.4,398.5 	"/>
	<polygon id="polygon3857" class="st6" points="336.4,398.5 336.4,384.2 329.1,384.2 329.1,405.7 379.4,405.7 379.4,355.4 
		372.2,355.4 372.2,398.5 	"/>
</g>
<g>
	<path id="path3859" class="st5" d="M240.8,249v64.6h35.9v-7.2H248v-50.3h21.5v28.7h7.2v-28.7h21.5v57.5h35.9v-7.2h-28.8v-50.3h21.5
		v28.7h7.2v-28.7h21.5v57.5h35.9v-7.2h-28.7v-50.3h21.5v28.7h7.2v-28.7h21.5v28.7h21.5v-14.4h21.5v21.5h-14.4v21.5h28.8v21.5h-28.8
		v7.2h28.8v21.5h-50.3v-28.7h-7.2v35.9h57.5v21.5h-28.8v7.2h28.8v21.5h-50.3v-28.8h-7.2v35.9h57.5V450h-28.8v7.2h28.8v21.5h-50.3
		V450h-7.2v35.9h64.6v-237h-237L240.8,249z M420.3,277.8v-21.5h50.3v50.3h-21.5v-7.2h14.4v-35.9h-35.9v14.4L420.3,277.8L420.3,277.8
		z"/>
	<polygon id="polygon3861" class="st6" points="434.7,407 434.7,385.5 463.5,385.5 463.5,378.3 406,378.3 406,328 427.6,328 
		427.6,356.7 463.5,356.7 463.5,349.6 434.7,349.6 434.7,328 463.5,328 463.5,320.8 406,320.8 406,263.4 398.8,263.4 398.8,292.1 
		377.2,292.1 377.2,263.4 370.1,263.4 370.1,299.3 398.8,299.3 398.8,320.8 348.5,320.8 348.5,263.4 341.4,263.4 341.4,292.1 
		319.8,292.1 319.8,263.4 312.6,263.4 312.6,299.3 341.4,299.3 341.4,320.8 291.1,320.8 291.1,263.4 283.9,263.4 283.9,292.1 
		262.3,292.1 262.3,263.4 255.2,263.4 255.2,299.3 283.9,299.3 283.9,320.8 240.8,320.8 240.8,328 398.8,328 398.8,486.1 406,486.1 
		406,443 427.6,443 427.6,471.7 463.5,471.7 463.5,464.5 434.7,464.5 434.7,443 463.5,443 463.5,435.8 406,435.8 406,385.5 
		427.6,385.5 427.6,414.2 463.5,414.2 463.5,407 	"/>
	<polygon id="polygon3863" class="st6" points="420.4,306.5 413.2,306.5 413.2,313.7 420.4,313.7 	"/>
	<polygon id="polygon3865" class="st6" points="413.2,299.3 427.6,299.3 427.6,313.7 434.7,313.7 434.7,292.1 413.2,292.1 	"/>
	<polygon id="polygon3867" class="st6" points="449.1,277.7 441.9,277.7 441.9,285 449.1,285 	"/>
</g>
<g>
	<polygon id="polygon3869" class="st6" points="654.9,354.3 662.1,354.3 662.1,340 683.7,340 683.7,375.9 654.9,375.9 654.9,397.5 
		662.1,397.5 662.1,383.1 683.7,383.1 683.7,397.5 690.8,397.5 690.8,340 712.4,340 712.4,397.5 719.6,397.5 719.6,332.8 
		575.9,332.8 575.9,189.1 511.3,189.1 511.3,196.3 568.7,196.3 568.7,217.8 511.3,217.8 511.3,225.1 525.7,225.1 525.7,246.6 
		511.3,246.6 511.3,253.8 532.8,253.8 532.8,225.1 568.7,225.1 568.7,246.6 554.4,246.6 554.4,253.8 568.7,253.8 568.7,275.3 
		511.3,275.3 511.3,282.5 568.7,282.5 568.7,304.1 554.4,304.1 554.4,311.2 568.7,311.2 568.7,332.8 532.8,332.8 532.8,304.1 
		511.3,304.1 511.3,311.2 525.7,311.2 525.7,332.8 511.3,332.8 511.3,340 568.7,340 568.7,397.5 575.9,397.5 575.9,383.1 
		597.4,383.1 597.4,397.5 604.7,397.5 604.7,375.9 575.9,375.9 575.9,340 597.4,340 597.4,354.3 604.7,354.3 604.7,340 626.2,340 
		626.2,397.5 633.4,397.5 633.4,340 654.9,340 	"/>
	<path id="path3871" class="st5" d="M561.6,289.7h-57.5v-21.5h57.5V261h-14.4v-21.5h14.4v-7.2H540V261h-35.9v-21.5h14.4v-7.2h-14.4
		v-21.5h57.5v-7.2h-57.5v-14.4H497V412h222.7v-7.2h-14.4v-57.5h-7.2v57.5h-21.5v-14.4h-7.2v14.4h-21.5v-35.9h28.8v-21.5h-7.2v14.4
		h-21.5v-14.4h-7.2v57.5h-21.5v-57.5h-7.2v14.4h-21.5v-14.4h-7.2v21.5h28.7v35.9h-21.5v-14.4h-7.2v14.4h-21.5v-57.5h-57.5v-21.5
		h14.4v-7.2h-14.4v-21.5h35.9v28.8h21.5v-7.2h-14.4v-21.5h14.4V290L561.6,289.7z M532.9,354.3h21.5v21.5h-21.5V354.3z M525.7,383.1
		h14.4v14.4h7.2v-14.4h7.2v21.5h-21.5v-14.4h-7.2v14.4h-21.5v-21.5h14.4v-7.2h-14.4v-21.5h21.5v7.2h-14.4v7.2h14.4V383.1z"/>
	<polygon id="polygon3873" class="st6" points="518.4,390.2 511.3,390.2 511.3,397.5 518.4,397.5 	"/>
	<polygon id="polygon3875" class="st6" points="547.2,361.5 540,361.5 540,368.7 547.2,368.7 	"/>
</g>
<g>
	<polyline id="polyline3887" class="st4" points="93.2,605.1 93.2,597.9 100.4,597.9 	"/>
	<polyline id="polyline3889" class="st4" points="86,612.3 86,590.7 107.5,590.7 	"/>
	<polyline id="polyline3891" class="st4" points="78.8,619.4 78.8,605.1 64.4,605.1 64.4,597.9 78.8,597.9 78.8,590.7 57.3,590.7 
		57.3,612.3 71.6,612.3 71.6,619.4 57.3,619.4 57.3,641 	"/>
	<polyline id="polyline3893" class="st4" points="64.4,633.8 64.4,626.6 71.6,626.6 	"/>
	<polyline id="polyline3895" class="st4" points="121.9,576.4 64.4,576.4 64.4,569.1 78.8,569.1 78.8,547.6 64.4,547.6 64.4,540.4 
		86,540.4 86,569.1 121.9,569.1 121.9,547.6 107.5,547.6 107.5,540.4 121.9,540.4 121.9,518.9 64.4,518.9 64.4,511.7 121.9,511.7 
		121.9,490.1 	"/>
	<polyline id="polyline3897-5" class="st4" points="121.9,490.1 107.5,490.1 107.5,483 121.9,483 121.9,461.4 86,461.4 86,490.1 
		64.4,490.1 64.4,483 78.8,483 78.8,461.4 64.4,461.4 	"/>
	<polyline id="polyline3899" class="st4" points="100.4,497.3 100.4,475.7 114.8,475.7 114.8,468.6 93.2,468.6 93.2,497.3 	"/>
	<polyline id="polyline3901-5" class="st4" points="114.8,583.5 57.3,583.5 57.3,562 71.6,562 71.6,554.8 57.3,554.8 57.3,533.2 
		93.2,533.2 93.2,562 114.8,562 114.8,554.8 100.4,554.8 100.4,533.2 114.8,533.2 114.8,526.1 57.3,526.1 57.3,504.5 114.8,504.5 
		114.8,497.3 100.4,497.3 	"/>
	<polyline id="polyline3903-0" class="st4" points="93.2,497.3 57.3,497.3 57.3,475.7 71.6,475.7 71.6,468.6 57.3,468.6 	"/>
	<line id="line3905-7" class="st7" x1="64.4" y1="461.4" x2="64.4" y2="454.2"/>
	<line id="line3907" class="st7" x1="64.4" y1="454.2" x2="121.9" y2="454.2"/>
	<line id="line3909" class="st7" x1="121.9" y1="454.2" x2="121.9" y2="432.7"/>
	<line id="line3911-6" class="st7" x1="121.9" y1="432.7" x2="64.4" y2="432.7"/>
	<line id="line3913-8" class="st7" x1="64.4" y1="432.7" x2="64.4" y2="425.5"/>
	<line id="line3915" class="st7" x1="57.3" y1="425.5" x2="57.3" y2="439.9"/>
	<line id="line3917-7" class="st7" x1="57.3" y1="439.9" x2="114.8" y2="439.9"/>
	<line id="line3919" class="st7" x1="114.8" y1="439.9" x2="114.8" y2="447"/>
	<line id="line3921" class="st7" x1="114.8" y1="447" x2="57.3" y2="447"/>
	<line id="line3923-9" class="st7" x1="57.3" y1="447" x2="57.3" y2="468.6"/>
	<polyline id="polyline3925" class="st4" points="57.3,425.5 50.1,425.5 50.1,648.1 	"/>
	<polyline id="polyline3927" class="st4" points="64.4,425.5 129.1,425.5 129.1,569.1 	"/>
	<polyline id="polyline3929" class="st4" points="272.8,633.8 272.8,569.1 129.1,569.1 	"/>
	<polyline id="polyline3931-7" class="st4" points="272.8,641 272.8,648.1 50.1,648.1 	"/>
	<line id="line3933" class="st7" x1="251.2" y1="641" x2="229.7" y2="641"/>
	<line id="line3935-0" class="st7" x1="251.2" y1="583.5" x2="251.2" y2="641"/>
	<line id="line3937" class="st7" x1="258.4" y1="583.5" x2="251.2" y2="583.5"/>
	<line id="line3939-5" class="st7" x1="258.4" y1="641" x2="258.4" y2="583.5"/>
	<line id="line3941" class="st7" x1="272.8" y1="641" x2="258.4" y2="641"/>
	<line id="line3943" class="st7" x1="265.6" y1="633.8" x2="272.8" y2="633.8"/>
	<line id="line3945" class="st7" x1="265.6" y1="576.4" x2="265.6" y2="633.8"/>
	<line id="line3947" class="st7" x1="244" y1="576.4" x2="265.6" y2="576.4"/>
	<line id="line3949" class="st7" x1="244" y1="633.8" x2="244" y2="576.4"/>
	<line id="line3951" class="st7" x1="236.8" y1="633.8" x2="244" y2="633.8"/>
	<polyline id="polyline3953" class="st4" points="200.9,605.1 200.9,641 222.5,641 222.5,626.6 229.7,626.6 229.7,641 	"/>
	<polyline id="polyline3955-0" class="st4" points="114.8,583.5 114.8,641 136.3,641 136.3,626.6 143.5,626.6 143.5,641 165,641 
		165,605.1 136.3,605.1 136.3,583.5 143.5,583.5 143.5,597.9 165,597.9 165,583.5 172.2,583.5 172.2,641 193.8,641 193.8,583.5 
		200.9,583.5 200.9,597.9 	"/>
	<polyline id="polyline3957-2" class="st4" points="200.9,597.9 222.5,597.9 222.5,583.5 229.7,583.5 229.7,605.1 200.9,605.1 	"/>
	<polyline id="polyline3959" class="st4" points="208.1,576.4 208.1,590.7 215.3,590.7 215.3,576.4 236.8,576.4 236.8,612.3 
		208.1,612.3 208.1,633.8 215.3,633.8 215.3,619.4 236.8,619.4 236.8,633.8 	"/>
	<polyline id="polyline3961" class="st4" points="121.9,576.4 121.9,633.8 129.1,633.8 129.1,619.4 150.6,619.4 150.6,633.8 
		157.8,633.8 157.8,612.3 129.1,612.3 129.1,576.4 150.6,576.4 150.6,590.7 157.8,590.7 157.8,576.4 179.4,576.4 179.4,633.8 
		186.5,633.8 186.5,576.4 208.1,576.4 	"/>
	<polyline id="polyline3963" class="st4" points="64.4,633.8 71.6,633.8 71.6,626.6 	"/>
	<polyline id="polyline3965" class="st4" points="78.8,619.4 93.2,619.4 93.2,633.8 100.4,633.8 100.4,619.4 107.5,619.4 107.5,641 
		86,641 86,626.6 78.8,626.6 78.8,641 57.3,641 	"/>
	<polyline id="polyline3967" class="st4" points="86,612.3 107.5,612.3 107.5,590.7 	"/>
	<polyline id="polyline3969" class="st4" points="93.2,605.1 100.4,605.1 100.4,597.9 	"/>
</g>
<g>
	<polygon id="polygon3877" class="st6" points="401.9,770.4 229.5,770.4 229.5,598 222.3,598 222.3,777.6 401.9,777.6 	"/>
	<polygon id="polygon3879" class="st6" points="265.4,698.6 258.2,698.6 258.2,684.2 236.6,684.2 236.6,720.1 265.4,720.1 
		265.4,734.5 279.8,734.5 279.8,763.2 315.6,763.2 315.6,741.7 301.3,741.7 301.3,734.5 322.9,734.5 322.9,763.2 358.8,763.2 
		358.8,741.7 344.4,741.7 344.4,734.5 365.9,734.5 365.9,763.2 401.9,763.2 401.9,741.7 387.5,741.7 387.5,734.5 401.9,734.5 
		401.9,727.3 380.3,727.3 380.3,748.9 394.7,748.9 394.7,756.1 373.1,756.1 373.1,727.3 337.2,727.3 337.2,748.9 351.6,748.9 
		351.6,756.1 330,756.1 330,727.3 294.1,727.3 294.1,748.9 308.5,748.9 308.5,756.1 286.9,756.1 286.9,727.3 272.5,727.3 272.5,713 
		243.8,713 243.8,691.4 251,691.4 251,705.8 272.5,705.8 272.5,669.8 243.8,669.8 243.8,648.3 251,648.3 251,662.7 272.5,662.7 
		272.5,626.7 243.8,626.7 243.8,605.2 251,605.2 251,619.6 272.5,619.6 272.5,598 265.4,598 265.4,612.4 258.2,612.4 258.2,598 
		236.6,598 236.6,634 265.4,634 265.4,655.5 258.2,655.5 258.2,641.1 236.6,641.1 236.6,677 265.4,677 	"/>
	<path id="path3881" class="st5" d="M272.5,763.2v-21.5h-14.4v-14.4h-21.5v35.9H272.5z M251,734.5v14.4h14.4v7.2h-21.5v-21.5H251z"
		/>
	<polygon id="polygon3883" class="st6" points="401.9,713 286.9,713 286.9,598 279.8,598 279.8,720.1 401.9,720.1 	"/>
</g>
<g>
	<polyline id="polyline3971" class="st4" points="257.6,346.2 279.2,346.2 279.2,339.1 264.8,339.1 	"/>
	<polyline id="polyline3973" class="st4" points="250.4,353.4 286.3,353.4 286.3,331.9 271.9,331.9 	"/>
	<polyline id="polyline3975" class="st4" points="279.2,324.7 293.5,324.7 293.5,353.4 329.4,353.4 329.4,331.9 315.1,331.9 
		315.1,324.7 336.6,324.7 336.6,353.4 372.5,353.4 372.5,331.9 358.2,331.9 358.2,324.7 379.7,324.7 379.7,353.4 415.6,353.4 
		415.6,331.9 401.3,331.9 401.3,324.7 415.6,324.7 415.6,317.5 394.1,317.5 394.1,339.1 408.5,339.1 408.5,346.2 386.9,346.2 
		386.9,317.5 351,317.5 351,339.1 365.3,339.1 365.3,346.2 343.8,346.2 343.8,317.5 307.9,317.5 307.9,339.1 322.2,339.1 
		322.2,346.2 300.7,346.2 300.7,317.5 286.3,317.5 	"/>
	<polyline id="polyline3977" class="st4" points="293.5,310.3 415.6,310.3 415.6,303.2 300.7,303.2 	"/>
	<polyline id="polyline3979" class="st4" points="243.2,360.6 415.6,360.6 415.6,367.8 236.1,367.8 	"/>
	<polyline id="polyline3981" class="st4" points="243.2,360.6 243.2,188.2 236.1,188.2 236.1,367.8 	"/>
	<polyline id="polyline3983" class="st4" points="293.5,310.3 293.5,188.2 300.7,188.2 300.7,303.2 	"/>
	<polyline id="polyline3985" class="st4" points="279.2,324.7 279.2,310.3 250.4,310.3 250.4,274.4 271.9,274.4 271.9,288.8 
		279.2,288.8 279.2,267.2 250.4,267.2 250.4,231.3 271.9,231.3 271.9,245.7 279.2,245.7 279.2,224.2 250.4,224.2 250.4,188.2 
		271.9,188.2 271.9,202.5 279.2,202.5 279.2,188.2 286.3,188.2 286.3,209.8 264.8,209.8 264.8,195.4 257.6,195.4 257.6,216.9 
		286.3,216.9 286.3,252.9 264.8,252.9 264.8,238.5 257.6,238.5 257.6,260 286.3,260 286.3,295.9 264.8,295.9 264.8,281.6 
		257.6,281.6 257.6,303.2 286.3,303.2 286.3,317.5 	"/>
	<polyline id="polyline3987" class="st4" points="250.4,353.4 250.4,317.5 271.9,317.5 271.9,331.9 	"/>
	<polyline id="polyline3989" class="st4" points="257.6,346.2 257.6,324.7 264.8,324.7 264.8,339.1 	"/>
</g>
<g>
	<polyline id="polyline3991" class="st4" points="582.1,173.8 639.5,173.8 639.5,181 610.8,181 610.8,202.5 639.5,202.5 
		639.5,209.7 603.6,209.7 603.6,181 582.1,181 582.1,231.2 639.5,231.2 639.5,238.5 610.8,238.5 610.8,260 639.5,260 639.5,267.2 
		603.6,267.2 603.6,238.5 582.1,238.5 	"/>
	<polyline id="polyline3993-6" class="st4" points="646.7,166.6 646.7,188.2 618,188.2 618,195.4 646.7,195.4 646.7,216.9 
		596.4,216.9 596.4,188.2 589.2,188.2 589.2,224.1 646.7,224.1 646.7,245.6 618,245.6 618,252.8 646.7,252.8 646.7,274.4 
		596.4,274.4 596.4,245.6 589.2,245.6 589.2,281.5 646.7,281.5 	"/>
	<polyline id="polyline3995-9" class="st4" points="582.1,238.5 582.1,288.7 639.5,288.7 639.5,295.9 610.8,295.9 610.8,317.5 
		639.5,317.5 639.5,324.6 603.6,324.6 603.6,295.9 582.1,295.9 582.1,339 574.9,339 574.9,181 	"/>
	<polyline id="polyline3997" class="st4" points="646.7,281.5 646.7,303.1 618,303.1 618,310.3 646.7,310.3 646.7,331.9 
		596.4,331.9 596.4,303.1 589.2,303.1 589.2,339 653.9,339 653.9,102 	"/>
	<line id="line3999-1" class="st7" x1="632.3" y1="123.5" x2="632.3" y2="145.1"/>
	<line id="line4001-3" class="st7" x1="632.3" y1="145.1" x2="618" y2="145.1"/>
	<line id="line4003" class="st7" x1="618" y1="145.1" x2="618" y2="166.6"/>
	<line id="line4005" class="st7" x1="618" y1="166.6" x2="646.7" y2="166.6"/>
	<line id="line4007" class="st7" x1="646.7" y1="159.5" x2="625.1" y2="159.5"/>
	<line id="line4009" class="st7" x1="625.1" y1="159.5" x2="625.1" y2="152.2"/>
	<line id="line4011" class="st7" x1="625.1" y1="152.2" x2="639.5" y2="152.2"/>
	<line id="line4013" class="st7" x1="639.5" y1="152.2" x2="639.5" y2="116.3"/>
	<line id="line4015" class="st7" x1="646.7" y1="109.1" x2="646.7" y2="159.5"/>
	<line id="line4017" class="st7" x1="618" y1="137.9" x2="625.1" y2="137.9"/>
	<line id="line4019-8" class="st7" x1="625.1" y1="137.9" x2="625.1" y2="130.7"/>
	<line id="line4021-9" class="st7" x1="603.6" y1="152.2" x2="603.6" y2="166.6"/>
	<line id="line4023-7" class="st7" x1="603.6" y1="166.6" x2="610.8" y2="166.6"/>
	<line id="line4025" class="st7" x1="610.8" y1="166.6" x2="610.8" y2="145.1"/>
	<line id="line4027" class="st7" x1="589.2" y1="166.6" x2="596.4" y2="166.6"/>
	<line id="line4029-0" class="st7" x1="596.4" y1="166.6" x2="596.4" y2="159.5"/>
	<line id="line4031-0" class="st7" x1="589.2" y1="159.5" x2="596.4" y2="159.5"/>
	<line id="line4033-9" class="st7" x1="589.2" y1="166.6" x2="589.2" y2="159.5"/>
	<line id="line4035-1" class="st7" x1="589.2" y1="145.1" x2="610.8" y2="145.1"/>
	<line id="line4037-8" class="st7" x1="589.2" y1="152.2" x2="589.2" y2="145.1"/>
	<line id="line4039-5" class="st7" x1="603.6" y1="152.2" x2="589.2" y2="152.2"/>
	<line id="line4041-9" class="st7" x1="618" y1="130.7" x2="625.1" y2="130.7"/>
	<line id="line4043-8" class="st7" x1="618" y1="137.9" x2="618" y2="130.7"/>
	<line id="line4045-7" class="st7" x1="646.7" y1="109.1" x2="596.4" y2="109.1"/>
	<line id="line4047-1" class="st7" x1="603.6" y1="116.3" x2="639.5" y2="116.3"/>
	<line id="line4049-0" class="st7" x1="603.6" y1="130.7" x2="603.6" y2="116.3"/>
	<line id="line4051-5" class="st7" x1="596.4" y1="130.7" x2="603.6" y2="130.7"/>
	<line id="line4053-3" class="st7" x1="596.4" y1="109.1" x2="596.4" y2="130.7"/>
	<line id="line4055-0" class="st7" x1="589.2" y1="137.9" x2="589.2" y2="109.1"/>
	<line id="line4057-3" class="st7" x1="610.8" y1="137.9" x2="589.2" y2="137.9"/>
	<line id="line4059-0" class="st7" x1="610.8" y1="123.5" x2="610.8" y2="137.9"/>
	<line id="line4061-0" class="st7" x1="632.3" y1="123.5" x2="610.8" y2="123.5"/>
	<polyline id="polyline4063-5" class="st4" points="474.3,109.1 452.7,109.1 452.7,137.9 445.6,137.9 445.6,109.1 424,109.1 
		424,159.5 452.7,159.5 452.7,166.6 416.8,166.6 416.8,102 653.9,102 	"/>
	<polyline id="polyline4065-8" class="st4" points="517.4,173.8 467.1,173.8 467.1,116.3 460,116.3 460,145.1 438.4,145.1 
		438.4,116.3 431.2,116.3 431.2,152.2 460,152.2 460,173.8 416.8,173.8 416.8,181 574.9,181 	"/>
	<polyline id="polyline4067" class="st4" points="589.2,109.1 567.7,109.1 567.7,137.9 560.5,137.9 560.5,109.1 539,109.1 
		539,159.5 567.7,159.5 567.7,166.6 531.8,166.6 531.8,109.1 510.2,109.1 510.2,137.9 503,137.9 503,109.1 481.5,109.1 481.5,159.5 
		510.2,159.5 510.2,166.6 474.3,166.6 474.3,109.1 	"/>
	<polyline id="polyline4069" class="st4" points="582.1,173.8 582.1,116.3 574.9,116.3 574.9,145.1 553.3,145.1 553.3,116.3 
		546.1,116.3 546.1,152.2 574.9,152.2 574.9,173.8 524.6,173.8 524.6,116.3 517.4,116.3 517.4,145.1 495.8,145.1 495.8,116.3 
		488.7,116.3 488.7,152.2 517.4,152.2 517.4,173.8 	"/>
</g>
<g>
	<polyline id="polyline4071" class="st4" points="64.7,112.8 64.7,163.1 93.4,163.1 93.4,170.3 57.5,170.3 57.5,105.7 	"/>
	<polyline id="polyline4073" class="st4" points="100.6,177.5 57.5,177.5 57.5,242.1 93.4,242.1 93.4,227.8 100.6,227.8 
		100.6,249.3 57.5,249.3 	"/>
	<polyline id="polyline4075" class="st4" points="107.8,155.9 107.8,184.7 64.7,184.7 64.7,235 86.2,235 86.2,227.8 71.9,227.8 
		71.9,191.8 115,191.8 115,163.1 	"/>
	<polyline id="polyline4077-0" class="st4" points="122.2,170.3 122.2,199.1 79.1,199.1 79.1,220.6 86.2,220.6 86.2,206.2 
		122.2,206.2 122.2,270.8 	"/>
	<polyline id="polyline4079" class="st4" points="93.4,213.4 93.4,220.6 107.8,220.6 107.8,256.5 64.7,256.5 	"/>
	<polyline id="polyline4081-0" class="st4" points="93.4,213.4 115,213.4 115,263.7 71.9,263.7 	"/>
	<line id="line4083" class="st7" x1="71.9" y1="120" x2="71.9" y2="155.9"/>
	<line id="line4085-3" class="st7" x1="71.9" y1="155.9" x2="100.6" y2="155.9"/>
	<line id="line4087-4" class="st7" x1="100.6" y1="155.9" x2="100.6" y2="177.5"/>
	<line id="line4089-8" class="st7" x1="79.1" y1="148.8" x2="100.6" y2="148.8"/>
	<line id="line4091-1" class="st7" x1="79.1" y1="127.2" x2="79.1" y2="148.8"/>
	<line id="line4093-8" class="st7" x1="86.2" y1="141.6" x2="93.4" y2="141.6"/>
	<line id="line4095-7" class="st7" x1="86.2" y1="134.4" x2="86.2" y2="141.6"/>
	<polyline id="polyline4097" class="st4" points="57.5,249.3 57.5,314 93.4,314 93.4,299.6 	"/>
	<polyline id="polyline4099" class="st4" points="86.2,299.6 86.2,306.8 64.7,306.8 64.7,256.5 	"/>
	<polyline id="polyline4101" class="st4" points="71.9,263.7 71.9,299.6 86.2,299.6 	"/>
	<polyline id="polyline4103" class="st4" points="122.2,270.8 79.1,270.8 79.1,292.4 86.2,292.4 86.2,278.1 122.2,278.1 	"/>
	<polyline id="polyline4105" class="st4" points="93.4,299.6 100.6,299.6 100.6,321.2 57.5,321.2 57.5,335.5 50.3,335.5 50.3,98.4 	
		"/>
	<polygon id="polygon4107" class="st4" points="115,335.5 115,285.2 93.4,285.2 93.4,292.4 107.8,292.4 107.8,328.3 64.7,328.3 
		64.7,335.5 	"/>
	<polyline id="polyline4109-2" class="st4" points="122.2,278.1 122.2,335.5 129.4,335.5 129.4,177.5 	"/>
	<polyline id="polyline4111" class="st4" points="229.9,170.3 287.4,170.3 287.4,177.5 129.4,177.5 	"/>
	<polygon id="polygon4113" class="st4" points="287.4,163.1 237.1,163.1 237.1,141.6 244.3,141.6 244.3,155.9 280.2,155.9 
		280.2,112.8 287.4,112.8 	"/>
	<polyline id="polyline4115" class="st4" points="251.5,141.6 251.5,148.8 273,148.8 273,105.7 287.4,105.7 287.4,98.4 50.3,98.4 	
		"/>
	<polyline id="polyline4117" class="st4" points="222.7,170.3 222.7,127.2 244.3,127.2 244.3,134.4 229.9,134.4 229.9,170.3 	"/>
	<polyline id="polyline4119-6" class="st4" points="215.5,120 251.5,120 251.5,134.4 	"/>
	<polyline id="polyline4121" class="st4" points="251.5,134.4 258.6,134.4 258.6,112.8 208.4,112.8 	"/>
	<polyline id="polyline4123-4" class="st4" points="201.2,105.7 265.8,105.7 265.8,141.6 251.5,141.6 	"/>
	<line id="line4125" class="st7" x1="86.2" y1="134.4" x2="93.4" y2="134.4"/>
	<line id="line4127" class="st7" x1="93.4" y1="134.4" x2="93.4" y2="141.6"/>
	<line id="line4129" class="st7" x1="79.1" y1="127.2" x2="100.6" y2="127.2"/>
	<line id="line4131" class="st7" x1="100.6" y1="127.2" x2="100.6" y2="148.8"/>
	<line id="line4133" class="st7" x1="107.8" y1="148.8" x2="129.4" y2="148.8"/>
	<line id="line4135" class="st7" x1="107.8" y1="120" x2="107.8" y2="148.8"/>
	<line id="line4137" class="st7" x1="71.9" y1="120" x2="107.8" y2="120"/>
	<polyline id="polyline4139" class="st4" points="165.2,141.6 165.2,163.1 215.5,163.1 215.5,120 	"/>
	<polyline id="polyline4141-1" class="st4" points="165.2,141.6 172.5,141.6 172.5,155.9 208.4,155.9 208.4,112.8 	"/>
	<polyline id="polyline4143" class="st4" points="122.2,170.3 150.9,170.3 150.9,127.2 172.5,127.2 172.5,134.4 158.1,134.4 
		158.1,170.3 222.7,170.3 	"/>
	<polyline id="polyline4145-7" class="st4" points="107.8,155.9 136.5,155.9 136.5,112.8 186.8,112.8 186.8,134.4 179.6,134.4 
		179.6,120 143.7,120 143.7,163.1 115,163.1 	"/>
	<polyline id="polyline4147-3" class="st4" points="129.4,148.8 129.4,105.7 194,105.7 194,141.6 179.6,141.6 179.6,148.8 
		201.2,148.8 201.2,105.7 	"/>
	<polyline id="polyline4149-5" class="st4" points="64.7,112.8 115,112.8 115,141.6 122.2,141.6 122.2,105.7 57.5,105.7 	"/>
</g>
<text transform="matrix(1 0 0 1 193.1914 84.3877)" class="st8 st9">www.craftsmanspace.com</text>
</svg>
