<?xml version="1.0" encoding="utf-8"?>
<!-- Generator: Adobe Illustrator 25.0.1, SVG Export Plug-In . SVG Version: 6.00 Build 0)  -->
<svg version="1.1" id="Layer_1" xmlns="http://www.w3.org/2000/svg" xmlns:xlink="http://www.w3.org/1999/xlink" x="0px" y="0px"
	 viewBox="0 0 792 612" style="enable-background:new 0 0 792 612;" xml:space="preserve">
<style type="text/css">
	.st0{fill:#115A33;}
</style>
<g>
	<path id="path1593" class="st0" d="M338.6,295c-12.5,6.2-18.8,9.8-28.5,16.5c-5.8,4.1-11,8-11.6,8.7c-0.5,0.7-2.1,1.6-3.5,2
		s-2.4,1.2-2.1,1.8c0.2,0.6-0.6,1.7-1.8,2.5c-2,1.3-1.9,1.4,0.1,0.7c1.2-0.4,3.2-0.1,4.5,0.7c1.9,1.2,2.8,1,6.4-1.5
		c4.2-3,10.1-4.6,10.8-2.9c0.2,0.5-2.9,3.5-7,6.7c-4.1,3.2-7.8,6.9-8.4,8c-0.4,11.5,19.9,27.6,20.7,27.2c0.9-0.4,2,0.7,2.8,2.8
		c1.1,2.8,1.6,3,3.1,1.8c1.2-1,2.6-0.9,4.1,0c1.3,0.8,3.3,1.2,4.5,1c3.1-0.6,4.4,1.4,2,3.1c-1.1,0.8-1.8,2.1-1.5,2.9
		c0.4,1.1,0.8,1,1.4-0.4c1.1-2.6,2-2.7,3.7-0.4c0.8,1.1,1.9,1.5,2.3,0.9c1.5-2,7.1,0.9,7.3,3.8c0.2,2.7,2.3,2.8,2.4,0.1
		c0-1.1,0.6-1.2,2-0.2c1.1,0.8,2.9,1,4.1,0.6c1.2-0.5,2.3-0.1,2.7,0.8s1.1,1.2,1.6,0.6s1.7-0.9,2.8-0.6c1,0.3,2.6-0.1,3.4-0.8
		c1.4-1.3,2-0.7,5.8,5.3c1,1.7,1.4,1.1,2.1-3.3c0.5-2.9,0.2-6.5-0.5-7.9s-0.8-2.3-0.1-1.9c0.7,0.4,3,0.7,5,0.5
		c2.9-0.2,4.3,0.7,7.2,4.2c3.4,4.2,6.2,5.5,4.9,2.4c-0.3-0.7,1-0.3,2.8,0.9l3.3,2.3l-0.5-2.8c-0.5-2.8-0.5-2.7,1.2-0.7
		c2.4,2.8,4.5,0.4,3-3.4c-0.7-1.7-1.7-3.1-2.3-3.2s-0.3,1.2,0.7,3.1l1.8,3.3l-2.7-2c-1.5-1.1-3-1.7-3.3-1.2s-2-0.2-3.8-1.6l-3.3-2.6
		l3.3-1.1c5.1-1.8,10.2,0.1,12.2,4.5c0.9,2.1,1.6,3.1,1.5,2.2c-0.1-2.2,4.7-1.5,5.7,0.8c0.5,1.3,1,1.3,1.5,0.1
		c0.5-1.2-0.3-2.4-2.7-4.5c-1.8-1.6-3.3-2.1-3.3-1.3c0.2,2.7-1.6,2.3-2.6-0.6c-0.8-2.3-0.5-2.9,1.5-3c1.3-0.1,3.2-0.5,4.2-0.8
		c1-0.3,2.3,0.5,3,2.1c2.5,5.1,8.8,8.6,6.9,3.9c-0.5-1.1-0.3-1.6,0.5-1.1c1.2,0.8,5.8,1.1,5.5,0.3c-0.1-0.2-2.2-1.4-4.8-2.6
		c-7.2-3.3-7-4.5,1.6-7.5c4.1-1.5,8-2.8,8.6-3c0.7-0.2,3.6,0.6,6.7,1.7c6.2,2.3,6.8,1.5,0.9-1.2c-6.1-2.9-3.2-2.8,8,0.1
		c5.6,1.5,10.1,2.3,9.9,1.7c-0.2-0.5-1.1-1.1-1.8-1.2c-0.8-0.1-1.5-1.1-1.8-2.1c-0.2-1-1.2-1.7-2.1-1.7c-1.2,0.1-1.2,0.4-0.3,1.1
		s0.8,0.9-0.1,0.8c-0.8-0.1-1.5-1.1-1.5-2.1c0-1.3-0.7-1.5-2.5-0.8c-3,1.2-10.8-0.5-7.9-1.8c1-0.4,2.3-0.5,2.8-0.1s2.8,0.4,4.9-0.1
		c2.2-0.4,5.7-0.3,7.7,0.3c3.3,1,4,0.6,2.8-1.6c-0.2-0.4,0.5-0.8,1.7-0.8c1.7-0.1,1.3-0.5-1.4-1.7c-3-1.4-3.5-1.2-3.8,0.5
		c-0.2,1.4-0.5,1.6-1,0.6c-0.7-1.7,1.9-4.3,3.5-3.4c0.6,0.4,3,1.3,5.3,2.1c4.5,1.5,3.3-0.1-2.1-2.8c-3.2-1.6-3.3-1.7-0.9-1.8
		c2.4-0.2,2.4-0.1-0.4-0.9c-1.5-0.4-3.3-0.3-3.9,0.3s-1.4,0.6-1.6,0c-0.6-1.5,1.3-2,10.8-3c10.3-1.1,9.9-0.9,6.5-2.6
		c-3.8-1.8-3-3.3,1.4-2.4c2.2,0.4,3.3,0.2,3-0.6c-0.3-0.7-1.4-1.2-2.4-1.1c-1,0.1-2.1-0.7-2.5-1.5c-0.4-0.9,0.1-1.5,1.4-1.5
		c1.7,0,1.7-0.3-0.1-1.8c-2.5-2.1-4.3-6.1-3-6.6c0.5-0.2,2.5,0.4,4.5,1.3c3.8,1.7,6.5,1.7,4.3-0.1c-0.7-0.6,1.3,0.3,4.5,1.9
		s6.4,2.7,7.1,2.4c0.7-0.3-0.8-1.4-3.2-2.5s-4.2-2.5-3.9-3.1c0.2-0.6,2.8-2.1,5.7-3.2c2.9-1.2,4.3-2.1,4.3-2.6
		c0-0.4-1.4-0.5-4.2,0.1c-2,0.4-3.5,0.2-3.3-0.4s-0.9-1.2-2.5-1.4c-2.4-0.3-2.7-0.6-1.2-1.2c1-0.4,1.8-1,1.6-1.4
		c-0.4-0.9-4.4-2.5-5.5-2.1c-0.5,0.2-1.8-1.8-2.9-4.5c-1.9-4.8-1.5-6.8,1-4.2c0.7,0.8,1.6,0.9,1.9,0.4c0.4-0.5,1.2-0.6,1.8-0.1
		c2.4,1.7,4.2-0.4,3-3.5c-1.3-3.2-6.8-8.8-8.2-8.2c-0.5,0.2-2-0.6-3.5-1.9c-2.7-2.2-17.9-7-19.8-6.3c-0.6,0.2-1.9,0-2.9-0.6
		c-1.7-0.9-19.7-2.7-23-2.3c-2,0.2-13.4,0.9-16,0.8c-2.5,0-13.3,1-30.4,2.7C366.1,286.5,344.9,291.8,338.6,295L338.6,295z
		 M336.3,322.3c4.1-1.9,4.3-1.9,6.4,1.6c12,20.4,20,26.9,35.2,28.6c7.7,0.9,9,0.7,18.1-3c6.7-2.7,10.2-4.6,11-6.2
		c0.7-1.2,1.3-2,1.5-1.6s2.1-1.5,4.5-4.2c5.7-6.7,9-16.1,8.2-23.1c-0.8-6.7-0.1-6.8,13.1-2.1c4.6,1.7,9.8,3.4,11.5,4
		c1.7,0.5,3.6,2.2,4.2,3.6c1.5,3.6,1.2,9-0.5,9.7c-0.8,0.3-1.8,1.6-2.3,2.8c-1.3,3.2-13.3,13.4-22.2,18.8
		c-8.8,5.4-23.5,10.4-31.5,10.7c-9.5,0.3-24.4-0.6-31.2-1.9c-11.3-2.2-29-9.4-33.1-13.6c-6.9-6.9-7.5-8.1-5.5-11.3
		c0.9-1.9,2.1-4.9,5.1-8c1.4-0.6,2.7-1.5,3-2C331.8,324.7,333.9,323.4,336.3,322.3L336.3,322.3z M364.3,317.8
		c6.2,0.3,10.7,16.8,8.4,18.7c0,0,2.3,7-5.5,3.2c-2.6-1.3-6.1-4.2-6.1-4.2c-1.6-3.9-7.5-8.9-4.3-15.4
		C358.5,318.4,362.3,317.8,364.3,317.8L364.3,317.8z M337.2,367.7c0.6-0.2,1.3,0.1,1.5,0.6c0.2,0.6,0,1.3-0.6,1.6
		c-0.6,0.2-1.3-0.1-1.5-0.6C336.3,368.7,336.6,368,337.2,367.7z M364,373.8c0.1-0.2,0.4-0.4,0.7-0.3c0.7,0.1,1.6,0.9,2,1.8
		c0.4,0.9,0.1,1.5-0.6,1.4c-0.7-0.1-1.7-1-2-1.9C363.8,374.5,363.9,374.1,364,373.8L364,373.8z M382.1,376c-0.6,0.2-0.8,1.1-0.5,2
		c0.4,0.9,1.2,1.4,1.8,1.2c0.6-0.2,0.8-1.2,0.4-2.1C383.4,376.2,382.7,375.7,382.1,376z M460.4,344.5c-0.4,0.1-0.4,0.4-0.2,1
		c0.3,0.8,1.9,1.7,3.3,2c1.4,0.3,2.5,0.1,2.3-0.4s-1.7-1.4-3.3-2C461.5,344.6,460.8,344.4,460.4,344.5z M428.4,363.4
		c-0.5,0.2-0.6,1.2-0.2,2.2c0.4,1,0.9,1.4,1.1,0.8c0.2-0.6,1.7-0.8,3.2-0.7c1.4,0.1,2,0.2,2,0c0-0.2-0.8-0.5-2.3-1.3
		C430.6,363.7,428.9,363.2,428.4,363.4L428.4,363.4z M413.8,369.4c0.2,0,0.8,0.3,1.9,0.9c1.3,0.8,2,1.4,2.1,1.9s-0.4,0.7-1.6,0.5
		c-0.8-0.1-1.8-1.1-2.1-2.1C413.7,369.9,413.6,369.5,413.8,369.4z M421.5,368.8c-0.7,0.3,1.1,1.2,3.9,2.2s6.3,3,7.8,4.6l2.8,3
		l-2.3-3.6c-2.7-4.4-5.6-6.8-6.5-5.6c-0.4,0.5-1.5,0.4-2.6-0.1C423.6,368.7,422.1,368.5,421.5,368.8L421.5,368.8z M436,366.3
		c0.2,0.6,1.4,1.3,2.6,1.7c1.2,0.4,2,0.3,1.7-0.3c-0.2-0.6-1.4-1.4-2.6-1.8C436.5,365.5,435.8,365.7,436,366.3z"/>
	<path id="path1608" class="st0" d="M449.7,223.1c-1.1,0.3-1.5,1-0.8,1.6c0.7,0.5,1.6,0.8,2.1,0.7c0.5-0.1,0.8-0.8,0.7-1.5
		C451.7,223.1,450.9,222.8,449.7,223.1L449.7,223.1z M454,224.8c-0.2,0.3,0,0.9,0.7,2.1c1.2,2.1,1,2.6-1,2.4
		c-1.5-0.2,0.5,1.1,4.3,2.7c5,2.2,5.8,3.1,3,3.2c-2.1,0.1-6.1-0.8-8.7-1.8c-3.1-1.2-6.2-1.2-8.7-0.1c-2.1,1-4.7-2.7-5.9-2.9
		c-3.1-0.8-10.9,0.3-9.6,1.3c2.5,2-1.4,0-6.9-0.4c-7.7-0.6-9,0-3.5,1.6c6,1.7,2.5,2.8-5.7,1.7c-8.8-1.2-10.4-0.4-3.3,1.8
		c5.7,1.7,5.7,1.7,1.1,2.1c-2.7,0.2-10.3,0-17-0.6c-14.4-1.2-16-0.3-3,1.7c9.8,1.5,10.1,2.5,0.5,1.7c-3.2-0.2-6.5,0.1-7.4,0.8
		s-2.4,0.8-3.1,0.3c-0.7-0.6-2.7-0.6-4.5-0.1c-2.6,0.7-2.7,1-0.5,1.3c1.6,0.2,2,1.3,1.2,2.5c-1,1.5-0.5,1.6,1.7,0.4
		c1.7-0.9,3.5-1.3,4-0.9c0.5,0.4-1.2,1.4-3.9,2.3c-3.4,1.2-5.2,1-5.9-0.7c-0.6-1.3-1.9-2.2-2.9-1.9c-1,0.3-1.3,1-0.7,1.5
		c1.6,1.3-19.9,9.9-26.4,9.6c-5.8-0.3-7.1,0.8-2.2,1.9c2.4,0.5,1.1,1.3-6.9,3.7c-9.1,2.8-9.8,2.8-7.4,0.1c2.3-2.7,2-2.7-2.9-0.5
		c-3,1.4-5,1.9-4.6,1.2c0.5-0.7-1.9-0.6-5.5,0.3c-3.6,0.9-6.1,2.1-5.6,2.5c0.5,0.4-1.1,0.9-3.5,1.2c-5.5,0.6-2.2,2.3,3.5,1.8
		c2.1-0.2,0.2,0.4-4.2,1.3c-4.5,0.9-9.3,2.4-10.6,3.3c-1.5,1.1,1.5,1,7.9-0.2c10.5-2,15.9-2,8.4,0.1c-2.3,0.6-4.1,1.8-4.1,2.5
		c0,0.7,1.1,1,2.4,0.7c1.6-0.4,1.4,0-0.5,1.4c-4.8,3.6,2.1,1.1,8.4-3c6-3.9,21.5-9.1,23.8-8c0.8,0.4-0.5,0.9-2.9,1.2
		s-4.3,1.1-4.3,1.8c0,0.8-2.3,1.7-5.8,2.2c-4.7,0.7-5.8,1.2-5.3,2.8c0.5,1.4-1.1,2.6-5.7,4.1c-11.4,3.8-9,4.5,2.8,0.7
		c12-3.8,21.6-5.2,16.2-2.3c-1.6,0.8-4.6,2.3-6.7,3.3s-0.9,0.6,2.8-0.8c3.7-1.4,11-3.7,16.2-5c7.7-2.1,9.2-2.8,8.2-4.2
		c-0.7-1-0.5-2,0.5-2.2c1-0.2,2.1,0.1,2.5,0.9c0.5,0.8,4.3-3.9,9.9-5.6c5-1.5,10.1-2.7,11.2-2.5c1.1,0.2,8.7-1.3,16.8-3.3
		c16-3.8,18-3.9,13.8-0.6c-2.2,1.7-2,1.8,1,0.2c8.8-4.5,15-6.6,13.6-4.7c-0.9,1.4,1.6,5.3,8.5,3.4c5.4-1.5,12.8,1.4,16.6,1.5
		c3.8,0.1,11.4-0.9,16.9-2c12.8-2.6,15.3-3.1,17.8-2.7c4.5,0.7,25-0.6,26.5-1.7c0.9-0.6,1.7-0.7,1.8,0c0,0.7,1.3,1.3,2.9,1.2
		c1.3,0,1.7-0.3,1.6-0.8c-0.3-1.4-5.9-4.2-10.2-4.4c-2.8-0.1-5.1-0.9-5-1.6c0.2-1.7-9.8-8.8-14.4-10.1c-2.6-0.7-3.5-0.5-4.1,0.9
		c-1.6,4-3.4,2.4-2.8-2.4c0.5-4.2,0.1-4.8-2.4-3.4c-1.7,0.9-3.7,1.2-4.5,0.6c-0.8-0.7-0.4-1,1-0.8s1.8-0.3,1-1.3
		c-0.6-0.9-2.3-1-3.7-0.2c-2.5,1.4-8.1-2.2-7.3-4.6c0.2-0.7-0.5-0.6-1.6,0.2s-3.5,1.1-5.2,0.6C454.9,224.6,454.2,224.5,454,224.8
		L454,224.8z M440.3,226.2c-1.1-0.2-2,0.3-1.9,1.1c0,0.7,1,1.4,2,1.5c1.1,0.2,2,3.9,1.9,3.2C442.4,231.3,441.4,226.3,440.3,226.2z
		 M279.6,277.2c-2.2,0.7-2.6,1.1-1.1,1.1c1.4,0,3.1-0.6,3.7-1.2C282.9,276.5,281.7,276.6,279.6,277.2z M302.9,273.5
		c-0.6,0.1-1.9,0.6-3.9,1.5c-3,1.4-7.7,3.2-10.4,3.9c-3,0.8-3.6,1.2-1.5,1c1.9-0.2,3.4,0.3,3.4,1.1c0,1.1,0.8,0.8,2.4-0.7
		c1.2-1.2,3.8-2.6,5.6-3.1s3.9-1.8,4.6-2.9C303.7,273.6,303.6,273.3,302.9,273.5L302.9,273.5z M341,268.6c2.3-0.8,3.6-0.9,3.6-0.3
		c0,0.7-1,1.7-2.3,2.1c-1.3,0.4-4.8,1.7-7.7,2.8c-5.4,2-7.3,1.7-3-0.4C335.5,270.8,338.7,269.4,341,268.6L341,268.6z M388.1,260.3
		c-1,0-3.4,0.8-6.9,2.4c-6.2,2.7-6.3,2.8-1.6,2.3c2.7-0.3,5.9-1.4,7.3-2.5C388.7,261,389.1,260.3,388.1,260.3z M401.7,260.2
		c-2.2,0.7-2.7,1.2-1.2,1.2c1.4,0,3.1-0.6,3.7-1.2C404.9,259.6,403.7,259.6,401.7,260.2z"/>
</g>
</svg>
