<?xml version="1.0" encoding="utf-8"?>
<!-- Generator: Adobe Illustrator 25.0.1, SVG Export Plug-In . SVG Version: 6.00 Build 0)  -->
<svg version="1.1" id="Layer_1" xmlns="http://www.w3.org/2000/svg" xmlns:xlink="http://www.w3.org/1999/xlink" x="0px" y="0px"
	 viewBox="0 0 792 612" style="enable-background:new 0 0 792 612;" xml:space="preserve">
<style type="text/css">
	.st0{fill:none;stroke:#000000;stroke-miterlimit:10;}
	.st1{fill:#1C75BC;}
</style>
<g id="liFHrA_1_">
	
		<image style="overflow:visible;" width="225" height="225" id="liFHrA_2_" xlink:href="C5FB2DD676A88780.jpg"  transform="matrix(-1 0 0 -1 -67.9875 410.1137)">
	</image>
</g>
<path class="st0" d="M-276,124.5c0,0-2.8-97.9,95-100.7c89.8-2.6,92.4,100.7,92.4,100.7H-276z"/>
<g>
	<path d="M-171.5,39.4c-2.5-0.1-4.9,0.2-7.4,0.5c-2.4,0.4-4.8,0.9-7.2,1.6c-4.7,1.4-9.3,3.2-13.7,5.4c-8.8,4.4-16.9,10.2-24.2,16.7
		c-7.3,6.6-13.9,13.9-19.9,21.7c-6,7.8-11.4,16-16.4,24.5l-2.8,4.8l1-5.4c1-5.4,2.4-10.7,4.1-15.9c1.7-5.2,3.7-10.3,6.1-15.2
		c4.8-9.8,10.9-19.1,19-26.6c4-3.8,8.6-6.9,13.5-9.4l1.8-0.9c0.6-0.3,1.3-0.5,1.9-0.8l1.9-0.8l1-0.4l1-0.3l3.9-1.2l4-0.8
		c5.4-0.9,10.9-1.2,16.3-0.6c2.7,0.1,5.4,0.7,8.1,1.1c1.3,0.2,2.7,0.6,4,0.9C-174,38.7-172.8,39.1-171.5,39.4z M-171.5,39.4
		c-1.3-0.3-2.7-0.6-4-0.9l-2-0.4c-0.3-0.1-0.6-0.1-1-0.2l-1-0.1c-2.7-0.3-5.4-0.8-8.1-0.9c-5.4-0.4-10.8,0-16.1,1l-3.9,0.9l-3.8,1.2
		l-1,0.3l-0.9,0.4l-1.9,0.8c-0.6,0.3-1.2,0.5-1.8,0.8l-1.8,1c-4.7,2.5-9.1,5.7-13,9.4c-7.8,7.4-13.8,16.5-18.4,26.2
		c-2.3,4.9-4.3,9.9-5.9,15c-1.7,5.1-3.1,10.4-4,15.6l-1.8-0.7c5-8.5,10.5-16.8,16.6-24.7c6.1-7.8,12.9-15.2,20.4-21.7
		c7.5-6.5,15.7-12.2,24.8-16.4c4.5-2.1,9.2-3.8,14-5C-181.4,39.8-176.4,39.1-171.5,39.4z"/>
</g>
<g>
	<g>
		<path class="st1" d="M290.6,350c-0.1-6.4,0.6-12.9,1.7-19.2c1.1-6.4,2.8-12.6,4.9-18.8c2.2-6.1,4.8-12.1,8.1-17.7
			c3.2-5.7,7.1-11,11.5-15.9c4.3-4.9,9.4-9.3,14.8-13c2.7-2,5.6-3.5,8.4-5.2l4.4-2.2c0.7-0.4,1.5-0.8,2.2-1.1l2.3-0.9
			c6-2.6,12.4-4.2,18.8-5.7l4.8-0.8c1.6-0.3,3.2-0.6,4.9-0.7l4.9-0.5c0.8-0.1,1.6-0.2,2.4-0.2l2.5-0.1l4.9-0.2
			c1.6,0,3.3,0.1,4.9,0.2l2.5,0.1c0.8,0,1.6,0.1,2.5,0.2l4.9,0.6c1.6,0.2,3.3,0.5,4.9,0.9c1.6,0.4,3.2,0.6,4.8,1.1l4.7,1.5l1.2,0.4
			c0.4,0.1,0.8,0.3,1.2,0.5l2.3,1l2.3,1c0.8,0.3,1.5,0.7,2.2,1.1c1.5,0.8,3,1.5,4.4,2.3l4.2,2.7c0.7,0.4,1.4,0.9,2,1.4l2,1.5
			c5.2,4.1,9.8,8.9,13.8,14.1c7.9,10.5,13.3,22.6,16.9,35c1.8,6.2,3.1,12.6,4,19c0.9,6.4,1.5,12.8,1.4,19.2
			c-0.2-3.2-0.6-6.4-1.1-9.6c-0.5-3.2-1-6.3-1.7-9.4c-1.3-6.3-2.9-12.4-5-18.5c-4.1-12-9.8-23.5-17.6-33.4c-4-4.9-8.5-9.2-13.4-13
			l-1.9-1.4c-0.6-0.5-1.2-0.9-1.9-1.3l-4-2.4c-1.4-0.7-2.8-1.4-4.2-2.1c-0.7-0.3-1.4-0.7-2.1-1l-2.2-0.9
			c-11.5-4.8-24.2-6.1-36.7-5.5l-2.4,0.1c-0.8,0-1.6,0.1-2.4,0.2l-4.7,0.5c-1.6,0.1-3.1,0.4-4.7,0.7l-4.7,0.8
			c-6.1,1.4-12.2,2.9-18,5.3l-2.2,0.8c-0.7,0.3-1.4,0.7-2.1,1l-4.2,2c-2.7,1.6-5.5,3-8.1,4.8c-5.2,3.5-10.1,7.5-14.4,12
			c-8.7,9.1-15.4,20-20.2,31.8c-2.4,5.9-4.3,12-5.8,18.2c-0.8,3.1-1.4,6.2-1.9,9.4C291.3,343.6,290.8,346.8,290.6,350z"/>
	</g>
	<g>
		<path class="st1" d="M306.2,335.8c4.5-8.4,9.9-16.4,15.8-24c5.9-7.5,12.5-14.6,19.8-20.8c3.7-3.1,7.5-6,11.5-8.7
			c4-2.6,8.2-4.9,12.6-7c4.4-2,9-3.5,13.6-4.7c4.7-1.1,9.5-1.7,14.3-1.9l-0.2,0.9c-9.8-3.3-20.6-4.2-30.9-2.4
			c-5.1,0.9-10.2,2.5-14.9,4.8c-4.7,2.3-9,5.3-13,8.7c-1,0.9-2,1.7-2.9,2.7l-2.7,2.9c-0.9,1-1.7,2-2.5,3l-1.2,1.5l-1.1,1.6
			c-0.7,1.1-1.5,2.1-2.2,3.2l-2,3.4l-1,1.7l-0.9,1.8l-1.8,3.5C311.8,315.4,308.6,325.5,306.2,335.8z M306.2,335.8
			c2.3-10.3,5.3-20.4,9.8-30l1.8-3.5l0.9-1.8l1-1.7l2-3.4c0.7-1.1,1.5-2.2,2.2-3.3l1.1-1.6l1.2-1.6c0.8-1,1.6-2.1,2.5-3.1l2.7-2.9
			c0.9-1,1.9-1.8,2.9-2.7c3.9-3.5,8.3-6.6,13.1-8.9c4.8-2.3,9.9-4,15.1-4.9c5.2-0.9,10.6-1.2,15.9-0.7c5.3,0.4,10.5,1.4,15.6,3.2
			l2.4,0.8l-2.5,0.1c-4.7,0.2-9.5,0.8-14.1,1.8c-4.6,1.1-9.1,2.7-13.5,4.6c-4.3,2-8.5,4.3-12.5,6.9c-4,2.6-7.8,5.5-11.5,8.5
			c-7.3,6.2-13.9,13.1-19.9,20.6C316.3,319.5,310.8,327.4,306.2,335.8z"/>
	</g>
</g>
</svg>
