<?xml version="1.0" encoding="utf-8"?>
<!-- Generator: Adobe Illustrator 25.0.1, SVG Export Plug-In . SVG Version: 6.00 Build 0)  -->
<svg version="1.1" id="Layer_1" xmlns="http://www.w3.org/2000/svg" xmlns:xlink="http://www.w3.org/1999/xlink" x="0px" y="0px"
	 viewBox="0 0 792 612" style="enable-background:new 0 0 792 612;" xml:space="preserve">
<style type="text/css">
	.st0{fill:#006838;}
</style>
<path class="st0" d="M406.9,575.6h3v-180v-360h-3v18h-15v-9h3v6h9v-15h-18h-1.5h-1.5v360v180h3v-33h15v9h-3v-6h-9v13.5v1.5v12h9
	v-1.5v-4.5h3v9h3v-12h-9v1.5v4.5h-3v-9h15V575.6z M385.9,71.6v-33h15v9h-3v-6h-9v13.5v1.5v12h9v-1.5v-4.5h3v9H385.9z M403.9,71.6
	v-12h-9v1.5v4.5h-3v-9h15v33h-15v-9h3v6h9V73.1V71.6z M385.9,107.6v-33h15v9h-3v-6h-9v13.5v1.5v12h9v-1.5v-4.5h3v9H385.9z
	 M403.9,107.6v-12h-9v1.5v4.5h-3v-9h15v33h-15v-9h3v6h9v-13.5V107.6z M385.9,143.6v-33h15v9h-3v-6h-9v13.5v1.5v12h9v-1.5v-4.5h3v9
	H385.9z M403.9,143.6v-12h-9v1.5v4.5h-3v-9h15v33h-15v-9h3v6h9v-13.5V143.6z M385.9,179.6v-33h15v9h-3v-6h-9v13.5v1.5v12h9v-1.5
	v-4.5h3v9H385.9z M403.9,179.6v-12h-9v1.5v4.5h-3v-9h15v33h-15v-9h3v6h9v-13.5V179.6z M385.9,215.6v-33h15v9h-3v-6h-9v13.5v1.5v12h9
	v-1.5v-4.5h3v9H385.9z M403.9,215.6v-12h-9v1.5v4.5h-3v-9h15v33h-15v-9h3v6h9v-13.5V215.6z M385.9,251.6v-33h15v9h-3v-6h-9v13.5v1.5
	v12h9v-1.5v-4.5h3v9H385.9z M403.9,251.6v-12h-9v1.5v4.5h-3v-9h15v33h-15v-9h3v6h9v-13.5V251.6z M385.9,287.6v-33h15v9h-3v-6h-9
	v13.5v1.5v12h9v-1.5v-4.5h3v9H385.9z M403.9,287.6v-12h-9v1.5v4.5h-3v-9h15v33h-15v-9h3v6h9v-13.5V287.6z M385.9,323.6v-33h15v9h-3
	v-6h-9v13.5v1.5v12h9v-1.5v-4.5h3v9H385.9z M403.9,323.6v-12h-9v1.5v4.5h-3v-9h15v33h-15v-9h3v6h9v-13.5V323.6z M385.9,359.6v-33h15
	v9h-3v-6h-9v13.5v1.5v12h9v-1.5v-4.5h3v9H385.9z M403.9,359.6v-12h-9v1.5v4.5h-3v-9h15v33h-15v-9h3v6h9v-13.5V359.6z M385.9,395.6
	v-33h15v9h-3v-6h-9v13.5v1.5v12h9v-1.5v-4.5h3v9H385.9z M403.9,383.6h-9v1.5v4.5h-3v-9h15v15v18h-15v-9h3v6h9v-15V383.6z
	 M385.9,431.6v-33h15v9h-3v-6h-9v13.5v1.5v12h9v-1.5v-4.5h3v9H385.9z M403.9,431.6v-12h-9v1.5v4.5h-3v-9h15v33h-15v-9h3v6h9v-13.5
	V431.6z M385.9,467.6v-33h15v9h-3v-6h-9v13.5v1.5v12h9v-1.5v-4.5h3v9H385.9z M403.9,467.6v-12h-9v1.5v4.5h-3v-9h15v33h-15v-9h3v6h9
	v-13.5V467.6z M385.9,503.6v-33h15v9h-3v-6h-9v13.5v1.5v12h9v-1.5v-4.5h3v9H385.9z M403.9,503.6v-12h-9v1.5v4.5h-3v-9h15v33h-15v-9
	h3v6h9v-13.5V503.6z M385.9,539.6v-33h15v9h-3v-6h-9v13.5v1.5v12h9v-1.5v-4.5h3v9H385.9z M391.9,557.6v-9h3v6h9v-13.5v-1.5v-12h-9
	v1.5v4.5h-3v-9h15v33H391.9z"/>
</svg>
