<?xml version="1.0" encoding="utf-8"?>
<!-- Generator: Adobe Illustrator 25.0.1, SVG Export Plug-In . SVG Version: 6.00 Build 0)  -->
<svg version="1.1" id="Layer_1" xmlns="http://www.w3.org/2000/svg" xmlns:xlink="http://www.w3.org/1999/xlink" x="0px" y="0px"
	 viewBox="0 0 160.5 21.6" style="enable-background:new 0 0 160.5 21.6;" xml:space="preserve">
<style type="text/css">
	.st0{fill:#3B3B3B;}
</style>
<path class="st0" d="M407.2-612.5v-6h6v-18h4.5h1.5v-3h-1.5h-7.5v18h-6v6h-9v-3h6v-6h6v-15h-25.5h-7.5v18h-6v6h-9v-3h6v-6h6v-15
	h-25.5h-7.5v18h-6v6h-9v-3h6v-6h6v-15h-25.5h-7.5v18h-6v6h-9v-3h6v-6h6v-15h-25.5h-7.5v18h-6v6h-9v-3h6v-6h6v-15h-24h-9v18h-6v6h-9
	v-3h6v-6h6v-15h-25.5h-7.5v18h-6v6h-9v-3h6v-6h6v-15h-25.5h-7.5v18h-6v6h-9v-3h6v-6h6v-15h-25.5h-7.5v18h-6v6h-9v-3h6v-6h6v-15H93.7
	h-7.5v18h-6v6h-9v-3h6v-6h6v-15H57.7h-7.5v18h-6v6h-9v-3h6v-6h6v-15H21.7h-7.5v18h-6v6h-9v-3h6v-6h6v-15h-25.5h-7.5v18h-6v6h-9v-3h6
	v-6h6v-15h-25.5h-7.5v18h-6v6h-9v-3h6v-6h6v-15h-25.5h-7.5v18h-6v6h-9v-3h6v-6h6v-15h-24v3h21v9h-3v-6h-15v6h-3v3h6v-6h9v3h-6v6h-6
	v15h25.5h7.5v-18h6v-6h9v3h-6v6h-6v15h25.5h7.5v-18h6v-6h9v3h-6v6h-6v15h25.5h7.5v-18h6v-6h9v3h-6v6h-6v15h25.5h7.5v-18h6v-6h9v3h-6
	v6h-6v15h25.5h7.5v-18h6v-6h9v3h-6v6h-6v15h25.5h7.5v-18h6v-6h9v3h-6v6h-6v15h25.5h7.5v-18h6v-6h9v3h-6v6h-6v15h25.5h7.5v-18h6v-6h9
	v3h-6v6h-6v15h25.5h7.5v-18h6v-6h9v3h-6v6h-6v15h25.5h7.5v-18h6v-6h9v3h-6v6h-6v15h25.5h7.5v-18h6v-6h9v3h-6v6h-6v15h25.5h7.5v-18h6
	v-6h9v3h-6v6h-6v15h25.5h7.5v-18h6v-6h9v3h-6v6h-6v15h25.5h7.5v-18h6v-6h9v3h-6v6h-6v15h25.5h7.5v-18v-3h-3v18h-4.5h-22.5v-9h3v6
	H407.2z M-108.8-624.5h3v3h-3V-624.5z M-81.8-633.5v6h-6v18h-4.5h-22.5v-9h3v6h15v-6h6v-18h4.5h22.5v9h-3v-6H-81.8z M-72.8-624.5h3
	v3h-3V-624.5z M-45.8-633.5v6h-6v18h-4.5h-22.5v-9h3v6h15v-6h6v-18h4.5h22.5v9h-3v-6H-45.8z M-36.8-624.5h3v3h-3V-624.5z
	 M-9.8-633.5v6h-6v18h-4.5h-22.5v-9h3v6h15v-6h6v-18h4.5H8.2v9h-3v-6H-9.8z M-0.8-624.5h3v3h-3V-624.5z M26.2-633.5v6h-6v18h-4.5
	H-6.8v-9h3v6h15v-6h6v-18h4.5h22.5v9h-3v-6H26.2z M35.2-624.5h3v3h-3V-624.5z M62.2-633.5v6h-6v18h-4.5H29.2v-9h3v6h15v-6h6v-18h4.5
	h22.5v9h-3v-6H62.2z M71.2-624.5h3v3h-3V-624.5z M98.2-633.5v6h-6v18h-4.5H65.2v-9h3v6h15v-6h6v-18h4.5h22.5v9h-3v-6H98.2z
	 M107.2-624.5h3v3h-3V-624.5z M134.2-633.5v6h-6v18h-4.5h-22.5v-9h3v6h15v-6h6v-18h4.5h22.5v9h-3v-6H134.2z M143.2-624.5h3v3h-3
	V-624.5z M170.2-633.5v6h-6v18h-4.5h-22.5v-9h3v6h15v-6h6v-18h4.5h22.5v9h-3v-6H170.2z M179.2-624.5h3v3h-3V-624.5z M206.2-633.5v6
	h-6v18h-4.5h-22.5v-9h3v6h15v-6h6v-18h4.5h22.5v9h-3v-6H206.2z M215.2-624.5h3v3h-3V-624.5z M242.2-633.5v6h-3h-3v18h-4.5h-22.5v-9
	h3v6h15v-6h6v-18h6h21v9h-3v-6H242.2z M251.2-624.5h3v3h-3V-624.5z M278.2-633.5v6h-6v18h-4.5h-22.5v-9h3v6h15v-6h6v-18h4.5h22.5v9
	h-3v-6H278.2z M287.2-624.5h3v3h-3V-624.5z M314.2-633.5v6h-6v18h-4.5h-22.5v-9h3v6h15v-6h6v-18h4.5h22.5v9h-3v-6H314.2z
	 M323.2-624.5h3v3h-3V-624.5z M350.2-633.5v6h-6v18h-4.5h-22.5v-9h3v6h15v-6h6v-18h4.5h22.5v9h-3v-6H350.2z M359.2-624.5h3v3h-3
	V-624.5z M386.2-633.5v6h-6v18h-4.5h-22.5v-9h3v6h15v-6h6v-18h4.5h22.5v9h-3v-6H386.2z M395.2-624.5h3v3h-3V-624.5z"/>
<path class="st0" d="M410.2-573.1v-6h6v-6h3v-3h-18v6h-3v-6h-27v6h-3v-6h-27v6h-3v-6h-27v6h-3v-6h-27v6h-3v-6h-27v6h-3v-6h-9h-18v6
	h-3v-6h-27v6h-3v-6h-27v6h-3v-6h-27v6h-3v-6h-27v6h-3v-6h-27v6h-3v-6h-27v6h-3v-6h-27v6h-3v-6h-27v6h-3v-6h-27v6h-3v-6h-27v6h-3v-6
	h-27v6h-3v-6h-9v3h6v3h-6v6v3v6h27v-6h3v6h27v-6h3v6h27v-6h3v6h27v-6h3v6h27v-6h3v6h27v-6h3v6h27v-6h3v6h27v-6h3v6h27v-6h3v6h27v-6
	h3v6h27v-6h3v6h13.5h1.5h12v-6h3v6h27v-6h3v6h27v-6h3v6h27v-6h3v6h27v-6h3v6h27v-6h3v6h27v-6h3v-3h-6v6h-9v-3H410.2z M-117.8-579.1
	h3v3h-3V-579.1z M-108.8-570.1h-9v-3h6v-6h6v-6h9v3h-6v6h-6V-570.1z M-90.8-576.1h-6v6h-9v-3h6v-6h6v-6h9v3h-6V-576.1z M-84.8-579.1
	v3h-3v-3H-84.8z M-78.8-570.1h-9v-3h6v-6h6v-6h9v3h-6v6h-6V-570.1z M-60.8-576.1h-6v6h-9v-3h6v-6h6v-6h9v3h-6V-576.1z M-54.8-579.1
	v3h-3v-3H-54.8z M-48.8-570.1h-9v-3h6v-6h6v-6h9v3h-6v6h-6V-570.1z M-30.8-576.1h-6v6h-9v-3h6v-6h6v-6h9v3h-6V-576.1z M-24.8-579.1
	v3h-3v-3H-24.8z M-18.8-570.1h-9v-3h6v-6h6v-6h9v3h-6v6h-6V-570.1z M-0.8-576.1h-6v6h-9v-3h6v-6h6v-6h9v3h-6V-576.1z M5.2-579.1v3
	h-3v-3H5.2z M11.2-570.1h-9v-3h6v-6h6v-6h9v3h-6v6h-6V-570.1z M29.2-576.1h-6v6h-9v-3h6v-6h6v-6h9v3h-6V-576.1z M35.2-579.1v3h-3v-3
	H35.2z M41.2-570.1h-9v-3h6v-6h6v-6h9v3h-6v6h-6V-570.1z M59.2-576.1h-6v6h-9v-3h6v-6h6v-6h9v3h-6V-576.1z M65.2-579.1v3h-3v-3H65.2
	z M71.2-570.1h-9v-3h6v-6h6v-6h9v3h-6v6h-6V-570.1z M89.2-576.1h-6v6h-9v-3h6v-6h6v-6h9v3h-6V-576.1z M95.2-579.1v3h-3v-3H95.2z
	 M101.2-570.1h-9v-3h6v-6h6v-6h9v3h-6v6h-6V-570.1z M119.2-576.1h-6v6h-9v-3h6v-6h6v-6h9v3h-6V-576.1z M125.2-579.1v3h-3v-3H125.2z
	 M131.2-570.1h-9v-3h6v-6h6v-6h9v3h-6v6h-6V-570.1z M149.2-576.1h-6v6h-9v-3h6v-6h6v-6h9v3h-6V-576.1z M155.2-579.1v3h-3v-3H155.2z
	 M161.2-570.1h-9v-3h6v-6h6v-6h9v3h-6v6h-6V-570.1z M179.2-576.1h-6v6h-9v-3h6v-6h6v-6h9v3h-6V-576.1z M185.2-579.1v3h-3v-3H185.2z
	 M191.2-570.1h-9v-3h6v-6h6v-6h9v3h-6v6h-6V-570.1z M209.2-576.1h-6v6h-9v-3h6v-6h6v-6h9v3h-6V-576.1z M215.2-579.1v3h-3v-3H215.2z
	 M221.2-576.1v6h-9v-3h6v-6h6v-6h9v3h-6v6H221.2z M239.2-576.1h-6v6h-9v-3h6v-6h6v-6h3h6v3h-6V-576.1z M245.2-579.1v3h-3v-3H245.2z
	 M251.2-570.1h-9v-3h6v-6h6v-6h9v3h-6v6h-6V-570.1z M269.2-576.1h-6v6h-9v-3h6v-6h6v-6h9v3h-6V-576.1z M275.2-579.1v3h-3v-3H275.2z
	 M281.2-570.1h-9v-3h6v-6h6v-6h9v3h-6v6h-6V-570.1z M299.2-576.1h-6v6h-9v-3h6v-6h6v-6h9v3h-6V-576.1z M305.2-579.1v3h-3v-3H305.2z
	 M311.2-570.1h-9v-3h6v-6h6v-6h9v3h-6v6h-6V-570.1z M329.2-576.1h-6v6h-9v-3h6v-6h6v-6h9v3h-6V-576.1z M335.2-579.1v3h-3v-3H335.2z
	 M341.2-570.1h-9v-3h6v-6h6v-6h9v3h-6v6h-6V-570.1z M359.2-576.1h-6v6h-9v-3h6v-6h6v-6h9v3h-6V-576.1z M365.2-579.1v3h-3v-3H365.2z
	 M371.2-570.1h-9v-3h6v-6h6v-6h9v3h-6v6h-6V-570.1z M389.2-576.1h-6v6h-9v-3h6v-6h6v-6h9v3h-6V-576.1z M395.2-579.1v3h-3v-3H395.2z
	 M401.2-576.1v6h-9v-3h6v-6h6v-6h9v3h-6v6H401.2z"/>
<g>
	<polygon points="7.5,15 10.5,15 10.5,0 -0.2,0 -0.2,3 7.5,3 	"/>
	<polygon points="19.5,9 22.5,9 22.5,0 13.5,0 13.5,18 4.5,18 4.5,6 1.5,6 1.5,21 16.5,21 16.5,3 19.5,3 	"/>
	<polygon points="37.5,15 40.5,15 40.5,0 25.5,0 25.5,18 22.5,18 22.5,12 19.5,12 19.5,21 28.5,21 28.5,3 37.5,3 	"/>
	<polygon points="49.5,9 52.5,9 52.5,0 43.5,0 43.5,18 34.5,18 34.5,6 31.5,6 31.5,21 46.5,21 46.5,3 49.5,3 	"/>
	<polygon points="67.5,15 70.5,15 70.5,0 55.5,0 55.5,18 52.5,18 52.5,12 49.5,12 49.5,21 58.5,21 58.5,3 67.5,3 	"/>
	<polygon points="79.5,9 82.5,9 82.5,0 73.5,0 73.5,18 64.5,18 64.5,6 61.5,6 61.5,21 76.5,21 76.5,3 79.5,3 	"/>
	<polygon points="97.5,15 100.5,15 100.5,0 85.5,0 85.5,18 82.5,18 82.5,12 79.5,12 79.5,21 88.5,21 88.5,3 97.5,3 	"/>
	<polygon points="109.5,9 112.5,9 112.5,0 103.5,0 103.5,18 94.5,18 94.5,6 91.5,6 91.5,21 106.5,21 106.5,3 109.5,3 	"/>
	<polygon points="127.5,15 130.5,15 130.5,0 115.5,0 115.5,18 112.5,18 112.5,12 109.5,12 109.5,21 118.5,21 118.5,3 127.5,3 	"/>
	<polygon points="139.5,9 142.5,9 142.5,0 133.5,0 133.5,18 124.5,18 124.5,6 121.5,6 121.5,21 136.5,21 136.5,3 139.5,3 	"/>
	<polygon points="157.5,15 160.5,15 160.5,0 145.5,0 145.5,18 142.5,18 142.5,12 139.5,12 139.5,21 148.5,21 148.5,3 157.5,3 	"/>
	<polygon points="169.5,9 172.5,9 172.5,0 163.5,0 163.5,18 154.5,18 154.5,6 151.5,6 151.5,21 166.5,21 166.5,3 169.5,3 	"/>
	<polygon points="187.5,15 190.5,15 190.5,0 175.5,0 175.5,18 172.5,18 172.5,12 169.5,12 169.5,21 178.5,21 178.5,3 187.5,3 	"/>
	<polygon points="199.5,9 202.5,9 202.5,0 193.5,0 193.5,18 184.5,18 184.5,6 181.5,6 181.5,21 196.5,21 196.5,3 199.5,3 	"/>
	<polygon points="217.5,15 220.5,15 220.5,0 205.5,0 205.5,18 202.5,18 202.5,12 199.5,12 199.5,21 208.5,21 208.5,3 217.5,3 	"/>
	<polygon points="229.5,9 232.5,9 232.5,0 223.5,0 223.5,18 214.5,18 214.5,6 211.5,6 211.5,21 226.5,21 226.5,3 229.5,3 	"/>
	<polygon points="247.5,15 250.5,15 250.5,0 235.5,0 235.5,18 232.5,18 232.5,12 229.5,12 229.5,21 238.5,21 238.5,3 247.5,3 	"/>
	<polygon points="259.5,9 262.5,9 262.5,0 253.5,0 253.5,18 244.5,18 244.5,6 241.5,6 241.5,21 256.5,21 256.5,3 259.5,3 	"/>
	<polygon points="277.5,15 280.5,15 280.5,0 265.5,0 265.5,18 262.5,18 262.5,12 259.5,12 259.5,21 268.5,21 268.5,3 277.5,3 	"/>
	<polygon points="274.6,5.9 271.6,5.9 271.6,20.9 282.3,20.9 282.3,17.9 274.6,17.9 	"/>
</g>
</svg>
