<?xml version="1.0" encoding="utf-8"?>
<!-- Generator: Adobe Illustrator 25.0.1, SVG Export Plug-In . SVG Version: 6.00 Build 0)  -->
<svg version="1.1" id="Layer_1" xmlns="http://www.w3.org/2000/svg" xmlns:xlink="http://www.w3.org/1999/xlink" x="0px" y="0px"
	 viewBox="0 0 792 612" style="enable-background:new 0 0 792 612;" xml:space="preserve">
<style type="text/css">
	.st0{fill-rule:evenodd;clip-rule:evenodd;fill:#908D34;}
	.st1{fill-rule:evenodd;clip-rule:evenodd;fill:#626028;}
</style>
<g>
	<polygon id="polygon4215" class="st0" points="1039.6,362.3 1032.9,362.3 1032.9,389.1 1012.7,389.1 1012.7,348.9 972.4,348.9 
		972.4,328.8 999.4,328.8 999.4,322.1 972.5,322.1 972.5,301.9 999.4,301.9 999.4,295.3 965.8,295.3 965.8,348.9 918.9,348.9 
		918.9,328.8 945.7,328.8 945.7,322.1 918.9,322.1 918.9,301.9 945.7,301.9 945.7,295.3 912.2,295.3 912.2,348.9 865.3,348.9 
		865.3,328.8 892.1,328.8 892.1,322.1 865.3,322.1 865.3,301.9 892.1,301.9 892.1,295.3 858.6,295.3 858.6,348.9 851.8,348.9 
		851.8,355.6 1006.1,355.6 1006.1,503.1 1066.4,503.1 1066.4,469.6 1059.7,469.6 1059.7,496.4 1039.6,496.4 1039.6,469.6 
		1032.9,469.6 1032.9,496.4 1012.7,496.4 1012.7,449.5 1066.4,449.5 1066.4,416 1059.7,416 1059.7,442.8 1039.6,442.8 1039.6,416 
		1032.9,416 1032.9,442.8 1012.7,442.8 1012.7,395.9 1066.4,395.9 1066.4,362.3 1059.7,362.3 1059.7,389.1 1039.6,389.1 	"/>
	<polygon id="polygon4217" class="st0" points="1026.2,382.4 1026.2,355.6 1046.3,355.6 1046.3,382.4 1053,382.4 1053,355.6 
		1073.1,355.6 1073.1,402.5 1019.5,402.5 1019.5,436.1 1026.2,436.1 1026.2,409.2 1046.3,409.2 1046.3,436.1 1053,436.1 1053,409.2 
		1073.1,409.2 1073.1,456.2 1019.5,456.2 1019.5,489.7 1026.2,489.7 1026.2,462.9 1046.3,462.9 1046.3,489.7 1053,489.7 1053,462.9 
		1073.1,462.9 1073.1,503.1 1079.8,503.1 1079.8,281.8 851.8,281.8 851.8,288.6 898.8,288.6 898.8,308.7 872,308.7 872,315.4 
		898.8,315.4 898.8,335.5 872,335.5 872,342.2 905.5,342.2 905.5,288.6 952.4,288.6 952.4,308.7 925.6,308.7 925.6,315.4 
		952.4,315.4 952.4,335.5 925.6,335.5 925.6,342.2 959.1,342.2 959.1,288.6 1006.1,288.6 1006.1,308.7 979.3,308.7 979.3,315.4 
		1006.1,315.4 1006.1,335.5 979.3,335.5 979.3,342.2 1012.7,342.2 1012.7,288.6 1073.1,288.6 1073.1,348.9 1019.5,348.9 
		1019.5,382.4 	"/>
	<polygon id="polygon4219" class="st0" points="1053,295.3 1019.5,295.3 1019.5,342.2 1026.2,342.2 1026.2,328.8 1053,328.8 
		1053,322.1 1026.2,322.1 1026.2,301.9 1053,301.9 	"/>
	<polygon id="polygon4221" class="st0" points="1059.7,335.5 1032.9,335.5 1032.9,342.2 1066.4,342.2 1066.4,295.3 1059.7,295.3 
		1059.7,308.7 1032.9,308.7 1032.9,315.4 1059.7,315.4 	"/>
</g>
<g>
	<polygon id="polygon4223" class="st0" points="1458.7,229.1 1472.1,229.1 1472.1,262.6 1371.6,262.6 1371.6,222.3 1351.4,222.3 
		1351.4,229.1 1364.8,229.1 1364.8,262.6 1264.3,262.6 1264.3,162 1297.8,162 1297.8,175.4 1304.5,175.4 1304.5,155.3 1264.3,155.3 
		1264.3,54.7 1297.8,54.7 1297.8,68.1 1304.5,68.1 1304.5,48 1257.6,48 1257.6,269.3 1478.9,269.3 1478.9,222.3 1458.7,222.3 	"/>
	<path id="path4225" class="st0" d="M1271,168.7v87.2h87.2v-20.1h-6.7v13.4h-33.5V209h-40.2v-33.5h13.4v-6.7L1271,168.7L1271,168.7z
		 M1277.7,215.6h33.5v33.5h-33.5V215.6z"/>
	<polygon id="polygon4227" class="st0" points="1284.4,182.1 1284.4,202.2 1324.6,202.2 1324.6,242.5 1344.7,242.5 1344.7,235.7 
		1331.3,235.7 1331.3,202.2 1431.9,202.2 1431.9,242.5 1452,242.5 1452,235.7 1438.6,235.7 1438.6,202.2 1478.9,202.2 1478.9,195.5 
		1331.3,195.5 1331.3,48 1324.6,48 1324.6,88.2 1291.1,88.2 1291.1,74.8 1284.4,74.8 1284.4,94.9 1324.6,94.9 1324.6,195.5 
		1291.1,195.5 1291.1,182.1 	"/>
	<path id="path4229" class="st0" d="M1311.2,182.1h-13.4v6.7h20.1v-87.2h-40.2V68.1h13.4v-6.7H1271v87.2h40.2L1311.2,182.1z
		 M1311.2,141.9h-33.5v-33.5h33.5V141.9z"/>
	<polygon id="polygon4231" class="st0" points="1297.8,81.6 1317.9,81.6 1317.9,48 1311.2,48 1311.2,74.8 1297.8,74.8 	"/>
	<path id="path4233" class="st0" d="M1425.2,209h-87.2v20.1h6.7v-13.4h33.5v40.2h87.2v-20.1h-6.7v13.4h-33.5V209z M1385,249.2v-33.5
		h33.5v33.5H1385z"/>
	<polygon id="polygon4235" class="st0" points="1445.3,229.1 1452,229.1 1452,215.6 1478.9,215.6 1478.9,209 1445.3,209 	"/>
	<polygon id="polygon4237" class="st0" points="1411.8,235.7 1405.1,235.7 1405.1,242.5 1411.8,242.5 	"/>
	<polygon id="polygon4239" class="st0" points="1411.8,222.3 1405.1,222.3 1405.1,229.1 1411.8,229.1 	"/>
	<polygon id="polygon4241" class="st0" points="1398.4,222.3 1391.7,222.3 1391.7,229.1 1398.4,229.1 	"/>
	<polygon id="polygon4243" class="st0" points="1398.4,235.7 1391.7,235.7 1391.7,242.5 1398.4,242.5 	"/>
	<polygon id="polygon4245" class="st0" points="1291.1,242.5 1291.1,235.7 1284.4,235.7 1284.4,242.5 	"/>
	<polygon id="polygon4247" class="st0" points="1304.5,242.5 1304.5,235.7 1297.8,235.7 1297.8,242.5 	"/>
	<polygon id="polygon4249" class="st0" points="1304.5,229.1 1304.5,222.3 1297.8,222.3 1297.8,229.1 	"/>
	<polygon id="polygon4251" class="st0" points="1291.1,222.3 1284.4,222.3 1284.4,229.1 1291.1,229.1 	"/>
	<polygon id="polygon4253" class="st0" points="1291.1,115 1284.4,115 1284.4,121.8 1291.1,121.8 	"/>
	<polygon id="polygon4255" class="st0" points="1291.1,128.5 1284.4,128.5 1284.4,135.2 1291.1,135.2 	"/>
	<polygon id="polygon4257" class="st0" points="1304.5,128.5 1297.8,128.5 1297.8,135.2 1304.5,135.2 	"/>
	<polygon id="polygon4259" class="st0" points="1304.5,115 1297.8,115 1297.8,121.8 1304.5,121.8 	"/>
</g>
<g>
	<path id="path4261" class="st0" d="M504.7,173.4v60.3h-53.6v47h33.5v-20.1h-6.7V274h-20.1v-33.5h47v60.3h-53.6v47h33.5v-20.1H478
		V341h-20.1v-33.5h47v60.3h-53.6v53.6h-60.3v-47h33.5v20.1H411v6.7h20.1v-33.5h-47v53.6h-60.3v-47h33.5v20.1h-13.4v6.7H364v-33.5
		h-47v53.6h-60.3v-47h33.5v20.1h-13.4v6.7H297v-33.5h-47v53.6h-6.7v6.7h268.2V159.8h-6.7v6.7h-53.6v47h33.5v-20.1h-6.7v13.4h-20.1
		v-33.5h47L504.7,173.4z M457.8,374.5h47v47h-47V374.5z"/>
	<polygon id="polygon4263" class="st0" points="404.1,387.9 417.6,387.9 417.6,381.2 397.5,381.2 397.5,414.7 444.4,414.7 
		444.4,361.1 498.1,361.1 498.1,314.1 464.5,314.1 464.5,334.3 471.2,334.3 471.2,320.9 491.3,320.9 491.3,354.4 444.4,354.4 
		444.4,294 498.1,294 498.1,247.1 464.5,247.1 464.5,267.2 471.2,267.2 471.2,253.8 491.3,253.8 491.3,287.3 444.4,287.3 444.4,227 
		498.1,227 498.1,180.1 464.5,180.1 464.5,200.2 471.2,200.2 471.2,186.7 491.3,186.7 491.3,220.3 444.4,220.3 444.4,159.9 
		437.7,159.9 437.7,354.4 243.2,354.4 243.2,361.1 303.6,361.1 303.6,408 270.1,408 270.1,387.9 283.5,387.9 283.5,381.2 
		263.3,381.2 263.3,414.7 310.3,414.7 310.3,361.1 370.6,361.1 370.6,408 337.1,408 337.1,387.9 350.5,387.9 350.5,381.2 
		330.4,381.2 330.4,414.7 377.4,414.7 377.4,361.1 437.7,361.1 437.7,408 404.1,408 	"/>
	<path id="path4265" class="st0" d="M498.1,381.2h-33.5v33.5h33.5V381.2z M471.3,387.9h20.1V408h-20.1V387.9z"/>
	<polygon id="polygon4267" class="st0" points="484.6,394.6 477.9,394.6 477.9,401.3 484.6,401.3 	"/>
</g>
<g>
	<polygon id="polygon4185" class="st0" points="1405.9,-66.6 1245,-66.6 1245,-227.5 1238.3,-227.5 1238.3,-59.9 1405.9,-59.9 	"/>
	<polygon id="polygon4187" class="st0" points="1251.8,-80 1251.8,-73.3 1258.4,-73.3 1258.4,-80 	"/>
	<polygon id="polygon4189" class="st0" points="1271.9,-73.3 1271.9,-80 1265.1,-80 1265.1,-73.3 	"/>
	<polygon id="polygon4191" class="st0" points="1271.9,-93.4 1265.1,-93.4 1265.1,-86.7 1271.9,-86.7 	"/>
	<polygon id="polygon4193" class="st0" points="1258.4,-93.4 1251.8,-93.4 1251.8,-86.7 1258.4,-86.7 	"/>
	<polygon id="polygon4195" class="st0" points="1278.5,-73.3 1298.7,-73.3 1298.7,-80 1285.2,-80 1285.2,-86.7 1298.7,-86.7 
		1298.7,-106.8 1285.2,-106.8 1285.2,-120.2 1265.1,-120.2 1265.1,-106.8 1258.4,-106.8 1258.4,-120.2 1251.8,-120.2 1251.8,-100.1 
		1271.9,-100.1 1271.9,-113.5 1278.5,-113.5 1278.5,-100.1 1292,-100.1 1292,-93.4 1278.5,-93.4 	"/>
	<polygon id="polygon4197" class="st0" points="1271.9,-147 1251.8,-147 1251.8,-126.9 1258.4,-126.9 1258.4,-140.3 1265.1,-140.3 
		1265.1,-126.9 1285.2,-126.9 1285.2,-147 1278.5,-147 1278.5,-133.6 1271.9,-133.6 	"/>
	<polygon id="polygon4199" class="st0" points="1285.2,-173.8 1265.1,-173.8 1265.1,-160.4 1258.4,-160.4 1258.4,-173.8 
		1251.8,-173.8 1251.8,-153.7 1271.9,-153.7 1271.9,-167.2 1278.5,-167.2 1278.5,-153.7 1285.2,-153.7 	"/>
	<polygon id="polygon4201" class="st0" points="1271.9,-200.7 1251.8,-200.7 1251.8,-180.6 1258.4,-180.6 1258.4,-193.9 
		1265.1,-193.9 1265.1,-180.6 1285.2,-180.6 1285.2,-200.7 1278.5,-200.7 1278.5,-187.3 1271.9,-187.3 	"/>
	<polygon id="polygon4203" class="st0" points="1285.2,-227.5 1265.1,-227.5 1265.1,-214.1 1258.4,-214.1 1258.4,-227.5 
		1251.8,-227.5 1251.8,-207.4 1271.9,-207.4 1271.9,-220.8 1278.5,-220.8 1278.5,-207.4 1285.2,-207.4 	"/>
	<polygon id="polygon4205" class="st0" points="1292,-227.5 1292,-113.5 1405.9,-113.5 1405.9,-120.2 1298.7,-120.2 1298.7,-227.5 	
		"/>
	<polygon id="polygon4207" class="st0" points="1325.5,-73.3 1325.5,-93.4 1312.1,-93.4 1312.1,-100.1 1325.5,-100.1 1325.5,-106.8 
		1305.4,-106.8 1305.4,-86.7 1318.8,-86.7 1318.8,-80 1305.4,-80 1305.4,-73.3 	"/>
	<polygon id="polygon4209" class="st0" points="1352.3,-86.7 1352.3,-106.8 1332.2,-106.8 1332.2,-100.1 1345.6,-100.1 
		1345.6,-93.4 1332.2,-93.4 1332.2,-73.3 1352.3,-73.3 1352.3,-80 1338.9,-80 1338.9,-86.7 	"/>
	<polygon id="polygon4211" class="st0" points="1379.1,-73.3 1379.1,-93.4 1365.7,-93.4 1365.7,-100.1 1379.1,-100.1 1379.1,-106.8 
		1359,-106.8 1359,-86.7 1372.4,-86.7 1372.4,-80 1359,-80 1359,-73.3 	"/>
	<polygon id="polygon4213" class="st0" points="1405.9,-86.7 1405.9,-106.8 1385.8,-106.8 1385.8,-100.1 1399.2,-100.1 
		1399.2,-93.4 1385.8,-93.4 1385.8,-73.3 1405.9,-73.3 1405.9,-80 1392.5,-80 1392.5,-86.7 	"/>
</g>
<g>
	<path id="path3843" class="st1" d="M897.2-208.6v-64.6h64.6v35.9h-7.2v-28.8h-50.3v50.3H933v7.2H897.2L897.2-208.6z M911.5-223
		v-35.9h35.9v28.8H969v-43.1h64.6v35.9h-14.4v7.2h21.5v-43.1h64.6v35.9h-14.4v7.2h21.5v-43.1h14.4v-7.2h-237v237h7.2v-14.4h43.1
		v-21.5H933v14.4h-35.9v-64.6h43.1v-21.5H933v14.4h-35.9v-64.6h43.1v-21.5h-28.8L911.5-223z"/>
	<path id="path3845" class="st1" d="M940.3-251.7h-21.5v21.5h21.5V-251.7z M933.1-237.3h-7.2v-7.2h7.2V-237.3z"/>
	<polygon id="polygon3847" class="st1" points="983.3,-258.9 1019.3,-258.9 1019.3,-244.5 1026.5,-244.5 1026.5,-266.1 
		976.2,-266.1 976.2,-223 947.4,-223 947.4,-194.2 904.3,-194.2 904.3,-143.9 925.9,-143.9 925.9,-151.2 911.5,-151.2 911.5,-187.1 
		954.6,-187.1 954.6,-215.8 983.3,-215.8 	"/>
	<polygon id="polygon3849" class="st1" points="990.6,-208.6 961.8,-208.6 961.8,-179.9 918.7,-179.9 918.7,-158.3 925.9,-158.3 
		925.9,-172.7 961.8,-172.7 961.8,-108.1 918.7,-108.1 918.7,-86.5 925.9,-86.5 925.9,-100.9 961.8,-100.9 961.8,-43.4 969,-43.4 
		969,-201.4 1127,-201.4 1127,-208.6 1069.6,-208.6 1069.6,-244.5 1083.9,-244.5 1083.9,-251.7 1062.3,-251.7 1062.3,-208.6 
		997.7,-208.6 997.7,-244.5 1012.1,-244.5 1012.1,-251.7 990.6,-251.7 	"/>
	<polygon id="polygon3851" class="st1" points="911.5,-79.3 911.5,-115.2 954.6,-115.2 954.6,-165.5 933.1,-165.5 933.1,-158.3 
		947.4,-158.3 947.4,-122.4 904.3,-122.4 904.3,-72.1 925.9,-72.1 925.9,-79.3 	"/>
	<polygon id="polygon3853" class="st1" points="904.3,-43.4 954.6,-43.4 954.6,-93.7 933.1,-93.7 933.1,-86.5 947.4,-86.5 
		947.4,-50.6 904.3,-50.6 	"/>
	<polygon id="polygon3855" class="st1" points="1012.1,-223 1012.1,-237.3 1004.9,-237.3 1004.9,-215.8 1055.2,-215.8 
		1055.2,-258.9 1091.1,-258.9 1091.1,-244.5 1098.3,-244.5 1098.3,-266.1 1048,-266.1 1048,-223 	"/>
	<polygon id="polygon3857" class="st1" points="1083.9,-223 1083.9,-237.3 1076.7,-237.3 1076.7,-215.8 1127,-215.8 1127,-266.1 
		1119.8,-266.1 1119.8,-223 	"/>
</g>
<g>
	<path id="path3859" class="st1" d="M1340.7,386.7v64.6h35.9v-7.2h-28.7v-50.3h21.5v28.7h7.2v-28.7h21.5v57.5h35.9v-7.2h-28.8v-50.3
		h21.5v28.7h7.2v-28.7h21.5v57.5h35.9v-7.2h-28.7v-50.3h21.5v28.7h7.2v-28.7h21.5v28.7h21.5v-14.4h21.5v21.5h-14.4v21.5h28.8v21.5
		h-28.8v7.2h28.8v21.5h-50.3v-28.7h-7.2v35.9h57.5v21.5h-28.8v7.2h28.8V559h-50.3v-28.8h-7.2v35.9h57.5v21.5h-28.8v7.2h28.8v21.5
		h-50.3v-28.8h-7.2v35.9h64.6v-237h-237L1340.7,386.7z M1520.2,415.4v-21.5h50.3v50.3H1549V437h14.4v-35.9h-35.9v14.4L1520.2,415.4
		L1520.2,415.4z"/>
	<polygon id="polygon3861" class="st1" points="1534.6,544.7 1534.6,523.1 1563.4,523.1 1563.4,515.9 1505.9,515.9 1505.9,465.7 
		1527.4,465.7 1527.4,494.4 1563.4,494.4 1563.4,487.2 1534.6,487.2 1534.6,465.7 1563.4,465.7 1563.4,458.5 1505.9,458.5 
		1505.9,401 1498.7,401 1498.7,429.8 1477.1,429.8 1477.1,401 1470,401 1470,436.9 1498.7,436.9 1498.7,458.5 1448.4,458.5 
		1448.4,401 1441.3,401 1441.3,429.8 1419.7,429.8 1419.7,401 1412.5,401 1412.5,436.9 1441.3,436.9 1441.3,458.5 1391,458.5 
		1391,401 1383.8,401 1383.8,429.8 1362.2,429.8 1362.2,401 1355,401 1355,436.9 1383.8,436.9 1383.8,458.5 1340.7,458.5 
		1340.7,465.7 1498.7,465.7 1498.7,623.7 1505.9,623.7 1505.9,580.6 1527.4,580.6 1527.4,609.3 1563.4,609.3 1563.4,602.2 
		1534.6,602.2 1534.6,580.6 1563.4,580.6 1563.4,573.4 1505.9,573.4 1505.9,523.1 1527.4,523.1 1527.4,551.9 1563.4,551.9 
		1563.4,544.7 	"/>
	<polygon id="polygon3863" class="st1" points="1520.3,444.1 1513.1,444.1 1513.1,451.3 1520.3,451.3 	"/>
	<polygon id="polygon3865" class="st1" points="1513.1,436.9 1527.4,436.9 1527.4,451.3 1534.6,451.3 1534.6,429.8 1513.1,429.8 	
		"/>
	<polygon id="polygon3867" class="st1" points="1549,415.4 1541.8,415.4 1541.8,422.6 1549,422.6 	"/>
</g>
<g>
	<polygon id="polygon3869" class="st1" points="1312.6,564.6 1319.8,564.6 1319.8,550.3 1341.4,550.3 1341.4,586.2 1312.6,586.2 
		1312.6,607.8 1319.8,607.8 1319.8,593.4 1341.4,593.4 1341.4,607.8 1348.5,607.8 1348.5,550.3 1370.1,550.3 1370.1,607.8 
		1377.3,607.8 1377.3,543.1 1233.6,543.1 1233.6,399.5 1169,399.5 1169,406.6 1226.5,406.6 1226.5,428.2 1169,428.2 1169,435.4 
		1183.4,435.4 1183.4,456.9 1169,456.9 1169,464.1 1190.5,464.1 1190.5,435.4 1226.5,435.4 1226.5,456.9 1212.1,456.9 1212.1,464.1 
		1226.5,464.1 1226.5,485.6 1169,485.6 1169,492.9 1226.5,492.9 1226.5,514.4 1212.1,514.4 1212.1,521.6 1226.5,521.6 1226.5,543.1 
		1190.5,543.1 1190.5,514.4 1169,514.4 1169,521.6 1183.4,521.6 1183.4,543.1 1169,543.1 1169,550.3 1226.5,550.3 1226.5,607.8 
		1233.6,607.8 1233.6,593.4 1255.2,593.4 1255.2,607.8 1262.4,607.8 1262.4,586.2 1233.6,586.2 1233.6,550.3 1255.2,550.3 
		1255.2,564.6 1262.4,564.6 1262.4,550.3 1283.9,550.3 1283.9,607.8 1291.1,607.8 1291.1,550.3 1312.6,550.3 	"/>
	<path id="path3871" class="st1" d="M1219.3,500h-57.5v-21.5h57.5v-7.2h-14.4v-21.5h14.4v-7.2h-21.5v28.8h-35.9v-21.5h14.4v-7.2
		h-14.4v-21.5h57.5V414h-57.5v-14.4h-7.2v222.7h222.7v-7.2H1363v-57.5h-7.2v57.5h-21.5v-14.4h-7.2v14.4h-21.5v-35.9h28.8v-21.5h-7.2
		V572h-21.5v-14.4h-7.2v57.5h-21.5v-57.5h-7.2V572h-21.5v-14.4h-7.2v21.5h28.7v35.9h-21.5v-14.4h-7.2v14.4h-21.5v-57.5h-57.5v-21.5
		h14.4V529h-14.4v-21.5h35.9v28.8h21.5V529h-14.4v-21.5h14.4v-7.2L1219.3,500z M1190.6,564.6h21.5v21.5h-21.5V564.6z M1183.4,593.4
		h14.4v14.4h7.2v-14.4h7.2V615h-21.5v-14.4h-7.2V615h-21.5v-21.5h14.4v-7.2h-14.4v-21.5h21.5v7.2H1169v7.2h14.4V593.4z"/>
	<polygon id="polygon3873" class="st1" points="1176.1,600.6 1169,600.6 1169,607.8 1176.1,607.8 	"/>
	<polygon id="polygon3875" class="st1" points="1204.9,571.9 1197.7,571.9 1197.7,579 1204.9,579 	"/>
</g>
<g>
	<polygon id="polygon3877" class="st1" points="1648.8,129.1 1476.4,129.1 1476.4,-43.3 1469.2,-43.3 1469.2,136.3 1648.8,136.3 	
		"/>
	<polygon id="polygon3879" class="st1" points="1512.3,57.2 1505.1,57.2 1505.1,42.9 1483.5,42.9 1483.5,78.8 1512.3,78.8 
		1512.3,93.2 1526.7,93.2 1526.7,121.9 1562.6,121.9 1562.6,100.3 1548.2,100.3 1548.2,93.2 1569.8,93.2 1569.8,121.9 1605.7,121.9 
		1605.7,100.3 1591.3,100.3 1591.3,93.2 1612.9,93.2 1612.9,121.9 1648.8,121.9 1648.8,100.3 1634.4,100.3 1634.4,93.2 1648.8,93.2 
		1648.8,86 1627.2,86 1627.2,107.6 1641.6,107.6 1641.6,114.7 1620,114.7 1620,86 1584.2,86 1584.2,107.6 1598.5,107.6 
		1598.5,114.7 1576.9,114.7 1576.9,86 1541,86 1541,107.6 1555.4,107.6 1555.4,114.7 1533.8,114.7 1533.8,86 1519.5,86 1519.5,71.6 
		1490.8,71.6 1490.8,50.1 1497.9,50.1 1497.9,64.4 1519.5,64.4 1519.5,28.5 1490.8,28.5 1490.8,6.9 1497.9,6.9 1497.9,21.3 
		1519.5,21.3 1519.5,-14.6 1490.8,-14.6 1490.8,-36.1 1497.9,-36.1 1497.9,-21.8 1519.5,-21.8 1519.5,-43.3 1512.3,-43.3 
		1512.3,-29 1505.1,-29 1505.1,-43.3 1483.5,-43.3 1483.5,-7.4 1512.3,-7.4 1512.3,14.2 1505.1,14.2 1505.1,-0.2 1483.5,-0.2 
		1483.5,35.7 1512.3,35.7 	"/>
	<path id="path3881" class="st1" d="M1519.5,121.9v-21.5h-14.4V86h-21.5v35.9H1519.5z M1497.9,93.1v14.4h14.4v7.2h-21.5V93.1H1497.9
		z"/>
	<polygon id="polygon3883" class="st1" points="1648.8,71.6 1533.8,71.6 1533.8,-43.3 1526.7,-43.3 1526.7,78.8 1648.8,78.8 	"/>
</g>
</svg>
