<?xml version="1.0" encoding="utf-8"?>
<!-- Generator: Adobe Illustrator 25.0.1, SVG Export Plug-In . SVG Version: 6.00 Build 0)  -->
<svg version="1.1" id="Layer_1" xmlns="http://www.w3.org/2000/svg" xmlns:xlink="http://www.w3.org/1999/xlink" x="0px" y="0px"
	 viewBox="0 0 792 612" style="enable-background:new 0 0 792 612;" xml:space="preserve">
<style type="text/css">
	.st0{fill-rule:evenodd;clip-rule:evenodd;fill:#E0DED6;}
</style>
<g>
	<polygon id="polygon4185" class="st0" points="312.6,228.4 473.5,228.4 473.5,389.4 480.2,389.4 480.2,221.8 312.6,221.8 	"/>
	<polygon id="polygon4187" class="st0" points="466.8,241.9 466.8,235.2 460.1,235.2 460.1,241.9 	"/>
	<polygon id="polygon4189" class="st0" points="446.7,235.2 446.7,241.9 453.4,241.9 453.4,235.2 	"/>
	<polygon id="polygon4191" class="st0" points="446.7,255.3 453.4,255.3 453.4,248.6 446.7,248.6 	"/>
	<polygon id="polygon4193" class="st0" points="460.1,255.3 466.8,255.3 466.8,248.6 460.1,248.6 	"/>
	<polygon id="polygon4195" class="st0" points="440,235.2 419.9,235.2 419.9,241.9 433.3,241.9 433.3,248.6 419.9,248.6 
		419.9,268.7 433.3,268.7 433.3,282.1 453.4,282.1 453.4,268.7 460.1,268.7 460.1,282.1 466.8,282.1 466.8,262 446.7,262 
		446.7,275.4 440,275.4 440,262 426.6,262 426.6,255.3 440,255.3 	"/>
	<polygon id="polygon4197" class="st0" points="446.7,308.9 466.8,308.9 466.8,288.8 460.1,288.8 460.1,302.2 453.4,302.2 
		453.4,288.8 433.3,288.8 433.3,308.9 440,308.9 440,295.5 446.7,295.5 	"/>
	<polygon id="polygon4199" class="st0" points="433.3,335.7 453.4,335.7 453.4,322.3 460.1,322.3 460.1,335.7 466.8,335.7 
		466.8,315.6 446.7,315.6 446.7,329 440,329 440,315.6 433.3,315.6 	"/>
	<polygon id="polygon4201" class="st0" points="446.7,362.6 466.8,362.6 466.8,342.5 460.1,342.5 460.1,355.8 453.4,355.8 
		453.4,342.5 433.3,342.5 433.3,362.6 440,362.6 440,349.2 446.7,349.2 	"/>
	<polygon id="polygon4203" class="st0" points="433.3,389.4 453.4,389.4 453.4,375.9 460.1,375.9 460.1,389.4 466.8,389.4 
		466.8,369.3 446.7,369.3 446.7,382.7 440,382.7 440,369.3 433.3,369.3 	"/>
	<polygon id="polygon4205" class="st0" points="426.6,389.4 426.6,275.4 312.6,275.4 312.6,282.1 419.9,282.1 419.9,389.4 	"/>
	<polygon id="polygon4207" class="st0" points="393,235.2 393,255.3 406.5,255.3 406.5,262 393,262 393,268.7 413.2,268.7 
		413.2,248.6 399.8,248.6 399.8,241.9 413.2,241.9 413.2,235.2 	"/>
	<polygon id="polygon4209" class="st0" points="366.3,248.6 366.3,268.7 386.4,268.7 386.4,262 372.9,262 372.9,255.3 386.4,255.3 
		386.4,235.2 366.3,235.2 366.3,241.9 379.7,241.9 379.7,248.6 	"/>
	<polygon id="polygon4211" class="st0" points="339.4,235.2 339.4,255.3 352.8,255.3 352.8,262 339.4,262 339.4,268.7 359.6,268.7 
		359.6,248.6 346.1,248.6 346.1,241.9 359.6,241.9 359.6,235.2 	"/>
	<polygon id="polygon4213" class="st0" points="312.6,248.6 312.6,268.7 332.7,268.7 332.7,262 319.3,262 319.3,255.3 332.7,255.3 
		332.7,235.2 312.6,235.2 312.6,241.9 326,241.9 326,248.6 	"/>
</g>
<image style="overflow:visible;" width="900" height="600" xlink:href="Ancient Greece Color Palette - color-hex.com.png"  transform="matrix(0.75 0 0 0.75 819.9779 117.292)">
</image>
</svg>
