<?xml version="1.0" encoding="utf-8"?>
<!-- Generator: Adobe Illustrator 25.0.1, SVG Export Plug-In . SVG Version: 6.00 Build 0)  -->
<svg version="1.1" id="Layer_1" xmlns="http://www.w3.org/2000/svg" xmlns:xlink="http://www.w3.org/1999/xlink" x="0px" y="0px"
	 viewBox="0 0 1280 1280" style="enable-background:new 0 0 1280 1280;" xml:space="preserve">
<style type="text/css">
	.st0{fill:#E0DDD5;}
</style>
<g transform="translate(0.000000,1280.000000) scale(0.100000,-0.100000)">
	<path class="st0" d="M6085,12794c-794-47-1358-164-1990-411c-946-372-1784-951-2455-1700C381,9281-203,7353,66,5482
		c132-920,463-1792,977-2574C1776,1792,2832,932,4065,445C4623,225,5210,85,5840,23c241-24,833-24,1076,0c999,98,1855,365,2682,836
		c506,287,859,559,1298,996c348,346,571,610,807,954c509,742,848,1575,1016,2501c63,349,75,527,75,1085c0,557-16,788-79,1130
		c-373,2019-1617,3687-3435,4604c-749,379-1418,569-2275,647C6846,12790,6226,12803,6085,12794z M6386,12665c23-31,41-221,49-525
		c3-124,8-248,11-275l5-50l276-18c152-10,317-23,367-30c147-17,158-16,174,17c8,15,25,85,38,155c36,194,32,221-32,221
		c-45,0-81-15-93-39c-6-11-18-64-27-118s-19-101-23-104c-3-4-55-3-116,2c-260,20-372,30-402,36l-33,5v132c0,72,7,235,15,361
		c8,127,15,234,15,238c0,9,61,6,330-14c379-28,1008-137,1089-188c12-8-1-67-74-343c-129-487-129-490-110-505c18-13,604-209,722-241
		l71-20l51,111c80,179,93,217,80,233c-6,7-31,23-55,35c-58,27-62,23-124-108c-27-57-56-106-65-109c-21-9-480,150-508,176
		c-13,11,53,251,138,505c58,173,74,205,100,205c106,0,1224-492,1285-565c10-13-4-43-86-188c-212-373-237-420-270-494
		c-18-42-31-80-28-84c2-5,82-59,177-122s243-169,331-236c87-67,162-121,166-119c9,3,162,193,197,243c36,53,37,70,2,109
		c-53,61-76,52-175-70c-42-52-80-94-85-94c-4,0-98,66-207,148c-109,81-209,154-222,163l-24,16l113,184c138,222,280,439,289,439
		c15,0,230-141,344-226c341-253,768-625,768-669c0-23-84-117-334-373l-237-243l27-32c131-155,287-344,372-450c57-70,114-134,127-143
		c23-15,27-14,62,7c69,41,224,161,239,184c13,19,13,28,3,47c-17,33-50,68-65,68c-7,0-53-27-102-60c-48-33-97-60-108-60
		c-21,0-74,52-268,264c-113,122-111,115-33,208c51,62,458,449,467,446c4-2,52-53,107-113c187-207,402-491,586-772
		c151-231,182-282,171-293c-5-5-171-99-369-210s-364-206-369-211c-6-5,44-118,132-296c78-159,156-324,175-368c42-103,55-108,169-71
		c46,15,117,43,158,64c71,35,75,39,78,74c2,20-4,51-13,68c-19,37-29,36-148-10c-110-42-116-42-148,5c-33,49-155,287-194,380l-29,68
		l29,23c62,50,592,304,633,304c32,0,282-579,406-940c63-182,96-303,96-350c0-40-3-41-313-131c-298-86-356-104-430-137
		c-69-30-69,8-4-312c24-124,55-280,67-348c31-171,27-167,187-166c175,1,223,25,223,114c0,62,1,62-150,54l-137-7l-6,33
		c-18,87-66,391-70,439c-3,41,0,58,12,70c30,30,590,156,662,149c30-3,35-8,46-47c55-193,153-994,153-1257v-134h-427l-428,1l-7-63
		c-12-104-57-586-64-689l-7-97l29-6c55-11,326-37,338-33c7,3,21,31,31,62c15,49,16,59,3,71c-8,8-65,23-126,34c-62,10-117,22-123,26
		c-12,7-9,85,13,382l11,154l351-4c260-2,357-7,374-16c20-11,22-20,22-87c0-255-145-1193-201-1297c-10-18-17-20-76-13
		c-36,4-210,42-386,86c-177,43-333,79-348,79c-39,0-64-37-94-138c-15-48-64-191-110-318c-98-272-104-294-80-330
		c19-29,120-79,233-115c82-26,95-23,126,30s15,70-113,126c-61,26-114,51-116,55c-7,11,115,341,156,424c19,38,42,74,51,80
		c29,18,485-107,608-167c57-28,65-36,68-63c13-128-500-1274-570-1274c-25,0-59,18-364,190c-368,209-383,216-399,199
		c-33-36-445-648-445-663c0-33,157-179,238-220c41-21,59-16,102,29c42,43,38,53-41,108c-79,54-119,96-119,123c0,24,95,171,219,338
		l71,96l38-15c135-57,569-323,595-366c16-26-115-219-401-588c-246-318-431-531-459-531s-132,91-389,338l-259,249l-95-87
		c-131-119-296-261-421-360c-57-45-105-86-107-91c-3-8,107-189,166-271c19-27,39-48,46-48c20,0,126,71,126,85c0,7-8,19-17,26
		c-29,24-133,170-133,187c0,9,24,38,53,65c85,80,359,308,366,305c15-7,378-407,454-500c46-56,48-53-67-157c-233-212-720-569-948-695
		c-111-62-92-81-317,309c-108,187-200,346-204,352c-11,17-67-5-411-161c-153-70-298-132-322-138c-55-15-56-26-14-150
		c51-151,90-237,111-243c26-9,82,11,105,36c18,20,18,23-20,133c-22,62-37,120-33,128c7,19,343,189,421,214c30,9,61,14,69,11
		c15-6,184-314,261-479c25-51,47-109,51-129c6-32,3-39-26-63c-120-101-1072-476-1218-480c-51-1-56,1-76,31c-12,17-37,85-54,150
		c-124,452-162,567-193,584c-31,16-293-19-756-102l-64-11l6-42c3-22,13-107,22-188c9-80,20-152,24-159c7-10,19-10,62,2
		c75,20,81,36,62,173c-8,60-12,111-9,114c5,5,388,73,496,88l47,7l21-56c39-105,165-623,155-639c-4-6-26-19-50-29
		c-134-60-796-146-1189-156l-220-6l3,414c3,333,1,417-10,430c-27,33-798,83-828,53c-17-17-40-140-47-251l-6-103l37-15
		c80-34,105-3,131,161c9,54,18,100,20,104c4,7,328-15,445-30c46-6,90-16,97-22c16-13,16-274,0-543l-12-190l-45-3
		c-209-16-1159,128-1334,202l-39,16l7,50c9,64,104,448,151,605c38,130,42,157,23,173c-7,5-55,22-106,36c-51,15-217,72-368,126
		c-151,55-283,100-293,100c-13,0-30-21-54-67c-46-89-97-217-97-247c0-42,78-94,113-75c9,6,28,47,42,94c14,46,34,94,44,106l18,23
		l106-28c136-35,376-113,404-131l22-15l-35-132c-42-161-84-305-130-455c-32-104-37-113-59-113c-32,0-282,89-521,186
		c-304,122-731,337-774,389c-18,21-2,52,182,373c163,284,192,344,184,377c-4,17-89,82-293,228c-357,253-338,240-367,233
		c-43-11-226-248-226-293c0-30,56-58,92-44c22,8,90,76,151,149l27,34l225-158c124-87,225-163,225-169c0-14-115-211-265-454l-118-190
		l-141,95c-190,129-407,294-601,455c-172,144-375,336-375,356c0,22,118,152,356,393l233,235l-76,85c-183,206-350,401-406,477
		c-34,45-65,82-70,83c-11,0-225-156-264-193c-41-39-42-68-2-118l31-40l35,21c19,11,70,48,115,81c66,51,82,59,92,48
		c45-49,211-246,258-304c67-85,81-110,73-134c-15-48-366-355-492-432l-54-32l-51,49c-167,163-658,823-763,1027l-30,58l25,19
		c14,10,126,78,250,151c263,153,423,253,440,274c16,19,14,23-142,350c-69,143-135,286-148,318c-33,84-50,88-202,41
		c-145-44-198-76-198-118c0-32,37-86,59-86c11,0,64,16,117,35s105,35,115,35c15,0,35-34,88-142c68-142,141-323,141-352
		c0-21-253-167-521-301c-107-54-113-56-127-39c-92,123-512,1180-512,1290c0,48,54,70,440,174c315,85,382,108,376,128
		c-8,28-53,265-100,524c-25,137-50,257-57,269c-9,18-17,20-47,14c-21-3-97-10-169-13c-73-4-137-12-143-18c-16-16-23-96-11-126
		c13-34,39-36,180-13c52,9,95,14,97,13c7-8,75-412,81-480l6-77l-29-11c-70-27-602-140-659-140c-33,0-33,0-49,72
		c-49,227-116,744-136,1058c-5,91-13,195-16,233l-6,67h435h436l5,53c3,28,15,153,27,277c11,124,29,292,40,374s18,150,17,151
		c-7,7-259,35-310,35c-78,0-104-24-99-92c2-28,59-50,150-60c47-4,90-13,95-18c18-18,17-125-3-344c-11-120-22-220-24-222
		s-127,1-278,6c-276,10-440,23-461,36c-41,26,95,1064,177,1352c15,49,17,52,49,52c48,0,188-30,439-95c120-31,256-64,302-74l84-19
		l35,102c20,55,79,222,131,370c52,149,95,275,95,282c0,35-246,175-313,178c-26,1-34-5-54-39c-35-62-31-80,25-101c26-9,81-30,124-46
		l76-29l-73-212c-40-117-82-234-92-262l-19-50l-51,1c-32,1-172,37-370,95c-175,51-319,94-321,95c-4,2,110,314,168,461
		c76,189,141,334,250,558c121,248,152,295,190,295c18,0,124-55,290-150c312-179,408-230,430-230s114,125,314,422
		c132,197,158,240,152,261c-7,28-170,163-238,198c-41,21-58,18-92-20c-30-33-13-62,83-150l90-82l-66-97c-100-146-218-305-242-326
		c-22-20-22-20-75,6c-118,58-521,320-540,351c-14,22,11,70,113,222c175,260,423,567,627,774l142,145l268-261
		c148-144,291-279,318-301l49-41l76,74c76,73,190,172,418,363c67,56,124,106,127,111c11,18-181,264-224,286c-24,12-31,12-61-3
		c-59-30-53-68,29-179c32-43,61-83,65-90s-73-82-205-198l-213-187l-55,60c-30,33-140,150-245,261c-104,111-195,211-203,222
		c-12,18-9,23,36,64c230,207,580,477,827,640c177,116,251,157,278,153c16-2,70-85,223-343c112-187,209-349,217-360
		c14-19,22-16,253,95c131,62,296,141,365,175c70,35,133,65,140,67c18,6,4,62-52,204c-53,136-70,158-121,151c-21-3-50-13-64-22
		c-28-18-29-13,21-150c18-49,36-100,40-113c6-21-4-28-137-91c-79-38-187-87-240-109l-98-41l-24,32c-69,90-311,529-322,584
		c-5,28-2,33,41,63c154,106,1025,459,1176,477c107,13,128-17,189-257c105-414,139-520,176-534c17-7,743,116,788,134
		c27,10,27,10,21,87c-15,175-34,277-56,295c-25,21-66,15-91-14c-15-17-18-41-18-149v-128l-32-6c-18-3-123-22-233-42s-216-37-235-37
		l-35-1l-42,125c-52,159-114,423-120,520c-5,75-5,76,22,88c92,42,587,115,960,141c83,6,170,13,195,15
		C6259,12692,6374,12681,6386,12665z"/>
	<path class="st0" d="M6105,12513c-401-35-610-59-780-92l-90-17l1-59c1-70,40-268,60-307c17-32,42-40,110-36l49,3l3,45
		c2,25-2,92-8,149c-9,76-9,105-1,110c6,4,126,18,267,31c287,26,277,27,295-46c16-69,39-365,39-506v-137l-32-5c-18-3-116-17-218-31
		c-244-34-513-85-738-138c-124-30-185-41-188-33c-2,6-46,153-98,326s-104,341-116,374c-23,61-50,96-74,96c-57,0-608-216-808-316
		l-68-34l21-53c23-58,135-270,160-300c15-19,16-19,50-2c46,23,89,65,89,86c0,9-20,63-44,120c-25,56-42,107-39,112
		c15,25,393,164,495,182c35,7,37,5,56-32c35-68,155-403,192-536l19-68l-44-28c-24-15-109-54-187-87c-79-32-260-116-403-187
		c-273-135-412-197-442-197c-10,0-29,17-43,38c-13,20-109,170-213,332s-192,299-197,304c-17,18-223-115-495-319
		c-163-122-255-199-274-228c-10-16-8-26,13-58c45-67,208-250,234-262c22-10,28-7,68,35c24,26,44,56,44,67s-34,65-76,121
		s-72,106-67,110c21,19,350,255,393,282c27,17,55,28,63,25s40-40,73-84c87-116,324-472,324-487c0-8-53-52-117-99
		c-226-163-711-585-735-638c-7-16-18-29-24-29c-20,0-114,68-198,143c-44,40-170,154-279,254l-199,182l-77-92
		c-291-347-511-641-511-682c0-29,276-205,322-205c40,0,88,48,88,88c0,35-25,63-108,121c-84,59-87,75-29,159c60,88,168,221,239,297
		l56,60l34-24c74-54,293-238,378-318c94-88,127-134,113-156c-4-7-65-87-134-178c-164-214-273-370-403-578c-58-93-112-174-120-180
		c-17-14-37-5-457,212c-157,81-293,147-302,147c-12,0-44-55-106-179c-111-222-172-362-222-514c-47-140-49-180-14-203
		c34-22,274-104,307-104c17,0,35,11,53,32c55,65,53,103-7,131c-221,103-209,91-179,175c37,108,183,442,192,442c16,0,333-142,453-203
		c115-58,186-108,186-130c0-6-46-126-101-266c-113-283-185-485-219-606c-12-44-35-113-52-152c-27-65-33-73-56-73c-26,0-63,8-507,108
		c-272,62-292,65-299,53c-21-33-136-812-136-917v-54h163c167,0,234,9,248,32c5,7,9,31,9,54c0,58-19,71-115,80c-44,4-92,13-107,20
		c-49,25-48,89,8,398c35,188,35,189,81,180c235-40,611-120,634-135c11-6,8-60-14-286c-16-158-32-402-37-564c-5-158-14-298-19-312
		c-8-20-18-26-63-31c-78-9-449-34-630-42c-86-4-162-11-169-15c-11-6-10-43,4-191c22-220,61-521,85-638c23-115,32-120,173-97
		c57,10,139,27,182,38l79,22l-6,51c-4,28-14,62-23,75c-16,26-20,26-219,5c-55-6-63-4-68,12c-20,64-71,543-59,555
		c13,12,708,67,719,57c2-3,13-85,25-184c20-177,62-422,118-689c38-182,43-232,28-275c-17-50-62-75-226-126c-452-142-494-159-512-198
		c-15-31,12-126,100-359c109-286,194-481,223-505c11-8,36-1,111,33c118,53,161,78,205,119c39,36,41,69,9,117c-29,42-50,42-151,1
		c-105-43-133-47-151-19c-26,41-91,198-140,341l-48,140l22,17c44,36,492,196,597,213l42,7l30-53c16-29,58-118,92-198
		c111-258,232-502,382-767l29-52l-83-54c-46-29-177-111-293-182c-210-129-299-189-322-217c-10-12-3-30,40-102
		c84-140,368-530,484-664l28-32l72,55c89,68,209,186,218,216c8,24-15,60-56,91c-32,24-55,16-166-59l-83-57l-26,25
		c-30,28-233,295-290,382c-22,35-34,61-28,65c384,259,585,392,591,391c4,0,63-73,130-162c148-197,252-323,448-541
		c82-92,158-180,167-195c17-27,17-27-23-77c-23-27-150-163-282-303c-133-140-243-257-245-261c-3-8,215-208,343-315
		c44-37,136-107,205-156s146-105,172-125l47-35l95,143c53,79,102,160,110,180c14,33,14,38-3,60c-11,13-35,32-55,43
		c-49,26-66,15-154-106c-68-93-74-99-93-86c-11,8-107,86-214,173c-122,100-195,166-195,177c0,47,90,159,446,555c9,11,38-8,157-106
		c261-215,377-296,672-472c77-45,147-89,155-97c13-12-8-58-164-368c-128-254-180-367-183-400l-6-45l89-41c177-82,684-297,741-314
		c18-5,25,0,41,32c25,48,89,238,107,316c13,57,13,58-9,67c-45,17-116,23-130,11c-8-7-31-54-51-106s-44-103-53-114c-17-20-18-20-68-2
		c-66,24-343,162-407,203c-45,29-48,34-43,62c13,69,254,525,308,583l20,21l81-35c248-107,609-236,917-328c47-13,91-28,97-33
		c9-6-3-77-52-292c-83-361-97-437-93-502l3-52l45-13c149-45,445-83,691-90l206-6l7,171c9,216,5,232-61,232c-80,0-114-45-120-160
		c-5-96-10-117-27-123c-16-6-439,57-477,72c-74,28-77,91-19,384c45,226,67,309,83,319c20,13,114,9,276-12c175-22,428-43,727-61
		l201-12l6-336c6-304,22-499,41-518c15-15,700,67,859,103l67,16v58c0,66-33,243-57,302l-16,40l-61-7c-93-10-93-10-75-172
		c9-76,16-139,15-139c-4-6-272-26-407-31l-166-6l-6,24c-11,43-52,688-44,695c1,1,76,9,167,18c247,24,473,65,900,161
		c57,13,108,21,112,17c8-9,43-122,156-502c86-288,88-295,112-292c87,11,315,91,663,234c235,95,231,93,223,131c-8,39-93,209-142,282
		c-40,62-54,66-115,34c-40-20-41-22-36-62c2-23,18-82,36-131c31-86,32-90,14-107c-18-18-329-142-432-173c-50-15-56-15-72,0
		c-41,37-172,392-206,559c-17,84-17,87,1,100c10,8,88,42,174,76c87,34,320,144,519,245l362,183l52-87c46-77,397-631,405-641
		c11-12,709,499,739,541c21,31,19,57-8,99c-30,50-210,258-222,258c-6,1-40-28-75-64l-65-65l94-94c51-52,92-99,90-105
		c-9-24-381-304-443-332c-31-15-15-31-160,171c-115,161-266,388-266,399c0,12,60,64,205,176c184,143,332,267,484,406
		c68,63,146,135,175,160l51,46l273-253c151-139,294-263,318-276c41-21,46-22,71-8c41,23,470,566,536,679l18,30l-38,42
		c-41,46-129,110-216,159c-52,29-60,31-87,20c-33-14-90-73-90-94c0-17,33-47,115-103c81-57,91-76,64-129c-15-31-274-373-309-408
		c-5-5-30,11-57,36c-26,25-147,130-268,233c-121,104-221,192-223,196s55,81,125,171c208,264,253,328,493,704c52,81,56,85,85,80
		c16-3,188-84,380-181c193-96,357-175,366-175c10,0,30,29,54,77c92,188,254,572,306,727l23,69l-27,21c-32,26-138,68-243,97
		c-91,25-110,20-149-40c-43-64-34-81,65-118c140-54,156-64,152-98c-5-44-75-212-149-359c-63-122-67-128-92-123
		c-36,7-331,141-493,224l-127,64l21,52c111,277,210,541,255,682c135,417,115,370,154,373c37,3,171-21,514-92c257-53,292-56,304-23
		c26,67,91,455,116,687c8,80,18,164,21,187c6,48,15,44-156,68c-130,18-221,19-244,2c-24-17-25-146-2-163c9-6,64-14,122-17
		s111-10,116-15c8-8,7-43-1-119c-17-146-48-357-62-416l-11-49l-47,7c-119,17-548,121-634,154c-22,8-26,15-22,33
		c28,122,63,558,70,878l6,255l57,7c118,13,385,29,605,35l227,6v29c0,42-57,539-81,703c-33,229-35,235-92,235c-39,0-210-35-292-61
		l-68-21l6-43c9-61,27-95,54-101c14-4,62-2,109,4c102,14,128,6,148-43c15-36,56-347,56-426c0-56-20-85-68-99c-34-10-371-34-572-42
		l-85-3l-27,215c-35,279-59,418-118,680c-68,301-72,267,31,312c48,20,205,73,349,118s282,90,306,100c40,18,44,22,44,55
		c0,48-57,222-147,450c-66,164-178,423-188,433c-6,6-320-156-342-178c-31-28-29-52,8-116l30-54l32,14c192,81,200,83,228,55
		c50-50,210-447,195-485c-8-21-116-67-326-138c-231-79-325-102-344-87c-7,6-44,89-81,184c-39,99-143,321-245,523l-177,351l176,113
		c97,63,250,158,341,213s175,106,187,113l23,14l-52,83c-162,259-481,677-527,692c-11,3-34-1-51-10c-31-16-254-199-279-229
		c-11-13-5-24,50-81c34-36,66-65,70-65c5,0,44,29,88,64c94,76,114,88,135,80c31-12,326-383,326-410c0-42-525-414-583-414
		c-17,0-45,33-149,177c-116,161-237,299-515,591l-121,128l205,219c112,121,248,266,301,323s91,106,86,110c-6,4-62,50-125,103
		c-62,52-206,167-319,254s-230,178-260,202l-55,43l-28-32c-107-123-207-276-207-316c0-24,66-82,94-82c19,0,85,62,168,159l46,53
		l225-183c124-101,225-187,224-191s-92-109-202-234c-110-124-216-245-236-267l-37-42l-100,77c-235,181-630,451-847,581l-46,27l19,33
		c11,17,104,186,207,375c175,322,186,344,168,357c-53,39-370,186-593,274c-263,105-266,106-294,88c-26-18-61-99-112-267
		c-38-122-39-120,57-140c59-13,61-12,83,11c13,13,41,67,61,119c21,52,41,98,44,102c13,15,445-174,499-218l23-19l-94-195
		c-52-107-121-244-153-305c-56-104-62-110-90-109c-17,1-136,43-265,94c-206,82-438,162-664,230c-87,26-152,57-158,74c-3,8-1,31,4,52
		c36,158,150,689,155,725l6,45l-49,11c-105,25-560,96-818,128c-90,11-114-37-118-241c-2-136,7-166,56-184c83-29,96-14,121,132
		c18,107,28,128,64,129c94,5,357-33,452-64l65-22l-3-50c-4-93-116-630-132-640c-5-3-49,1-97,9c-134,23-250,34-583,56
		c-311,21-475,41-493,59s-25,125-33,484l-7,347l-31-2C6159,12517,6127,12515,6105,12513z M6890,11495c636-65,1197-223,1755-494
		c244-119,369-190,590-336c1217-804,2038-2115,2235-3570c53-395,54-929,0-1355c-156-1247-761-2363-1740-3211
		c-760-658-1672-1059-2725-1198c-1170-155-2457,161-3480,853c-445,301-1079,942-1379,1396c-828,1251-1067,2821-647,4261
		c337,1157,1072,2157,2078,2828c259,172,724,406,1088,546c388,150,918,261,1405,294C6254,11522,6701,11514,6890,11495z"/>
</g>
<g id="MJROyq_1_">
	
		<image style="overflow:visible;enable-background:new    ;" width="900" height="600" id="MJROyq" xlink:href="Ancient Greece Color Palette - color-hex.com.png"  transform="matrix(0.3996 0 0 0.3996 1330.682 -0.271)">
	</image>
</g>
</svg>
