<?xml version="1.0" encoding="utf-8"?>
<!-- Generator: Adobe Illustrator 25.0.1, SVG Export Plug-In . SVG Version: 6.00 Build 0)  -->
<svg version="1.1" id="Layer_1" xmlns="http://www.w3.org/2000/svg" xmlns:xlink="http://www.w3.org/1999/xlink" x="0px" y="0px"
	 viewBox="0 0 792 612" style="enable-background:new 0 0 792 612;" xml:space="preserve">
<style type="text/css">
	.st0{fill:#006838;}
</style>
<path class="st0" d="M1043.1,316.7v-14.9h14.9V287h7.4v-7.4h-44.6v14.9h-7.4v-14.9h-66.9v14.9h-7.4v-14.9h-66.9v14.9h-7.4v-14.9
	h-66.9v14.9h-7.4v-14.9h-66.9v14.9h-7.4v-14.9h-66.9v14.9h-7.4v-14.9h-22.3h-44.6v14.9h-7.4v-14.9h-66.9v14.9h-7.4v-14.9h-66.9v14.9
	h-7.4v-14.9h-66.9v14.9h-7.4v-14.9h-66.9v14.9H270v-14.9h-66.9v14.9h-7.4v-14.9h-66.9v14.9h-7.4v-14.9H54.5v14.9H47v-14.9h-66.9
	v14.9h-7.4v-14.9h-66.9v14.9h-7.4v-14.9h-66.9v14.9h-7.4v-14.9h-66.9v14.9h-7.4v-14.9h-22.3v7.4h14.9v7.4h-14.9v14.9v7.4v14.9h66.9
	v-14.9h7.4v14.9h66.9v-14.9h7.4v14.9H-57v-14.9h7.4v14.9h66.9v-14.9h7.4v14.9h66.9v-14.9h7.4v14.9H166v-14.9h7.4v14.9h66.9v-14.9
	h7.4v14.9h66.9v-14.9h7.4v14.9H389v-14.9h7.4v14.9h66.9v-14.9h7.4v14.9h66.9v-14.9h7.4v14.9h33.5h3.7H612v-14.9h7.4v14.9h66.9v-14.9
	h7.4v14.9h66.9v-14.9h7.4v14.9H835v-14.9h7.4v14.9h66.9v-14.9h7.4v14.9h66.9v-14.9h7.4v14.9h66.9v-14.9h7.4v-7.4h-14.9v14.9h-22.3
	v-7.4H1043.1z M-265.2,301.8h7.4v7.4h-7.4V301.8z M-242.9,324.2h-22.3v-7.4h14.9v-14.9h14.9V287h22.3v7.4H-228v14.9h-14.9V324.2z
	 M-198.3,309.3h-14.9v14.9h-22.3v-7.4h14.9v-14.9h14.9V287h22.3v7.4h-14.9V309.3z M-183.4,301.8v7.4h-7.4v-7.4H-183.4z
	 M-168.5,324.2h-22.3v-7.4h14.9v-14.9h14.9V287h22.3v7.4h-14.9v14.9h-14.9V324.2z M-123.9,309.3h-14.9v14.9h-22.3v-7.4h14.9v-14.9
	h14.9V287h22.3v7.4h-14.9V309.3z M-109.1,301.8v7.4h-7.4v-7.4H-109.1z M-94.2,324.2h-22.3v-7.4h14.9v-14.9h14.9V287h22.3v7.4h-14.9
	v14.9h-14.9V324.2z M-49.6,309.3h-14.9v14.9h-22.3v-7.4h14.9v-14.9H-57V287h22.3v7.4h-14.9V309.3z M-34.7,301.8v7.4h-7.4v-7.4H-34.7
	z M-19.9,324.2h-22.3v-7.4h14.9v-14.9h14.9V287H9.9v7.4H-5v14.9h-14.9V324.2z M24.7,309.3H9.9v14.9h-22.3v-7.4H2.4v-14.9h14.9V287
	h22.3v7.4H24.7V309.3z M39.6,301.8v7.4h-7.4v-7.4H39.6z M54.5,324.2H32.2v-7.4H47v-14.9h14.9V287h22.3v7.4H69.3v14.9H54.5V324.2z
	 M99.1,309.3H84.2v14.9H61.9v-7.4h14.9v-14.9h14.9V287h22.3v7.4H99.1V309.3z M113.9,301.8v7.4h-7.4v-7.4H113.9z M128.8,324.2h-22.3
	v-7.4h14.9v-14.9h14.9V287h22.3v7.4h-14.9v14.9h-14.9V324.2z M173.4,309.3h-14.9v14.9h-22.3v-7.4h14.9v-14.9H166V287h22.3v7.4h-14.9
	V309.3z M188.3,301.8v7.4h-7.4v-7.4H188.3z M203.1,324.2h-22.3v-7.4h14.9v-14.9h14.9V287h22.3v7.4H218v14.9h-14.9V324.2z
	 M247.7,309.3h-14.9v14.9h-22.3v-7.4h14.9v-14.9h14.9V287h22.3v7.4h-14.9V309.3z M262.6,301.8v7.4h-7.4v-7.4H262.6z M277.5,324.2
	h-22.3v-7.4H270v-14.9h14.9V287h22.3v7.4h-14.9v14.9h-14.9V324.2z M322.1,309.3h-14.9v14.9h-22.3v-7.4h14.9v-14.9h14.9V287h22.3v7.4
	h-14.9V309.3z M336.9,301.8v7.4h-7.4v-7.4H336.9z M351.8,324.2h-22.3v-7.4h14.9v-14.9h14.9V287h22.3v7.4h-14.9v14.9h-14.9V324.2z
	 M396.4,309.3h-14.9v14.9h-22.3v-7.4h14.9v-14.9H389V287h22.3v7.4h-14.9V309.3z M411.3,301.8v7.4h-7.4v-7.4H411.3z M426.2,324.2
	h-22.3v-7.4h14.9v-14.9h14.9V287h22.3v7.4H441v14.9h-14.9V324.2z M470.8,309.3h-14.9v14.9h-22.3v-7.4h14.9v-14.9h14.9V287h22.3v7.4
	h-14.9V309.3z M485.6,301.8v7.4h-7.4v-7.4H485.6z M500.5,324.2h-22.3v-7.4h14.9v-14.9h14.9V287h22.3v7.4h-14.9v14.9h-14.9V324.2z
	 M545.1,309.3h-14.9v14.9h-22.3v-7.4h14.9v-14.9h14.9V287H560v7.4h-14.9V309.3z M560,301.8v7.4h-7.4v-7.4H560z M574.8,309.3v14.9
	h-22.3v-7.4h14.9v-14.9h14.9V287h22.3v7.4h-14.9v14.9H574.8z M619.4,309.3h-14.9v14.9h-22.3v-7.4h14.9v-14.9H612V287h7.4h14.9v7.4
	h-14.9V309.3z M634.3,301.8v7.4h-7.4v-7.4H634.3z M649.2,324.2h-22.3v-7.4h14.9v-14.9h14.9V287h22.3v7.4H664v14.9h-14.9V324.2z
	 M693.8,309.3h-14.9v14.9h-22.3v-7.4h14.9v-14.9h14.9V287h22.3v7.4h-14.9V309.3z M708.6,301.8v7.4h-7.4v-7.4H708.6z M723.5,324.2
	h-22.3v-7.4h14.9v-14.9h14.9V287h22.3v7.4h-14.9v14.9h-14.9V324.2z M768.1,309.3h-14.9v14.9h-22.3v-7.4h14.9v-14.9h14.9V287H783v7.4
	h-14.9V309.3z M783,301.8v7.4h-7.4v-7.4H783z M797.8,324.2h-22.3v-7.4h14.9v-14.9h14.9V287h22.3v7.4h-14.9v14.9h-14.9V324.2z
	 M842.4,309.3h-14.9v14.9h-22.3v-7.4h14.9v-14.9H835V287h22.3v7.4h-14.9V309.3z M857.3,301.8v7.4h-7.4v-7.4H857.3z M872.2,324.2
	h-22.3v-7.4h14.9v-14.9h14.9V287h22.3v7.4H887v14.9h-14.9V324.2z M916.8,309.3h-14.9v14.9h-22.3v-7.4h14.9v-14.9h14.9V287h22.3v7.4
	h-14.9V309.3z M931.6,301.8v7.4h-7.4v-7.4H931.6z M946.5,324.2h-22.3v-7.4h14.9v-14.9h14.9V287h22.3v7.4h-14.9v14.9h-14.9V324.2z
	 M991.1,309.3h-14.9v14.9h-22.3v-7.4h14.9v-14.9h14.9V287h22.3v7.4h-14.9V309.3z M1006,301.8v7.4h-7.4v-7.4H1006z M1020.8,309.3
	v14.9h-22.3v-7.4h14.9v-14.9h14.9V287h22.3v7.4h-14.9v14.9H1020.8z"/>
<g id="_x35_pJxpQ_1_">
	
		<image style="overflow:visible;" width="900" height="600" id="_x35_pJxpQ_2_" xlink:href="DAEB7156E529EC4B.jpg"  transform="matrix(0.75 0 0 0.75 69.0992 644.2466)">
	</image>
</g>
</svg>
