<?xml version="1.0" encoding="utf-8"?>
<!-- Generator: Adobe Illustrator 25.0.1, SVG Export Plug-In . SVG Version: 6.00 Build 0)  -->
<svg version="1.1" id="Layer_1" xmlns="http://www.w3.org/2000/svg" xmlns:xlink="http://www.w3.org/1999/xlink" x="0px" y="0px"
	 viewBox="0 0 280.6 21" style="enable-background:new 0 0 280.6 21;" xml:space="preserve">
<g>
	<polygon points="19.7,9 22.7,9 22.7,0 13.7,0 13.7,18 4.7,18 4.7,6 1.7,6 1.7,21 16.7,21 16.7,3 19.7,3 	"/>
	<polygon points="49.7,9 52.7,9 52.7,0 43.7,0 43.7,18 34.7,18 34.7,6 31.7,6 31.7,21 46.7,21 46.7,3 49.7,3 	"/>
	<polygon points="79.7,9 82.7,9 82.7,0 73.7,0 73.7,18 64.7,18 64.7,6 61.7,6 61.7,21 76.7,21 76.7,3 79.7,3 	"/>
	<polygon points="109.7,9 112.7,9 112.7,0 103.7,0 103.7,18 94.7,18 94.7,6 91.7,6 91.7,21 106.7,21 106.7,3 109.7,3 	"/>
	<polygon points="139.7,9 142.7,9 142.7,0 133.7,0 133.7,18 124.7,18 124.7,6 121.7,6 121.7,21 136.7,21 136.7,3 139.7,3 	"/>
	<polygon points="169.7,9 172.7,9 172.7,0 163.7,0 163.7,18 154.7,18 154.7,6 151.7,6 151.7,21 166.7,21 166.7,3 169.7,3 	"/>
	<polygon points="199.7,9 202.7,9 202.7,0 193.7,0 193.7,18 184.7,18 184.7,6 181.7,6 181.7,21 196.7,21 196.7,3 199.7,3 	"/>
	<polygon points="229.7,9 232.7,9 232.7,0 223.7,0 223.7,18 214.7,18 214.7,6 211.7,6 211.7,21 226.7,21 226.7,3 229.7,3 	"/>
	<polygon points="259.7,9 262.7,9 262.7,0 253.7,0 253.7,18 244.7,18 244.7,6 241.7,6 241.7,21 256.7,21 256.7,3 259.7,3 	"/>
	<polygon points="290,9 293,9 293,0 284,0 284,18 275,18 275,6 272,6 272,21 287,21 287,3 290,3 	"/>
</g>
<g>
	<polygon points="7.7,15 10.7,15 10.7,0 0,0 0,3 7.7,3 	"/>
	<polygon points="37.7,15 40.7,15 40.7,0 25.7,0 25.7,18 22.7,18 22.7,12 19.7,12 19.7,21 28.7,21 28.7,3 37.7,3 	"/>
	<polygon points="67.7,15 70.7,15 70.7,0 55.7,0 55.7,18 52.7,18 52.7,12 49.7,12 49.7,21 58.7,21 58.7,3 67.7,3 	"/>
	<polygon points="97.7,15 100.7,15 100.7,0 85.7,0 85.7,18 82.7,18 82.7,12 79.7,12 79.7,21 88.7,21 88.7,3 97.7,3 	"/>
	<polygon points="127.7,15 130.7,15 130.7,0 115.7,0 115.7,18 112.7,18 112.7,12 109.7,12 109.7,21 118.7,21 118.7,3 127.7,3 	"/>
	<polygon points="157.7,15 160.7,15 160.7,0 145.7,0 145.7,18 142.7,18 142.7,12 139.7,12 139.7,21 148.7,21 148.7,3 157.7,3 	"/>
	<polygon points="187.7,15 190.7,15 190.7,0 175.7,0 175.7,18 172.7,18 172.7,12 169.7,12 169.7,21 178.7,21 178.7,3 187.7,3 	"/>
	<polygon points="217.7,15 220.7,15 220.7,0 205.7,0 205.7,18 202.7,18 202.7,12 199.7,12 199.7,21 208.7,21 208.7,3 217.7,3 	"/>
	<polygon points="247.7,15 250.7,15 250.7,0 235.7,0 235.7,18 232.7,18 232.7,12 229.7,12 229.7,21 238.7,21 238.7,3 247.7,3 	"/>
	<polygon points="277.7,15 280.7,15 280.7,0 265.7,0 265.7,18 262.7,18 262.7,12 259.7,12 259.7,21 268.7,21 268.7,3 277.7,3 	"/>
</g>
</svg>
