<?xml version="1.0" encoding="utf-8"?>
<!-- Generator: Adobe Illustrator 25.0.1, SVG Export Plug-In . SVG Version: 6.00 Build 0)  -->
<svg version="1.1" id="Layer_1" xmlns="http://www.w3.org/2000/svg" xmlns:xlink="http://www.w3.org/1999/xlink" x="0px" y="0px"
	 viewBox="0 0 540 21" style="enable-background:new 0 0 540 21;" xml:space="preserve">
<style type="text/css">
	.st0{fill:#306B22;}
</style>
<g>
	<polygon class="st0" points="19.7,9 22.7,9 22.7,0 13.7,0 13.7,18 4.7,18 4.7,6 1.7,6 1.7,21 16.7,21 16.7,3 19.7,3 	"/>
	<polygon class="st0" points="49.7,9 52.7,9 52.7,0 43.7,0 43.7,18 34.7,18 34.7,6 31.7,6 31.7,21 46.7,21 46.7,3 49.7,3 	"/>
	<polygon class="st0" points="79.7,9 82.7,9 82.7,0 73.7,0 73.7,18 64.7,18 64.7,6 61.7,6 61.7,21 76.7,21 76.7,3 79.7,3 	"/>
	<polygon class="st0" points="109.7,9 112.7,9 112.7,0 103.7,0 103.7,18 94.7,18 94.7,6 91.7,6 91.7,21 106.7,21 106.7,3 109.7,3 	
		"/>
	<polygon class="st0" points="139.7,9 142.7,9 142.7,0 133.7,0 133.7,18 124.7,18 124.7,6 121.7,6 121.7,21 136.7,21 136.7,3 
		139.7,3 	"/>
	<polygon class="st0" points="169.7,9 172.7,9 172.7,0 163.7,0 163.7,18 154.7,18 154.7,6 151.7,6 151.7,21 166.7,21 166.7,3 
		169.7,3 	"/>
	<polygon class="st0" points="199.7,9 202.7,9 202.7,0 193.7,0 193.7,18 184.7,18 184.7,6 181.7,6 181.7,21 196.7,21 196.7,3 
		199.7,3 	"/>
	<polygon class="st0" points="229.7,9 232.7,9 232.7,0 223.7,0 223.7,18 214.7,18 214.7,6 211.7,6 211.7,21 226.7,21 226.7,3 
		229.7,3 	"/>
	<polygon class="st0" points="259.7,9 262.7,9 262.7,0 253.7,0 253.7,18 244.7,18 244.7,6 241.7,6 241.7,21 256.7,21 256.7,3 
		259.7,3 	"/>
	<polygon class="st0" points="289.7,9 292.7,9 292.7,0 283.7,0 283.7,18 274.7,18 274.7,6 271.7,6 271.7,21 286.7,21 286.7,3 
		289.7,3 	"/>
	<polygon class="st0" points="319.7,9 322.7,9 322.7,0 313.7,0 313.7,18 304.7,18 304.7,6 301.7,6 301.7,21 316.7,21 316.7,3 
		319.7,3 	"/>
	<polygon class="st0" points="349.7,9 352.7,9 352.7,0 343.7,0 343.7,18 334.7,18 334.7,6 331.7,6 331.7,21 346.7,21 346.7,3 
		349.7,3 	"/>
	<polygon class="st0" points="379.7,9 382.7,9 382.7,0 373.7,0 373.7,18 364.7,18 364.7,6 361.7,6 361.7,21 376.7,21 376.7,3 
		379.7,3 	"/>
	<polygon class="st0" points="409.7,9 412.7,9 412.7,0 403.7,0 403.7,18 394.7,18 394.7,6 391.7,6 391.7,21 406.7,21 406.7,3 
		409.7,3 	"/>
	<polygon class="st0" points="439.7,9 442.7,9 442.7,0 433.7,0 433.7,18 424.7,18 424.7,6 421.7,6 421.7,21 436.7,21 436.7,3 
		439.7,3 	"/>
	<polygon class="st0" points="469.7,9 472.7,9 472.7,0 463.7,0 463.7,18 454.7,18 454.7,6 451.7,6 451.7,21 466.7,21 466.7,3 
		469.7,3 	"/>
	<polygon class="st0" points="499.7,9 502.7,9 502.7,0 493.7,0 493.7,18 484.7,18 484.7,6 481.7,6 481.7,21 496.7,21 496.7,3 
		499.7,3 	"/>
	<polygon class="st0" points="529.7,9 532.7,9 532.7,0 523.7,0 523.7,18 514.7,18 514.7,6 511.7,6 511.7,21 526.7,21 526.7,3 
		529.7,3 	"/>
</g>
<g>
	<polygon class="st0" points="7.7,15 10.7,15 10.7,0 0,0 0,3 7.7,3 	"/>
	<polygon class="st0" points="37.7,15 40.7,15 40.7,0 25.7,0 25.7,18 22.7,18 22.7,12 19.7,12 19.7,21 28.7,21 28.7,3 37.7,3 	"/>
	<polygon class="st0" points="67.7,15 70.7,15 70.7,0 55.7,0 55.7,18 52.7,18 52.7,12 49.7,12 49.7,21 58.7,21 58.7,3 67.7,3 	"/>
	<polygon class="st0" points="97.7,15 100.7,15 100.7,0 85.7,0 85.7,18 82.7,18 82.7,12 79.7,12 79.7,21 88.7,21 88.7,3 97.7,3 	"/>
	<polygon class="st0" points="127.7,15 130.7,15 130.7,0 115.7,0 115.7,18 112.7,18 112.7,12 109.7,12 109.7,21 118.7,21 118.7,3 
		127.7,3 	"/>
	<polygon class="st0" points="157.7,15 160.7,15 160.7,0 145.7,0 145.7,18 142.7,18 142.7,12 139.7,12 139.7,21 148.7,21 148.7,3 
		157.7,3 	"/>
	<polygon class="st0" points="187.7,15 190.7,15 190.7,0 175.7,0 175.7,18 172.7,18 172.7,12 169.7,12 169.7,21 178.7,21 178.7,3 
		187.7,3 	"/>
	<polygon class="st0" points="217.7,15 220.7,15 220.7,0 205.7,0 205.7,18 202.7,18 202.7,12 199.7,12 199.7,21 208.7,21 208.7,3 
		217.7,3 	"/>
	<polygon class="st0" points="247.7,15 250.7,15 250.7,0 235.7,0 235.7,18 232.7,18 232.7,12 229.7,12 229.7,21 238.7,21 238.7,3 
		247.7,3 	"/>
	<polygon class="st0" points="277.7,15 280.7,15 280.7,0 265.7,0 265.7,18 262.7,18 262.7,12 259.7,12 259.7,21 268.7,21 268.7,3 
		277.7,3 	"/>
	<polygon class="st0" points="307.7,15 310.7,15 310.7,0 295.7,0 295.7,18 292.7,18 292.7,12 289.7,12 289.7,21 298.7,21 298.7,3 
		307.7,3 	"/>
	<polygon class="st0" points="337.7,15 340.7,15 340.7,0 325.7,0 325.7,18 322.7,18 322.7,12 319.7,12 319.7,21 328.7,21 328.7,3 
		337.7,3 	"/>
	<polygon class="st0" points="367.7,15 370.7,15 370.7,0 360,0 355.7,0 355.7,18 352.7,18 352.7,12 349.7,12 349.7,21 358.7,21 
		358.7,3 360,3 367.7,3 	"/>
	<polygon class="st0" points="397.7,15 400.7,15 400.7,0 385.7,0 385.7,18 382.7,18 382.7,12 379.7,12 379.7,21 388.7,21 388.7,3 
		397.7,3 	"/>
	<polygon class="st0" points="427.7,15 430.7,15 430.7,0 415.7,0 415.7,18 412.7,18 412.7,12 409.7,12 409.7,21 418.7,21 418.7,3 
		427.7,3 	"/>
	<polygon class="st0" points="457.7,15 460.7,15 460.7,0 445.7,0 445.7,18 442.7,18 442.7,12 439.7,12 439.7,21 448.7,21 448.7,3 
		457.7,3 	"/>
	<polygon class="st0" points="487.7,15 490.7,15 490.7,0 475.7,0 475.7,18 472.7,18 472.7,12 469.7,12 469.7,21 478.7,21 478.7,3 
		487.7,3 	"/>
	<polygon class="st0" points="517.7,15 520.7,15 520.7,0 505.7,0 505.7,18 502.7,18 502.7,12 499.7,12 499.7,21 508.7,21 508.7,3 
		517.7,3 	"/>
	<polygon class="st0" points="535.7,0 535.7,18 532.7,18 532.7,12 529.7,12 529.7,21 538.7,21 538.7,3 540,3 540,0 	"/>
</g>
</svg>
