<?xml version="1.0" encoding="utf-8"?>
<!-- Generator: Adobe Illustrator 25.0.1, SVG Export Plug-In . SVG Version: 6.00 Build 0)  -->
<svg version="1.1" id="Layer_1" xmlns="http://www.w3.org/2000/svg" xmlns:xlink="http://www.w3.org/1999/xlink" x="0px" y="0px"
	 viewBox="0 0 792 612" style="enable-background:new 0 0 792 612;" xml:space="preserve">
<style type="text/css">
	.st0{fill:#70362A;}
</style>
<path class="st0" d="M1051.6,314.4v-15.2h15.2v-45.7h11.4h3.8v-7.6h-3.8h-19v45.7H1044v15.2h-22.9v-7.6h15.2v-15.2h15.2v-38.1h-64.8
	h-19v45.7h-15.2v15.2h-22.9v-7.6h15.2v-15.2h15.2v-38.1h-64.8h-19v45.7h-15.2v15.2h-22.9v-7.6h15.2v-15.2h15.2v-38.1H804h-19v45.7
	h-15.2v15.2h-22.9v-7.6h15.2v-15.2h15.2v-38.1h-64.8h-19v45.7h-15.2v15.2h-22.9v-7.6h15.2v-15.2h15.2v-38.1H625h-22.9v45.7h-15.2
	v15.2H564v-7.6h15.2v-15.2h15.2v-38.1h-64.8h-19v45.7h-15.2v15.2h-22.9v-7.6h15.2v-15.2h15.2v-38.1h-64.8h-19v45.7H404v15.2h-22.9
	v-7.6h15.2v-15.2h15.2v-38.1h-64.8h-19v45.7h-15.2v15.2h-22.9v-7.6H305v-15.2h15.2v-38.1h-64.8h-19v45.7h-15.2v15.2h-22.9v-7.6h15.2
	v-15.2h15.2v-38.1h-64.8h-19v45.7h-15.2v15.2h-22.9v-7.6h15.2v-15.2h15.2v-38.1H72.6h-19v45.7H38.4v15.2H15.5v-7.6h15.2v-15.2H46
	v-38.1h-64.8h-19v45.7h-15.2v15.2h-22.9v-7.6h15.2v-15.2h15.2v-38.1h-64.8h-19v45.7h-15.2v15.2h-22.9v-7.6h15.2v-15.2h15.2v-38.1
	h-64.8h-19v45.7h-15.2v15.2h-22.9v-7.6h15.2v-15.2h15.2v-38.1h-60.9v7.6h53.3v22.9h-7.6v-15.2h-38.1v15.2h-7.6v7.6h15.2v-15.2h22.9
	v7.6h-15.2v15.2h-15.2v38.1h64.8h19v-45.7h15.2v-15.2h22.9v7.6H-175v15.2h-15.2v38.1h64.8h19v-45.7h15.2v-15.2h22.9v7.6h-15.2v15.2
	h-15.2v38.1H-34h19v-45.7H0.3v-15.2h22.9v7.6H7.9v15.2H-7.3v38.1h64.8h19v-45.7h15.2v-15.2h22.9v7.6H99.3v15.2H84.1v38.1h64.8h19
	v-45.7h15.2v-15.2H206v7.6h-15.2v15.2h-15.2v38.1h64.8h19v-45.7h15.2v-15.2h22.9v7.6h-15.2v15.2h-15.2v38.1h64.8h19v-45.7h15.2
	v-15.2h22.9v7.6h-15.2v15.2h-15.2v38.1h64.8h19v-45.7h15.2v-15.2h22.9v7.6H465v15.2h-15.2v38.1h64.8h19v-45.7h15.2v-15.2h22.9v7.6
	h-15.2v15.2h-15.2v38.1h64.8h19v-45.7h15.2v-15.2h22.9v7.6h-15.2v15.2h-15.2v38.1h64.8h19v-45.7h15.2v-15.2h22.9v7.6h-15.2v15.2H724
	v38.1h64.8h19v-45.7H823v-15.2h22.9v7.6h-15.2v15.2h-15.2v38.1h64.8h19v-45.7h15.2v-15.2h22.9v7.6h-15.2v15.2h-15.2v38.1h64.8h19
	v-45.7h15.2v-15.2h22.9v7.6h-15.2v15.2h-15.2v38.1h64.8h19v-45.7v-7.6h-7.6V322H1063h-57.1v-22.9h7.6v15.2H1051.6z M-258.8,283.9
	h7.6v7.6h-7.6V283.9z M-190.2,261.1v15.2h-15.2V322h-11.4H-274v-22.9h7.6v15.2h38.1v-15.2h15.2v-45.7h11.4h57.1v22.9h-7.6v-15.2
	H-190.2z M-167.3,283.9h7.6v7.6h-7.6V283.9z M-98.8,261.1v15.2H-114V322h-11.4h-57.1v-22.9h7.6v15.2h38.1v-15.2h15.2v-45.7h11.4
	h57.1v22.9h-7.6v-15.2H-98.8z M-75.9,283.9h7.6v7.6h-7.6V283.9z M-7.3,261.1v15.2h-15.2V322H-34h-57.1v-22.9h7.6v15.2h38.1v-15.2
	h15.2v-45.7h11.4h57.1v22.9h-7.6v-15.2H-7.3z M15.5,283.9h7.6v7.6h-7.6V283.9z M84.1,261.1v15.2H68.8V322H57.4H0.3v-22.9h7.6v15.2
	H46v-15.2h15.2v-45.7h11.4h57.1v22.9h-7.6v-15.2H84.1z M106.9,283.9h7.6v7.6h-7.6V283.9z M175.5,261.1v15.2h-15.2V322h-11.4H91.7
	v-22.9h7.6v15.2h38.1v-15.2h15.2v-45.7h11.4h57.1v22.9h-7.6v-15.2H175.5z M198.3,283.9h7.6v7.6h-7.6V283.9z M266.9,261.1v15.2h-15.2
	V322h-11.4h-57.1v-22.9h7.6v15.2h38.1v-15.2h15.2v-45.7h11.4h57.1v22.9H305v-15.2H266.9z M289.8,283.9h7.6v7.6h-7.6V283.9z
	 M358.3,261.1v15.2h-15.2V322h-11.4h-57.1v-22.9h7.6v15.2h38.1v-15.2h15.2v-45.7h11.4H404v22.9h-7.6v-15.2H358.3z M381.2,283.9h7.6
	v7.6h-7.6V283.9z M449.7,261.1v15.2h-15.2V322h-11.4h-57.1v-22.9h7.6v15.2h38.1v-15.2h15.2v-45.7h11.4h57.1v22.9h-7.6v-15.2H449.7z
	 M472.6,283.9h7.6v7.6h-7.6V283.9z M541.2,261.1v15.2h-15.2V322h-11.4h-57.1v-22.9h7.6v15.2h38.1v-15.2h15.2v-45.7h11.4h57.1v22.9
	h-7.6v-15.2H541.2z M564,283.9h7.6v7.6H564V283.9z M632.6,261.1v15.2H625h-7.6V322h-11.4h-57.1v-22.9h7.6v15.2h38.1v-15.2h15.2
	v-45.7H625h53.3v22.9h-7.6v-15.2H632.6z M655.4,283.9h7.6v7.6h-7.6V283.9z M724,261.1v15.2h-15.2V322h-11.4h-57.1v-22.9h7.6v15.2
	h38.1v-15.2h15.2v-45.7h11.4h57.1v22.9h-7.6v-15.2H724z M746.9,283.9h7.6v7.6h-7.6V283.9z M815.4,261.1v15.2h-15.2V322h-11.4h-57.1
	v-22.9h7.6v15.2h38.1v-15.2h15.2v-45.7H804h57.1v22.9h-7.6v-15.2H815.4z M838.3,283.9h7.6v7.6h-7.6V283.9z M906.8,261.1v15.2h-15.2
	V322h-11.4H823v-22.9h7.6v15.2h38.1v-15.2H884v-45.7h11.4h57.1v22.9h-7.6v-15.2H906.8z M929.7,283.9h7.6v7.6h-7.6V283.9z
	 M998.3,261.1v15.2H983V322h-11.4h-57.1v-22.9h7.6v15.2h38.1v-15.2h15.2v-45.7h11.4h57.1v22.9h-7.6v-15.2H998.3z M1021.1,283.9h7.6
	v7.6h-7.6V283.9z"/>
<g id="WkKJpx_1_">
	
		<image style="overflow:visible;" width="900" height="600" id="WkKJpx" xlink:href="DAC15A1742E246DE.jpg"  transform="matrix(0.75 0 0 0.75 640.6637 448.4867)">
	</image>
</g>
</svg>
