<?xml version="1.0" encoding="utf-8"?>
<!-- Generator: Adobe Illustrator 25.0.1, SVG Export Plug-In . SVG Version: 6.00 Build 0)  -->
<svg version="1.1" id="Layer_1" xmlns="http://www.w3.org/2000/svg" xmlns:xlink="http://www.w3.org/1999/xlink" x="0px" y="0px"
	 viewBox="0 0 792 612" style="enable-background:new 0 0 792 612;" xml:space="preserve">
<style type="text/css">
	.st0{fill-rule:evenodd;clip-rule:evenodd;fill:#E0DED6;}
</style>
<g>
	<polygon id="polygon4223" class="st0" points="486.9,376 500.3,376 500.3,409.5 399.8,409.5 399.8,369.2 379.6,369.2 379.6,376 
		393,376 393,409.5 292.5,409.5 292.5,308.9 326,308.9 326,322.3 332.7,322.3 332.7,302.2 292.5,302.2 292.5,201.6 326,201.6 
		326,215.1 332.7,215.1 332.7,194.9 285.8,194.9 285.8,416.2 507.1,416.2 507.1,369.2 486.9,369.2 	"/>
	<path id="path4225" class="st0" d="M299.2,315.6v87.2h87.2v-20.1h-6.7v13.4h-33.5v-40.2h-40.2v-33.5h13.4v-6.7L299.2,315.6
		L299.2,315.6z M305.9,362.5h33.5v33.5h-33.5L305.9,362.5z"/>
	<polygon id="polygon4227" class="st0" points="312.6,329 312.6,349.1 352.8,349.1 352.8,389.4 372.9,389.4 372.9,382.7 
		359.5,382.7 359.5,349.1 460.1,349.1 460.1,389.4 480.2,389.4 480.2,382.7 466.8,382.7 466.8,349.1 507.1,349.1 507.1,342.4 
		359.5,342.4 359.5,194.9 352.8,194.9 352.8,235.2 319.3,235.2 319.3,221.7 312.6,221.7 312.6,241.8 352.8,241.8 352.8,342.4 
		319.3,342.4 319.3,329 	"/>
	<path id="path4229" class="st0" d="M339.4,329H326v6.7h20.1v-87.2h-40.2V215h13.4v-6.7h-20.1v87.2h40.2L339.4,329z M339.4,288.8
		h-33.5v-33.5h33.5V288.8z"/>
	<polygon id="polygon4231" class="st0" points="326,228.5 346.1,228.5 346.1,194.9 339.4,194.9 339.4,221.7 326,221.7 	"/>
	<path id="path4233" class="st0" d="M453.4,355.9h-87.2V376h6.7v-13.4h33.5v40.2h87.2v-20.1H487v13.4h-33.5V355.9z M413.2,396.1
		v-33.5h33.5v33.5H413.2z"/>
	<polygon id="polygon4235" class="st0" points="473.5,376 480.2,376 480.2,362.5 507.1,362.5 507.1,355.9 473.5,355.9 	"/>
	<polygon id="polygon4237" class="st0" points="440,382.7 433.3,382.7 433.3,389.4 440,389.4 	"/>
	<polygon id="polygon4239" class="st0" points="440,369.2 433.3,369.2 433.3,376 440,376 	"/>
	<polygon id="polygon4241" class="st0" points="426.6,369.2 419.9,369.2 419.9,376 426.6,376 	"/>
	<polygon id="polygon4243" class="st0" points="426.6,382.7 419.9,382.7 419.9,389.4 426.6,389.4 	"/>
	<polygon id="polygon4245" class="st0" points="319.3,389.4 319.3,382.7 312.6,382.7 312.6,389.4 	"/>
	<polygon id="polygon4247" class="st0" points="332.7,389.4 332.7,382.7 326,382.7 326,389.4 	"/>
	<polygon id="polygon4249" class="st0" points="332.7,376 332.7,369.2 326,369.2 326,376 	"/>
	<polygon id="polygon4251" class="st0" points="319.3,369.2 312.6,369.2 312.6,376 319.3,376 	"/>
	<polygon id="polygon4253" class="st0" points="319.3,262 312.6,262 312.6,268.7 319.3,268.7 	"/>
	<polygon id="polygon4255" class="st0" points="319.3,275.4 312.6,275.4 312.6,282.1 319.3,282.1 	"/>
	<polygon id="polygon4257" class="st0" points="332.7,275.4 326,275.4 326,282.1 332.7,282.1 	"/>
	<polygon id="polygon4259" class="st0" points="332.7,262 326,262 326,268.7 332.7,268.7 	"/>
</g>
<image style="overflow:visible;" width="900" height="600" xlink:href="Ancient Greece Color Palette - color-hex.com.png"  transform="matrix(0.75 0 0 0.75 835.0221 58.885)">
</image>
</svg>
