<?xml version="1.0" encoding="utf-8"?>
<!-- Generator: Adobe Illustrator 25.0.1, SVG Export Plug-In . SVG Version: 6.00 Build 0)  -->
<svg version="1.1" id="Layer_1" xmlns="http://www.w3.org/2000/svg" xmlns:xlink="http://www.w3.org/1999/xlink" x="0px" y="0px"
	 viewBox="0 0 920 680" style="enable-background:new 0 0 920 680;" xml:space="preserve">
<g>
	<path d="M597,488l-25.9-39.4l-136.6-152c0,0-8.9-10-9.8-10.4c-0.9-0.4-1-4-1-5.4c0-1.4-14.5-12-14.5-12s0.6-7.4,2.8-10.6
		s9.9-9.9,12.2-10.6c2.2-0.6,0.8,1.3,0.8,1.3s2.4,4.3,5.5,3.9c3.2-0.4,5.1-3.6,5.8-6.1c0.6-2.5,1.3-8.5-6.7-10.4c0,0-2.9,0-5.5,2.5
		c-2.7,2.5-21,20.6-21,20.6s-2,1-3.2,0c-1.2-1-4-3.3-4-3.3l-0.4-2.1l-2.4-2.2l-1.3,0.2L368,223.8c0,0-0.4-5-4.3-4.9l-1.9-1.8
		l-0.2-2.1l-2.2-0.6l-2.2-3.9c0,0-2.1-11.8-9.7-16.7c-7.6-4.9-16.3,2.3-16.3,2.3L597,488z"/>
	<path d="M596.9,487.9l-36.5-29.5L421.7,308.3c0,0-9.2-9.8-9.5-10.7s-3.9-1.4-5.3-1.5c-1.4-0.1-10.6-15.5-10.6-15.5s-7.4,0-10.8,1.8
		c-3.4,1.8-10.8,9-11.7,11.1c-0.9,2.2,1.2,0.9,1.2,0.9s4,2.8,3.3,5.9c-0.7,3.1-4.1,4.8-6.6,5.2c-2.6,0.4-8.6,0.5-9.8-7.7
		c0,0,0.2-2.9,3-5.3c2.8-2.4,22.5-19.1,22.5-19.1s1.2-1.9,0.3-3.2c-0.9-1.3-2.9-4.3-2.9-4.3l-2.1-0.6l-2-2.6l0.4-1.3l-25.9-26.3
		c0,0-4.9-0.8-4.5-4.7l-1.6-2.1l-2-0.4l-0.3-2.2l-3.7-2.6c0,0-11.6-3.2-15.7-11.1s3.9-16,3.9-16L596.9,487.9z"/>
	<path d="M580.1,468.4L580.1,468.4c-1.5,1.4-3.9,1.3-5.2-0.2L331.1,201.5c-1.4-1.5-1.3-3.9,0.2-5.2l0,0c1.5-1.4,3.9-1.3,5.2,0.2
		l243.7,266.7C581.7,464.6,581.6,467,580.1,468.4z"/>
</g>
</svg>
